<svg xmlns="http://www.w3.org/2000/svg" viewBox="0 0 227.43 219.14"><defs><style>.a{fill:#007cff;}.b{fill:#fff;}.c{fill:#3f3f3f;}</style></defs><title>Group 566</title><rect class="a" width="149.93" height="149.93"/><path class="b" d="M48.68,128.46V81.54H62.5q7.25,0,11.33,3.22t4.08,9.6a11.77,11.77,0,0,1-1.48,5.95A9.13,9.13,0,0,1,72,104.19,8.33,8.33,0,0,1,77.46,108a12.78,12.78,0,0,1,1.77,6.8q0,6.74-3.85,10.22t-11,3.48Zm9.18-27.1h5.06a5.87,5.87,0,0,0,4.3-1.63,6.27,6.27,0,0,0,1.5-4.51q0-3.29-1.55-4.83a6.39,6.39,0,0,0-4.67-1.53H57.86Zm0,6.41v13.37h6.48a5.5,5.5,0,0,0,4.33-1.61,7,7,0,0,0,1.43-4.8,9.14,9.14,0,0,0-1.22-5.16,4.41,4.41,0,0,0-3.93-1.8Z"/><path class="b" d="M96.12,121.14h17.14v7.32H86.94V81.54h9.18Z"/><path class="b" d="M149,111.61q0,8.25-4.48,12.89t-11.92,4.64q-7.44,0-11.89-4.64t-4.45-12.89V98.46q0-8.22,4.45-12.91t11.86-4.69q7.41,0,11.92,4.69T149,98.46Zm-9.12-13.25q0-5-1.87-7.61a6.31,6.31,0,0,0-5.45-2.57,6.19,6.19,0,0,0-5.41,2.55q-1.8,2.55-1.8,7.63v13.25q0,5.11,1.84,7.66a7,7,0,0,0,10.83,0q1.87-2.55,1.87-7.66Z"/><path class="c" d="M187.69,121.5a16.85,16.85,0,0,1-5.7,5.33,18.35,18.35,0,0,1-9.64,2.3q-7.54,0-12.1-4.42t-4.56-12.57V97.84q0-8.09,4.4-12.54t11.65-4.45q7.8,0,11.7,3.82T187.5,95.6l-.06.19h-8.6q-.1-4-1.76-5.8A6.53,6.53,0,0,0,172,88.18a6.36,6.36,0,0,0-5.25,2.37q-1.9,2.37-1.9,7.21v14.39q0,4.94,1.92,7.31a6.77,6.77,0,0,0,5.59,2.37,8.48,8.48,0,0,0,4-.74,5.77,5.77,0,0,0,2.14-2.19v-8.41h-6.19V104h15.34Z"/><path class="c" d="M57.86,201.61v16.85H48.68V171.54H65q7,0,11.09,4.15a14.9,14.9,0,0,1,4.06,10.88q0,6.76-4.08,10.9T65,201.61Zm0-7.32H65a5.16,5.16,0,0,0,4.48-2.16A9.21,9.21,0,0,0,71,186.64a9.57,9.57,0,0,0-1.53-5.57,5.12,5.12,0,0,0-4.5-2.21H57.86Z"/><path class="c" d="M119.26,201.61q0,8.25-4.48,12.89t-11.92,4.64q-7.44,0-11.89-4.64t-4.45-12.89V188.46q0-8.22,4.45-12.91t11.86-4.69q7.41,0,11.92,4.69t4.51,12.91Zm-9.12-13.25q0-5-1.87-7.61a6.31,6.31,0,0,0-5.45-2.57,6.19,6.19,0,0,0-5.41,2.55q-1.8,2.55-1.8,7.63v13.25q0,5.11,1.84,7.66a7,7,0,0,0,10.83,0q1.87-2.55,1.87-7.66Z"/><path class="c" d="M147.72,206.21a6.29,6.29,0,0,0-1.42-4.33,14.43,14.43,0,0,0-5-3.14q-7.32-2.55-11-5.79t-3.66-9.07a11.76,11.76,0,0,1,4.25-9.39,16.15,16.15,0,0,1,10.86-3.63,15,15,0,0,1,10.89,4,13.17,13.17,0,0,1,4.06,10.2l-.06.19h-8.89a8.06,8.06,0,0,0-1.61-5.22,6.24,6.24,0,0,0-8.81-.34,5.92,5.92,0,0,0-1.53,4.17,4.85,4.85,0,0,0,1.71,3.82,24,24,0,0,0,5.93,3.34q6.67,2.26,10,5.72t3.37,9.36a11.84,11.84,0,0,1-4.06,9.54q-4.06,3.45-10.8,3.45a18.08,18.08,0,0,1-11.62-3.92q-4.92-3.92-4.75-11.23l.06-.19h8.93q0,4.35,1.84,6.25t5.54,1.9a5.53,5.53,0,0,0,4.3-1.55A6,6,0,0,0,147.72,206.21Z"/><path class="c" d="M191.88,178.85H181.31v39.61h-9.15V178.85H161.65v-7.32h30.23Z"/><path class="c" d="M218.28,206.21a6.29,6.29,0,0,0-1.42-4.33,14.43,14.43,0,0,0-5-3.14q-7.32-2.55-11-5.79t-3.66-9.07a11.76,11.76,0,0,1,4.25-9.39,16.15,16.15,0,0,1,10.86-3.63,15,15,0,0,1,10.89,4,13.17,13.17,0,0,1,4.06,10.2l-.06.19h-8.89a8.06,8.06,0,0,0-1.61-5.22,6.24,6.24,0,0,0-8.81-.34,5.92,5.92,0,0,0-1.53,4.17,4.85,4.85,0,0,0,1.71,3.82,24,24,0,0,0,5.93,3.34q6.67,2.26,10,5.72t3.37,9.36a11.84,11.84,0,0,1-4.06,9.54q-4.06,3.45-10.8,3.45A18.08,18.08,0,0,1,201,215.22Q196,211.3,196.21,204l.06-.19h8.93q0,4.35,1.84,6.25t5.54,1.9a5.53,5.53,0,0,0,4.3-1.55A6,6,0,0,0,218.28,206.21Z"/></svg>