<svg xmlns="http://www.w3.org/2000/svg" xmlns:xlink="http://www.w3.org/1999/xlink" width="917.406" height="513.549" viewBox="0 0 917.406 513.549">
  <defs>
    <linearGradient id="linear-gradient" x1="0.747" y1="-0.203" x2="0.253" y2="1.203" gradientUnits="objectBoundingBox">
      <stop offset="0" stop-color="#80a2ff"/>
      <stop offset="1" stop-color="#c7d6ff"/>
    </linearGradient>
  </defs>
  <g id="Group_564" data-name="Group 564" transform="translate(-3701.246 -4459.477)">
    <path id="Path_597" data-name="Path 597" d="M3940.572,4467.389c-79.75,32.084-63.073,79.109-137.905,112.249s-95.144,47.037-100.489,67.349,13.9,35.278,17.1,50.244-18.173,34.209,9.622,94.075,45.968,80.178,98.351,90.868,42.761,55.59,101.558,62,193.5-25.657,262.982-56.659,203.116,21.381,291.846,23.519,159.06-94.185,127.215-174.252c-37.416-94.075-31-39.555-67.349-137.906s-191.357-42.761-250.154-52.382S4033.578,4429.973,3940.572,4467.389Z" fill="#a5c4ff" opacity="0.3"/>
    <path id="Path_598" data-name="Path 598" d="M3856.118,4543.289c-81.374,74.087-58.8,136.837-49.175,156.079s19.242,63.073-6.415,96.213-7.483,78.04,50.245,100.489,23.519,48.107,101.558,51.314,68.418-27.795,135.767-14.967,270.466,65.211,350.643,26.726,152.872-138.974,120.8-211.668-63.073-82.316-33.14-160.355-17.1-126.146-88.73-110.111-188.15,111.18-312.158,100.489S3927.743,4478.078,3856.118,4543.289Z" fill="#c4c4ff" opacity="0.3"/>
    <g id="Group_537" data-name="Group 537" opacity="0.5">
      <rect id="Rectangle_545" data-name="Rectangle 545" width="60.835" height="41.956" rx="6.101" transform="translate(4252.657 4580.086) rotate(-26.78)" fill="#f8bbd0"/>
      <rect id="Rectangle_546" data-name="Rectangle 546" width="60.835" height="41.955" rx="6.101" transform="translate(4359.168 4550.416) rotate(19.446)" fill="#f8bbd0"/>
      <rect id="Rectangle_547" data-name="Rectangle 547" width="60.835" height="41.955" rx="6.101" transform="translate(4280.526 4774.316) rotate(19.446)" fill="#f8bbd0"/>
      <rect id="Rectangle_548" data-name="Rectangle 548" width="60.835" height="41.955" rx="6.101" transform="translate(4356.266 4793.351) rotate(-26.78)" fill="#f8bbd0"/>
      <rect id="Rectangle_549" data-name="Rectangle 549" width="60.835" height="41.956" rx="6.101" transform="translate(4453.214 4603.214) rotate(63.751)" fill="#f8bbd0"/>
      <rect id="Rectangle_550" data-name="Rectangle 550" width="60.835" height="41.955" rx="6.101" transform="translate(4239.081 4705.652) rotate(63.751)" fill="#f8bbd0"/>
      <rect id="Rectangle_551" data-name="Rectangle 551" width="60.835" height="41.956" rx="6.101" transform="matrix(-0.32, 0.947, -0.947, -0.32, 4258.502, 4630.684)" fill="#f8bbd0"/>
      <path id="Path_599" data-name="Path 599" d="M4481.329,4713.652l-12.589,37.321-2.97,8.728a6.058,6.058,0,0,1-6.64,4.072,3.7,3.7,0,0,1-1.095-.219l-15.086-5.116-13.092-4.417a6.089,6.089,0,0,1-3.815-7.734l4.416-13.092,3.3-9.706,7.844-23.289a6.091,6.091,0,0,1,7.734-3.815l13.356,4.5,14.822,5.033A6.061,6.061,0,0,1,4481.329,4713.652Z" fill="#f8bbd0"/>
      <path id="Path_600" data-name="Path 600" d="M4462.779,4683.651a121.61,121.61,0,1,0-19.83,74.787c1.622-2.424,3.132-4.927,4.569-7.507a112.6,112.6,0,0,0,5.137-10.264,119.991,119.991,0,0,0,10.037-39.782A124.858,124.858,0,0,0,4462.779,4683.651Zm-118.438,59.779a51.528,51.528,0,1,1,48.1-54.735A51.544,51.544,0,0,1,4344.341,4743.43Z" fill="#f8bbd0"/>
      <g id="Group_536" data-name="Group 536">
        <path id="Path_601" data-name="Path 601" d="M4319.718,4757.067a69.063,69.063,0,1,1,26.2,3.367A69.175,69.175,0,0,1,4319.718,4757.067Zm43.268-130.461A68.386,68.386,0,1,0,4409.7,4687.1,67.987,67.987,0,0,0,4362.986,4626.606Z" fill="#fff"/>
      </g>
    </g>
    <path id="Path_602" data-name="Path 602" d="M4484.214,4755.195v136.592a4.232,4.232,0,0,1-4.172,4.173H4300.781a4.164,4.164,0,0,1-3.365-1.718,4.078,4.078,0,0,1-.807-2.455V4755.195a4.167,4.167,0,0,1,4.172-4.155h179.261A4.167,4.167,0,0,1,4484.214,4755.195Z" fill="#ffcf17"/>
    <path id="Path_603" data-name="Path 603" d="M4383.663,4831.4c-1.315,3.506-36.655,40.9-40.757,47.769-3.086,5.206-27.207,14.3-39.372,16.794h-2.753a4.164,4.164,0,0,1-3.365-1.718c7.713-10.553,67-61.53,78.218-70.751a36.41,36.41,0,0,1,3.383,1.876C4381.541,4826.98,4384.434,4829.346,4383.663,4831.4Z" fill="#e6e6e6" style="mix-blend-mode: multiply;isolation: isolate"/>
    <path id="Path_604" data-name="Path 604" d="M4483.145,4894.54a4.038,4.038,0,0,1-3.1,1.42H4454.1c-13.779-14.55-62.652-79.463-62.652-79.463,21.141,13.007,75.2,60.478,78.411,63.4C4472.662,4882.462,4481.409,4890.578,4483.145,4894.54Z" fill="#e6e6e6" style="mix-blend-mode: multiply;isolation: isolate"/>
    <path id="Path_605" data-name="Path 605" d="M4479.884,4895.96H4300.939a1.6,1.6,0,0,1-1.034-2.823l79.112-67.77,10.36-8.87a1.592,1.592,0,0,1,2.069,0l89.472,76.64A1.6,1.6,0,0,1,4479.884,4895.96Z" fill="#ffd430"/>
    <path id="Path_606" data-name="Path 606" d="M4298.77,4753.13l89.36,86.839a3.092,3.092,0,0,0,4.308,0l89.609-86.841a1.218,1.218,0,0,0-.848-2.093H4299.62A1.218,1.218,0,0,0,4298.77,4753.13Z" fill="#ffe06e"/>
    <g id="Group_539" data-name="Group 539">
      <rect id="Rectangle_552" data-name="Rectangle 552" width="26.602" height="18.346" rx="2.668" transform="matrix(0.88, -0.475, 0.475, 0.88, 3920.547, 4591.521)" fill="#f8a99c"/>
      <rect id="Rectangle_553" data-name="Rectangle 553" width="26.602" height="18.346" rx="2.668" transform="matrix(0.952, 0.307, -0.307, 0.952, 3966.753, 4577.292)" fill="#f8a99c"/>
      <rect id="Rectangle_554" data-name="Rectangle 554" width="26.602" height="18.346" rx="2.668" transform="translate(3935.027 4676.092) rotate(17.895)" fill="#f8a99c"/>
      <rect id="Rectangle_555" data-name="Rectangle 555" width="26.602" height="18.346" rx="2.668" transform="matrix(0.88, -0.475, 0.475, 0.88, 3968.358, 4683.516)" fill="#f8a99c"/>
      <rect id="Rectangle_556" data-name="Rectangle 556" width="26.602" height="18.346" rx="2.668" transform="translate(4008.487 4599.258) rotate(62.201)" fill="#f8a99c"/>
      <rect id="Rectangle_557" data-name="Rectangle 557" width="26.602" height="18.346" rx="2.668" transform="translate(3916.098 4646.568) rotate(62.201)" fill="#f8a99c"/>
      <rect id="Rectangle_558" data-name="Rectangle 558" width="26.602" height="18.346" rx="2.668" transform="matrix(-0.294, 0.956, -0.956, -0.294, 3923.701, 4613.569)" fill="#f8a99c"/>
      <path id="Path_607" data-name="Path 607" d="M4022.082,4647.2l-5.061,16.462-1.2,3.851a2.65,2.65,0,0,1-2.854,1.858,1.633,1.633,0,0,1-.482-.083l-6.654-2.058-5.775-1.775a2.663,2.663,0,0,1-1.759-3.336l1.775-5.775,1.328-4.282,3.153-10.272a2.664,2.664,0,0,1,3.336-1.759l5.891,1.809,6.538,2.024A2.651,2.651,0,0,1,4022.082,4647.2Z" fill="#f8a99c"/>
      <path id="Path_608" data-name="Path 608" d="M4013.619,4634.305a53.177,53.177,0,1,0-7.783,32.924c.68-1.078,1.311-2.19,1.908-3.335a49.079,49.079,0,0,0,2.124-4.547,52.478,52.478,0,0,0,3.917-17.508A54.673,54.673,0,0,0,4013.619,4634.305Zm-51.063,27.531a22.531,22.531,0,1,1,20.379-24.494A22.538,22.538,0,0,1,3962.556,4661.836Z" fill="#f8a99c"/>
      <g id="Group_538" data-name="Group 538">
        <path id="Path_609" data-name="Path 609" d="M3960.659,4669.379a30.249,30.249,0,1,1,2.787-.129C3962.511,4669.336,3961.58,4669.379,3960.659,4669.379Zm.045-60.1q-1.371,0-2.761.127a29.9,29.9,0,0,0,2.716,59.681q1.37,0,2.76-.127a29.9,29.9,0,0,0-2.715-59.681Z" fill="#fff"/>
      </g>
    </g>
    <g id="Group_541" data-name="Group 541" opacity="0.5">
      <rect id="Rectangle_559" data-name="Rectangle 559" width="16.409" height="11.317" rx="1.646" transform="translate(4178.572 4542.467) rotate(-28.331)" fill="#f8a99c"/>
      <rect id="Rectangle_560" data-name="Rectangle 560" width="16.409" height="11.317" rx="1.646" transform="translate(4207.074 4533.689) rotate(17.896)" fill="#f8a99c"/>
      <rect id="Rectangle_561" data-name="Rectangle 561" width="16.409" height="11.317" rx="1.646" transform="matrix(0.952, 0.307, -0.307, 0.952, 4187.503, 4594.633)" fill="#f8a99c"/>
      <rect id="Rectangle_562" data-name="Rectangle 562" width="16.409" height="11.317" rx="1.646" transform="matrix(0.88, -0.475, 0.475, 0.88, 4208.064, 4599.213)" fill="#f8a99c"/>
      <rect id="Rectangle_563" data-name="Rectangle 563" width="16.409" height="11.317" rx="1.646" transform="translate(4232.816 4547.239) rotate(62.201)" fill="#f8a99c"/>
      <rect id="Rectangle_564" data-name="Rectangle 564" width="16.409" height="11.317" rx="1.646" transform="matrix(0.466, 0.885, -0.885, 0.466, 4175.827, 4576.422)" fill="#f8a99c"/>
      <rect id="Rectangle_565" data-name="Rectangle 565" width="16.409" height="11.316" rx="1.646" transform="translate(4180.517 4556.066) rotate(107.112)" fill="#f8a99c"/>
      <path id="Path_610" data-name="Path 610" d="M4241.2,4576.811l-3.122,10.155-.737,2.375a1.636,1.636,0,0,1-1.761,1.146,1,1,0,0,1-.3-.051l-4.1-1.269-3.562-1.1a1.642,1.642,0,0,1-1.085-2.057l1.095-3.563.819-2.641,1.945-6.336a1.642,1.642,0,0,1,2.057-1.085l3.634,1.116,4.034,1.248A1.637,1.637,0,0,1,4241.2,4576.811Z" fill="#f8a99c"/>
      <path id="Path_611" data-name="Path 611" d="M4235.982,4568.857a32.8,32.8,0,1,0-4.8,20.31c.42-.666.809-1.352,1.177-2.058a30.486,30.486,0,0,0,1.311-2.8,32.368,32.368,0,0,0,2.415-10.8A33.718,33.718,0,0,0,4235.982,4568.857Zm-31.5,16.983a13.9,13.9,0,1,1,12.571-15.109A13.9,13.9,0,0,1,4204.484,4585.84Z" fill="#f8a99c"/>
      <g id="Group_540" data-name="Group 540">
        <path id="Path_612" data-name="Path 612" d="M4203.314,4590.492a18.65,18.65,0,1,1,1.719-.079C4204.457,4590.466,4203.882,4590.492,4203.314,4590.492Zm.028-37.075q-.846,0-1.7.078a18.446,18.446,0,0,0,1.675,36.814c.563,0,1.131-.025,1.7-.078a18.446,18.446,0,0,0-1.675-36.814Z" fill="#fff"/>
      </g>
    </g>
    <rect id="Rectangle_566" data-name="Rectangle 566" width="44.781" height="30.883" rx="4.491" transform="translate(3808.643 4736.838) rotate(-45.201)" fill="#f8bbd0"/>
    <rect id="Rectangle_567" data-name="Rectangle 567" width="44.781" height="30.883" rx="4.491" transform="translate(3876.127 4691.342) rotate(1.025)" fill="#f8bbd0"/>
    <rect id="Rectangle_568" data-name="Rectangle 568" width="44.781" height="30.883" rx="4.491" transform="translate(3873.285 4866.003) rotate(1.025)" fill="#f8bbd0"/>
    <rect id="Rectangle_569" data-name="Rectangle 569" width="44.781" height="30.883" rx="4.491" transform="translate(3930.607 4861.679) rotate(-45.201)" fill="#f8bbd0"/>
    <rect id="Rectangle_570" data-name="Rectangle 570" width="44.781" height="30.883" rx="4.491" transform="matrix(0.703, 0.711, -0.711, 0.703, 3954.089, 4706.34)" fill="#f8bbd0"/>
    <rect id="Rectangle_571" data-name="Rectangle 571" width="44.781" height="30.883" rx="4.491" transform="translate(3828.368 4827.689) rotate(45.33)" fill="#f8bbd0"/>
    <rect id="Rectangle_572" data-name="Rectangle 572" width="44.781" height="30.883" rx="4.491" transform="matrix(-0.004, 1, -1, -0.004, 3824.495, 4770.815)" fill="#f8bbd0"/>
    <path id="Path_613" data-name="Path 613" d="M3999.412,4776.929l-.112,28.993-.043,6.786a4.461,4.461,0,0,1-3.691,4.388,2.776,2.776,0,0,1-.816.1l-11.725-.064-10.171-.039a4.484,4.484,0,0,1-4.463-4.515l.039-10.17.047-7.546.061-18.089a4.483,4.483,0,0,1,4.514-4.463l10.374.036,11.522.067A4.462,4.462,0,0,1,3999.412,4776.929Z" fill="#f8bbd0"/>
    <path id="Path_614" data-name="Path 614" d="M3979.478,4760.291a89.518,89.518,0,1,0,3.547,56.843c.569-2.07,1.042-4.17,1.445-6.306a83.013,83.013,0,0,0,1.2-8.363,88.3,88.3,0,0,0-2.244-30.117A91.961,91.961,0,0,0,3979.478,4760.291Zm-68.81,69.3a37.929,37.929,0,1,1,20.863-49.415A37.941,37.941,0,0,1,3910.668,4829.589Z" fill="#f8bbd0"/>
    <g id="Group_542" data-name="Group 542">
      <path id="Path_615" data-name="Path 615" d="M3896.644,4844.84a50.833,50.833,0,1,1,19.082-3.743A50.92,50.92,0,0,1,3896.644,4844.84Zm-.128-101.176a50.339,50.339,0,1,0,46.695,31.382A50.066,50.066,0,0,0,3896.516,4743.664Z" fill="#fff"/>
    </g>
    <rect id="Rectangle_573" data-name="Rectangle 573" width="408.389" height="255.156" rx="18.027" transform="translate(3948.876 4640.575)" fill="#3f3f8c"/>
    <rect id="Rectangle_574" data-name="Rectangle 574" width="368.438" height="216.328" transform="translate(3968.852 4659.99)" fill="#fff"/>
    <path id="Rectangle_575" data-name="Rectangle 575" d="M6.11,0H561.752a6.11,6.11,0,0,1,6.11,6.11v.38A20.551,20.551,0,0,1,547.31,27.041H20.551A20.551,20.551,0,0,1,0,6.49V6.11A6.11,6.11,0,0,1,6.11,0Z" transform="translate(3869.14 4887.238)" fill="#4747ab"/>
    <rect id="Rectangle_576" data-name="Rectangle 576" width="369.041" height="216.276" transform="translate(3968.297 4659.99)" fill="#fff"/>
    <rect id="Rectangle_577" data-name="Rectangle 577" width="369.084" height="22.828" transform="translate(3968.297 4659.99)" fill="#859be6"/>
    <circle id="Ellipse_304" data-name="Ellipse 304" cx="4.16" cy="4.16" r="4.16" transform="translate(3978.35 4667.244)" fill="#ebefff"/>
    <path id="Path_616" data-name="Path 616" d="M4101.916,4667.218h-43.5a4.186,4.186,0,0,0-4.185,4.186h0a4.185,4.185,0,0,0,4.185,4.185h43.5a4.186,4.186,0,0,0,4.186-4.185h0A4.186,4.186,0,0,0,4101.916,4667.218Z" fill="#fff"/>
    <path id="Path_617" data-name="Path 617" d="M4174.373,4667.218h-43.5a4.186,4.186,0,0,0-4.185,4.186h0a4.185,4.185,0,0,0,4.185,4.185h43.5a4.185,4.185,0,0,0,4.185-4.185h0A4.186,4.186,0,0,0,4174.373,4667.218Z" fill="#fff"/>
    <path id="Path_618" data-name="Path 618" d="M4246.829,4667.218h-43.5a4.186,4.186,0,0,0-4.185,4.186h0a4.185,4.185,0,0,0,4.185,4.185h43.5a4.185,4.185,0,0,0,4.185-4.185h0A4.186,4.186,0,0,0,4246.829,4667.218Z" fill="#fff"/>
    <path id="Path_619" data-name="Path 619" d="M4319.285,4667.218h-43.5a4.186,4.186,0,0,0-4.185,4.186h0a4.185,4.185,0,0,0,4.185,4.185h43.5a4.185,4.185,0,0,0,4.185-4.185h0A4.186,4.186,0,0,0,4319.285,4667.218Z" fill="#fff"/>
    <path id="Path_620" data-name="Path 620" d="M4194.332,4711.245h-84.59a5.546,5.546,0,0,1-5.547-5.546h0a5.547,5.547,0,0,1,5.547-5.547h84.59a5.547,5.547,0,0,1,5.547,5.547h0A5.547,5.547,0,0,1,4194.332,4711.245Z" fill="#a3bbff"/>
    <rect id="Rectangle_578" data-name="Rectangle 578" width="95.684" height="58.242" rx="5.027" transform="translate(4104.195 4775.035)" fill="url(#linear-gradient)"/>
    <rect id="Rectangle_579" data-name="Rectangle 579" width="95.684" height="58.242" rx="5.027" transform="translate(3991.871 4775.035)" fill="url(#linear-gradient)"/>
    <rect id="Rectangle_580" data-name="Rectangle 580" width="95.684" height="58.242" rx="5.027" transform="translate(4215.826 4775.035)" fill="url(#linear-gradient)"/>
    <path id="Path_621" data-name="Path 621" d="M4168.331,4756.314h-32.588a5.547,5.547,0,0,1-5.547-5.547h0a5.547,5.547,0,0,1,5.547-5.547h32.588a5.547,5.547,0,0,1,5.547,5.547h0A5.547,5.547,0,0,1,4168.331,4756.314Z" fill="#8ba3f0"/>
    <path id="Path_622" data-name="Path 622" d="M4188.438,4847.144h-72.8a2.774,2.774,0,0,1-2.774-2.773h0a2.774,2.774,0,0,1,2.774-2.774h72.8a2.774,2.774,0,0,1,2.774,2.774h0A2.774,2.774,0,0,1,4188.438,4847.144Z" fill="#c7d6ff"/>
    <path id="Path_623" data-name="Path 623" d="M4188.785,4858.064h-72.8a2.772,2.772,0,0,1-2.773-2.773h0a2.772,2.772,0,0,1,2.773-2.773h72.8a2.772,2.772,0,0,1,2.773,2.773h0A2.772,2.772,0,0,1,4188.785,4858.064Z" fill="#e6eeff"/>
    <path id="Path_624" data-name="Path 624" d="M4166.6,4868.985h-50.615a2.773,2.773,0,0,1-2.773-2.774h0a2.773,2.773,0,0,1,2.773-2.773H4166.6a2.774,2.774,0,0,1,2.774,2.773h0A2.774,2.774,0,0,1,4166.6,4868.985Z" fill="#ebf1ff"/>
    <path id="Path_625" data-name="Path 625" d="M4054.013,4868.985H4003.4a2.773,2.773,0,0,1-2.773-2.774h0a2.773,2.773,0,0,1,2.773-2.773h50.615a2.774,2.774,0,0,1,2.774,2.773h0A2.774,2.774,0,0,1,4054.013,4868.985Z" fill="#ebf1ff"/>
    <path id="Path_626" data-name="Path 626" d="M4076.114,4847.144h-72.8a2.774,2.774,0,0,1-2.773-2.773h0a2.774,2.774,0,0,1,2.773-2.774h72.8a2.773,2.773,0,0,1,2.773,2.774h0A2.773,2.773,0,0,1,4076.114,4847.144Z" fill="#c7d6ff"/>
    <path id="Path_627" data-name="Path 627" d="M4076.071,4858.064h-72.8a2.773,2.773,0,0,1-2.774-2.773h0a2.773,2.773,0,0,1,2.774-2.773h72.8a2.773,2.773,0,0,1,2.773,2.773h0A2.773,2.773,0,0,1,4076.071,4858.064Z" fill="#e6eeff"/>
    <path id="Path_628" data-name="Path 628" d="M4300.416,4847.144h-72.8a2.773,2.773,0,0,1-2.773-2.773h0a2.773,2.773,0,0,1,2.773-2.774h72.8a2.774,2.774,0,0,1,2.773,2.774h0A2.774,2.774,0,0,1,4300.416,4847.144Z" fill="#c7d6ff"/>
    <path id="Path_629" data-name="Path 629" d="M4300.762,4857.978h-72.8a2.774,2.774,0,0,1-2.774-2.774h0a2.774,2.774,0,0,1,2.774-2.773h72.8a2.774,2.774,0,0,1,2.774,2.773h0A2.774,2.774,0,0,1,4300.762,4857.978Z" fill="#e6eeff"/>
    <path id="Path_630" data-name="Path 630" d="M4300.762,4868.811h-37.788a2.773,2.773,0,0,1-2.773-2.773h0a2.773,2.773,0,0,1,2.773-2.773h37.788a2.773,2.773,0,0,1,2.774,2.773h0A2.773,2.773,0,0,1,4300.762,4868.811Z" fill="#ebf1ff"/>
    <path id="Path_631" data-name="Path 631" d="M4236.973,4724.188H4067.1a3.466,3.466,0,0,1-3.466-3.467h0a3.467,3.467,0,0,1,3.466-3.466h169.873a3.467,3.467,0,0,1,3.467,3.466h0A3.466,3.466,0,0,1,4236.973,4724.188Z" fill="#c7d6ff"/>
    <path id="Path_632" data-name="Path 632" d="M4193.985,4739.211H4067.1a3.466,3.466,0,0,1-3.466-3.467h0a3.467,3.467,0,0,1,3.466-3.467h126.885a3.468,3.468,0,0,1,3.467,3.467h0A3.467,3.467,0,0,1,4193.985,4739.211Z" fill="#e6eeff"/>
    <path id="Path_633" data-name="Path 633" d="M3987.048,4866.075a43,43,0,0,1-.6,9.117l-1.012-1.211-3.135-3.759s.226-2.485.226-3.162-.226-2.485-.226-2.485-.976,3.84-1.274,3.84-5.2-3.388-6.181-3.84-5.792.144-7.3-2.259-13.174-19.961-13.174-19.961-.669-5.882-1.247-10.581c-.353-2.864-.669-5.286-.786-5.684-.308-1.048-3-13.87-1.211-17.015a9.062,9.062,0,0,1,7.78-4.129,9.766,9.766,0,0,1,1.256.063c4.391.506,11.6,3.163,16.572,19.428,4.418,14.448,6.686,20.575,8.141,23.4.19.361.353.66.515.922,1.383,2.259,5.106,5.295,5.341,5.485a14.111,14.111,0,0,1-6.4-4.211c-2.331-3.009-3.614-4.889-3.614-4.889a21.8,21.8,0,0,0,1.662,7.076C3984.193,4855.765,3986.822,4861.186,3987.048,4866.075Z" fill="#440c01"/>
    <path id="Path_634" data-name="Path 634" d="M3967.774,4830.256c.118.506-6.271,1.807-6.271,1.807s-.09-1.184-.262-2.611c-.226-1.88-.587-4.2-1.03-4.844,0,0,.027-.153.09-.388.253-1.021,1.076-3.606,2.675-2.548a2.941,2.941,0,0,1,.56.488c.163.171.325.37.5.587A35.316,35.316,0,0,1,3967.774,4830.256Z" fill="#ffcab0"/>
    <path id="Path_635" data-name="Path 635" d="M3963.536,4822.16a25.437,25.437,0,0,0-3.235,2.06c-.063.235-.09.388-.09.388.443.642.8,2.964,1.03,4.844a22.749,22.749,0,0,0,2.792-6.705Z" fill="#e6e6e6" style="mix-blend-mode: multiply;isolation: isolate"/>
    <path id="Path_636" data-name="Path 636" d="M3949.928,4817.81c0,5.347,2.421,11.677,5.534,12.444,3.9.96,9.752-8.152,9.074-10.561s-5.8-9.036-7.906-9.337-5.2,2.861-5.648,4.066S3949.928,4817.81,3949.928,4817.81Z" fill="#ffcab0"/>
    <path id="Path_637" data-name="Path 637" d="M3957.5,4858.322a29.856,29.856,0,0,0-8.359-7.342c-4.687-2.485-5.7-3.784-6.212-4.97a34.676,34.676,0,0,0-3.163-5.76c-.734-.734-5.647-6.043-5.873-6.043s2.315,9.488,4.349,12.312,16.547,18.411,18.862,17.394S3957.5,4858.322,3957.5,4858.322Z" fill="#ffcab0"/>
    <path id="Path_638" data-name="Path 638" d="M3941.2,4841.728c0-1.215-.31-2.542-.847-2.683s-1.355-.2-1.524-.028S3941.2,4841.728,3941.2,4841.728Z" fill="#ffcab0"/>
    <path id="Path_639" data-name="Path 639" d="M3982.3,4870.222s.226-2.485.226-3.162-.226-2.485-.226-2.485-.976,3.84-1.274,3.84-5.2-3.388-6.181-3.84-5.792.144-7.3-2.259-13.174-19.961-13.174-19.961-.669-5.882-1.247-10.581c4.039,7.771,11.2,19.446,18.036,23.539,7.039,4.211,13.174,7.445,14.276,18.668Z" fill="#ccc" style="mix-blend-mode: multiply;isolation: isolate"/>
    <path id="Path_640" data-name="Path 640" d="M3990.138,4892.731c-4.59-.822-7.229,1.961-9.488.759s-3.912-1.581-4.671-6.1-1.726-18.976-1.274-24.849c.28-3.687-.588-8.82-1.22-12.678-.045-.244-.082-.488-.127-.723a23.6,23.6,0,0,1-.461-4.22,30.646,30.646,0,0,1,2.223-6.325.009.009,0,0,1,.009-.009c.181-.415.344-.777.479-1.084.226-.488.371-.795.371-.795.063.108.135.226.2.343.09.154.189.325.28.488s.162.3.244.461c.009.009.009.009.009.018.081.154.162.307.244.47a37.564,37.564,0,0,1,4.147,19.68c-.677,9.488-3.316,29.747-2.1,30.949s4.662-1.428,6.47-1.2,9.488,4.292,10.247,4.518S3994.729,4893.562,3990.138,4892.731Z" fill="#ffcab0"/>
    <path id="Path_641" data-name="Path 641" d="M3963.762,4901.243a27.7,27.7,0,0,0-5.684-2.891,12.06,12.06,0,0,0-3.18-.949s-5.4-4.012-8.7-6.886c-1.545-1.346-2.629-2.448-2.485-2.774.452-1.012.9-.388,4.13.515s10.048,6.091,11.349,6.38,4.292-.118,5.2.28S3964.331,4901.921,3963.762,4901.243Z" fill="#ffcab0"/>
    <path id="Path_642" data-name="Path 642" d="M3972.816,4908.119a16.528,16.528,0,0,1-1.229,4.392c-.488,1.012-.967,1.437-1.22,1.12-.488-.614-3.542-7.517-4.626-8.927s-3.949-3.56-3.687-3.886c.244-.307,2.214-2.25,1.952-3.777s-2.105-3.226-1.988-3.56,8.62,1.31,9.443,3.235c.009.027.027.054.036.081A26.618,26.618,0,0,1,3972.816,4908.119Z" fill="#8268e6"/>
    <path id="Path_643" data-name="Path 643" d="M3953.091,4870.671c-14.91-.151-38.479,4.368-39.985,8.961s48.644,9.036,49.4,8.358S3953.091,4870.671,3953.091,4870.671Z" fill="#907ae0"/>
    <path id="Path_644" data-name="Path 644" d="M3958.078,4898.352a12.06,12.06,0,0,0-3.18-.949s-5.4-4.012-8.7-6.886c.316-1.455.678-2.53.678-2.53C3948.934,4888.529,3956.307,4893.038,3958.078,4898.352Z" fill="#e6e6e6" style="mix-blend-mode: multiply;isolation: isolate"/>
    <path id="Path_645" data-name="Path 645" d="M3912.8,4882.719c.226,3.916,1.807,8.057,11.144,10.241s33.509,5.949,33.509,5.12-8.128-9.433-10.843-10.542c-9.639-3.934-14.251-5.892-20.859-6.1C3915.518,4881.118,3912.8,4882.719,3912.8,4882.719Z" fill="#a58cff"/>
    <path id="Path_646" data-name="Path 646" d="M3918.112,4880.361v.027c-.154.75-5.268,4.662-6.027,6.244s-.9,2.747-1.807,3.768-7.148-2.106-5.566-2.747a15.535,15.535,0,0,0,3.876-3.145c.154-.153.3-.307.443-.461.4-.424.768-.831,1.075-1.183.1-.118.208-.235.325-.371a40.048,40.048,0,0,1,3.642-2.476,8.282,8.282,0,0,1,1.708-.8c1.174-.334,1.906-.018,2.2.461A.929.929,0,0,1,3918.112,4880.361Z" fill="#ffcab0"/>
    <path id="Path_647" data-name="Path 647" d="M3912.916,4888.069c.19.28-2.864,6.46-4.247,7.057a.377.377,0,0,1-.189.054c-1.265.036-9.073-.452-12.633-3.235a15.955,15.955,0,0,1-2.024-1.88c-1.879-2.1-2.34-3.957-2.1-4.481.316-.678,4.834,1.048,7.961,1.31s5.783-1.428,5.819-1.238c.117.533-.353,2.557,1.708,3.163S3912.718,4887.761,3912.916,4888.069Z" fill="#8268e6"/>
    <path id="Path_648" data-name="Path 648" d="M3965.816,4819.128c-5.534,5.685-11.295-5.8-11.295-5.8s-1.355,7.153-4.631,5.986.471-10.636,2.41-11.558c2.425-1.154,7.756.753,8.622,2.033S3965.816,4819.128,3965.816,4819.128Z" fill="#440c01"/>
    <path id="Path_649" data-name="Path 649" d="M3975.238,4846.331c-.823,1.139-1.428,2.069-1.88,2.81a23.6,23.6,0,0,1-.461-4.22,30.646,30.646,0,0,1,2.223-6.325.009.009,0,0,1,.009-.009c.181-.415.344-.777.479-1.084.244-.19.443-.344.57-.452.009-.009.018-.009.027-.018a1.947,1.947,0,0,0,.162-.118c.118.335.235.687.335,1.067V4838c.009.009.009.009.009.018A9.083,9.083,0,0,1,3975.238,4846.331Z" fill="#e6e6e6" style="mix-blend-mode: multiply;isolation: isolate"/>
    <path id="Path_650" data-name="Path 650" d="M3970.413,4866.075c2.331,8.358,1.825,16.057.244,19.3-.254.515-.85.316-1.663-.38-4.3-3.659-14.756-21.225-13.491-21.478,1.5-.3.75-11.07.678-11.675s-3.163-4.211-3.09-7.373,6.415-12.868,8.584-13.862c.452-.208,5.078-2.159,8.756-1.2s4.8,3.614,6.225,7.834-2.855,9.488-4.888,11.747a7.792,7.792,0,0,0-1.355,2.331C3969.166,4854.472,3968.632,4859.731,3970.413,4866.075Z" fill="#f9acff"/>
    <path id="Path_651" data-name="Path 651" d="M3918.808,4879.611a7.48,7.48,0,0,1-.7.75,14.844,14.844,0,0,1-9.081,3.686c.4-.424.768-.831,1.075-1.183.1-.118.208-.235.325-.371a40.048,40.048,0,0,1,3.642-2.476c1.229-.117,2.909-.262,3.9-.343C3918.482,4879.638,3918.808,4879.611,3918.808,4879.611Z" fill="#e6e6e6" style="mix-blend-mode: multiply;isolation: isolate"/>
    <path id="Path_652" data-name="Path 652" d="M3970.657,4885.376c-.254.515-.85.316-1.663-.38-1.672-3.958-3.325-9.451-2.955-9.732.606-.451,3.163,2.106,3.922,0,.741-2.078-3.741-19.2.452-23.945-1.247,3.153-1.781,8.412,0,14.756C3972.744,4874.433,3972.238,4882.132,3970.657,4885.376Z" fill="#e6e6e6" style="mix-blend-mode: multiply;isolation: isolate"/>
    <path id="Path_653" data-name="Path 653" d="M3962.181,4890.571c-5.711-.5-12.678-4.382-19.03-15.532-.75-1.32-1.446-2.621-2.078-3.877a76.388,76.388,0,0,1-6.543-17.765,21.816,21.816,0,0,1-.795,8.765,25.618,25.618,0,0,1-3.027,6.344,42.267,42.267,0,0,1-6.686,7.816c-5.946,5.548-15.732,7.825-15.054,6.777a154.276,154.276,0,0,0,11.819-21.009c6.478-13.482,9.262-19.355,13.933-18.678s32.9,25.509,36.063,39.759C3971.506,4886.388,3969.355,4891.186,3962.181,4890.571Z" fill="#a58cff"/>
    <path id="Path_654" data-name="Path 654" d="M3943.1,4844.55h0a.489.489,0,0,1-.69-.059l-10.871-12.9a.489.489,0,0,1,.059-.689h0a.489.489,0,0,1,.689.058l10.872,12.9A.491.491,0,0,1,3943.1,4844.55Z" fill="#204069"/>
    <path id="Path_655" data-name="Path 655" d="M3984.879,4847.84c-2.765-2.765-7.2-9.217-10.707-21.217-4.582-15.7-10.057-19.418-15.262-21.677a9.766,9.766,0,0,1,1.256.063c4.391.506,11.6,3.163,16.572,19.428C3981.156,4838.885,3983.424,4845.012,3984.879,4847.84Z" fill="#d9d9d9" style="mix-blend-mode: soft-light;isolation: isolate"/>
    <path id="Path_656" data-name="Path 656" d="M3972.816,4908.119a16.528,16.528,0,0,1-1.229,4.392,21.056,21.056,0,0,1-1.256-7.97,21.64,21.64,0,0,1,1.166-7.744A26.618,26.618,0,0,1,3972.816,4908.119Z" fill="#e6e6e6" style="mix-blend-mode: multiply;isolation: isolate"/>
    <path id="Path_657" data-name="Path 657" d="M3908.669,4895.126a.377.377,0,0,1-.189.054c-1.265.036-9.073-.452-12.633-3.235a15.955,15.955,0,0,1-2.024-1.88,34.945,34.945,0,0,1,6.6,1.356A28.93,28.93,0,0,1,3908.669,4895.126Z" fill="#e6e6e6" style="mix-blend-mode: multiply;isolation: isolate"/>
    <path id="Path_658" data-name="Path 658" d="M3934.53,4853.4a21.816,21.816,0,0,1-.795,8.765,25.618,25.618,0,0,1-3.027,6.344c1.88-5.079,3.124-16.088,3.35-17.554.25-1.62,6.509,15.575,7.015,20.21A76.388,76.388,0,0,1,3934.53,4853.4Z" fill="#e6e6e6" style="mix-blend-mode: multiply;isolation: isolate"/>
    <g id="Group_545" data-name="Group 545">
      <path id="Path_659" data-name="Path 659" d="M4320.777,4753.16c.4.691.713,1.137.713,1.137,6.222.58,13.135-3.835,11.8-8.964-.557-2.164-1.628-3.145-2.676-3.569a3.6,3.6,0,0,0-1.36-.312,4.153,4.153,0,0,0-1.472.178s-5.486,2.1-7.716,4.305a3.145,3.145,0,0,0-.87,1.2C4318.569,4748.9,4319.884,4751.621,4320.777,4753.16Z" fill="#440c01"/>
      <path id="Path_660" data-name="Path 660" d="M4320.777,4753.16c.4.691.713,1.137.713,1.137,6.222.58,13.135-3.835,11.8-8.964-.557-2.164-1.628-3.145-2.676-3.569.535,1.249,1.978,4.527-.749,6.694-3.624,2.881-6.19,2-7.015.93A23.393,23.393,0,0,0,4320.777,4753.16Z"/>
      <path id="Path_661" data-name="Path 661" d="M4315.781,4765.314c.334.58,7.761-.758,8.028-1.717.2-.736-.736-7.738-1.761-10.95-.29-.914-.58-1.539-.87-1.6a.83.83,0,0,0-.4.022c-1.495.513-4.528,4.839-4.528,4.839a6.95,6.95,0,0,1,.179,1.517,23.894,23.894,0,0,1-.2,3.211C4315.982,4762.861,4315.6,4765,4315.781,4765.314Z" fill="#ffe2d7"/>
      <path id="Path_662" data-name="Path 662" d="M4316.428,4757.42a23.894,23.894,0,0,1-.2,3.211,11.932,11.932,0,0,1,2.386-3.033c1.717-1.561,2.03-4.081,2.23-4.527.156-.335.692-.112,1.205-.424a1.268,1.268,0,0,0,.513-.557s.579-1.294-.357-2.008c-.4-.312-.8-.2-1.316.224-.691.513-1.628,1.538-3.145,2.7-2.653,2.052-2.564,1.784-3.768,5.218a.2.2,0,0,0-.023.112A5.829,5.829,0,0,0,4316.428,4757.42Z" fill="#e6e6e6" style="mix-blend-mode: multiply;isolation: isolate"/>
      <path id="Path_663" data-name="Path 663" d="M4311.945,4757.821a2.624,2.624,0,0,0,2.007.513,5.829,5.829,0,0,0,2.476-.914,9.784,9.784,0,0,0,4.326-6.178.478.478,0,0,0,.023-.178c.044-.245.089-.513.111-.758.557-4.594-1.115-9.233-1.606-9.478-.513-.246-7.671-2.721-7.671-2.721a.408.408,0,0,0-.045.156c-.357.959-.647,1.94-.892,2.877C4308.622,4748.99,4309.76,4756.081,4311.945,4757.821Z" fill="#ffe2d7"/>
      <path id="Path_664" data-name="Path 664" d="M4320.7,4747.193c1.2-1.409,3.118-.683,3.032.854s-.939,3.8-2.477,3.93-2.947-.9-2.434-1.837S4320.7,4747.193,4320.7,4747.193Z" fill="#ffe2d7"/>
      <path id="Path_665" data-name="Path 665" d="M4310.674,4741.14c1.022-.859,6.356,2.141,8.742,3.813,0,0-5.575-5.932-7.85-6.69C4311.209,4739.222,4310.919,4740.2,4310.674,4741.14Z" fill="#e6e6e6" style="mix-blend-mode: multiply;isolation: isolate"/>
      <path id="Path_666" data-name="Path 666" d="M4311.254,4739.757c2.832,1.494,5.084,2.431,6.98,4.282.781.781,1.405,1.4,1.829,1.9.6.669.869,1.025.869,1.025a53.137,53.137,0,0,1,3.792-3.813c.936-.736,4.482-1.539,4.482-1.539a.646.646,0,0,0,.045-.156c.379-1.026,2.319-7.2-2.431-9.255-.022-.022-.067-.022-.089-.044-5.174-2.119-8.073.914-8.073.914s-3.635-6.757-8.118-4.616a4.033,4.033,0,0,0-1.9,1.806C4307.017,4733.357,4309,4738.553,4311.254,4739.757Z" fill="#440c01"/>
      <path id="Path_667" data-name="Path 667" d="M4273.632,4784.025c0,.579,4.617,3.01,8.9,3.01,4.014,0,7.181-2.163,8.988-1.717.624.156,1.36.379,2.051.6a13.276,13.276,0,0,0,2.364.58c.134,0,.223-.022.245-.089a6.149,6.149,0,0,0-.958-2.23.463.463,0,0,0-.09-.179,4.888,4.888,0,0,1-.245-.468.115.115,0,0,0-.044-.089c-.246-.379-.424-.691-.514-.848a1.1,1.1,0,0,1-.066-.111C4291.584,4781.215,4273.632,4783.445,4273.632,4784.025Z" fill="#ffe2d7"/>
      <path id="Path_668" data-name="Path 668" d="M4293.569,4785.92a13.276,13.276,0,0,0,2.364.58v-.089a6.14,6.14,0,0,0-.713-2.23.463.463,0,0,0-.09-.179,4.454,4.454,0,0,0-.245-.468.115.115,0,0,0-.044-.089c-.268-.513-.491-.87-.491-.87a.022.022,0,0,0-.023.022C4293.748,4783,4294.305,4785.34,4293.569,4785.92Z" fill="#e6e6e6" style="mix-blend-mode: multiply;isolation: isolate"/>
      <path id="Path_669" data-name="Path 669" d="M4307.59,4786.016c-4.1-2.135-12.9-4.142-13.325-3.523s.085,3.1.512,3.865,11.446,7,12.13,7.09S4307.59,4786.016,4307.59,4786.016Z" fill="#8f959c"/>
      <g id="Group_544" data-name="Group 544">
        <g id="Group_543" data-name="Group 543">
          <path id="Path_670" data-name="Path 670" d="M4271.2,4789.262h25.712a.6.6,0,0,0,.6-.6h0a.6.6,0,0,0-.6-.6H4271.2a.6.6,0,0,0-.6.6h0A.6.6,0,0,0,4271.2,4789.262Z" fill="#204069"/>
          <path id="Path_671" data-name="Path 671" d="M4255.655,4768.188l15.069,20.833a.6.6,0,0,0,.835.134h0a.6.6,0,0,0,.134-.835l-15.069-20.833a.6.6,0,0,0-.835-.134h0A.6.6,0,0,0,4255.655,4768.188Z" fill="#204069"/>
        </g>
      </g>
      <path id="Path_672" data-name="Path 672" d="M4264.578,4786.009a8.867,8.867,0,0,0,5.174,6.356h.022a14.416,14.416,0,0,0,4.282,1.093,13.528,13.528,0,0,0,1.026-2.832,1.734,1.734,0,0,0,.067-.647,1.209,1.209,0,0,0-.669-.8l-.268-.134h-.022a7.505,7.505,0,0,0-2.9-.713c-.023.022-.023.022-.045,0-.022.022-.022.022-.045,0h-.022c-1.07-.045-4.193-4.527-6.133-7.226a.068.068,0,0,1-.022-.044,9.026,9.026,0,0,0-1.606-1.963C4262.906,4779.1,4264,4783.846,4264.578,4786.009Z" fill="#ffe2d7"/>
      <path id="Path_673" data-name="Path 673" d="M4320.4,4913.036c-.089.936,7.092,1.628,6.847-.09-.156-.959.513-6.355,1.07-11.641v-.022c.357-3.256.647-6.445.669-8.519,0-.513-.022-.981-.044-1.338,0,0-.536.58-1.316,1.427-.446.491-.959,1.071-1.517,1.673a28.866,28.866,0,0,0-3.9,5.107c-.536,1.271-1.138,6.534-1.5,10.1-.022.089-.044.134-.022.156v.023C4320.531,4911.519,4320.42,4912.746,4320.4,4913.036Z" fill="#ffe2d7"/>
      <path id="Path_674" data-name="Path 674" d="M4287.08,4900.213l.022.022c.312,1.873.558,3.278.58,3.657.089,1.294,7.181.513,6.423-1.784-.4-1.182-.647-6.735-.87-12.645-.112-2.72-.2-5.508-.335-7.983-.111-2.632-.245-4.906-.423-6.378,0,0-6.847,11.619-7.181,12.644C4285.05,4888.482,4286.321,4895.663,4287.08,4900.213Z" fill="#ffe2d7"/>
      <path id="Path_675" data-name="Path 675" d="M4299.323,4917.228c0,.29,1.249,1.026,2.966,1.874,3.077,1.494,7.694,3.322,9.589,3.568,2.543.334,12.645-1.026,15.9-2.387a2.056,2.056,0,0,0,.959-.624c.892-1.539-.758-6.556-1.4-7.627-.2-.312-6.044.446-6.668.245-.558-.156-5.887,1.74-9.9,2.677-.736.178-1.427.312-2.029.4-3.524.513-8.341.937-9.255,1.628C4299.367,4917.072,4299.323,4917.139,4299.323,4917.228Z" fill="#a65b63"/>
      <path id="Path_676" data-name="Path 676" d="M4269.016,4911.764c0,.223.825.513,2.074.826h.022c3.3.825,9.5,1.739,11.485,1.36,2.319-.424,10.682-4.482,13.492-6.356.558-.379.892-.669.937-.825.312-1.026-1.963-5.419-3.145-5.887-.312-.134-5.642,1.806-6.6,2.252-.847.4-6.311,4.616-8.652,5.865a6.108,6.108,0,0,1-.692.335c-1.449.446-7.047,1.36-8.541,2.1C4269.15,4911.541,4269.016,4911.653,4269.016,4911.764Z" fill="#a65b63"/>
      <path id="Path_677" data-name="Path 677" d="M4320.665,4909.914h.022c2.275-.491,6.757-10.237,7.226-10.237.312,0,.334.982.4,1.606.357-3.256.647-6.445.669-8.519-.29-.178-.713-.156-1.36.089a.327.327,0,0,0-.134.045,3.761,3.761,0,0,0-1.383,1.628c-2.274,3.969-5,13.76-5.4,15.209-.022.089-.044.134-.022.156Z" fill="#e6e6e6" style="mix-blend-mode: multiply;isolation: isolate"/>
      <path id="Path_678" data-name="Path 678" d="M4287.08,4900.213v.022h.022c1.182.2,4.527-7.025,5.218-9.7.313-1.182.625-1.293.915-1.071-.112-2.72-.2-5.508-.335-7.983C4290.938,4882.305,4287.191,4899.677,4287.08,4900.213Z" fill="#e6e6e6" style="mix-blend-mode: multiply;isolation: isolate"/>
      <path id="Path_679" data-name="Path 679" d="M4309.648,4823.943a66.359,66.359,0,0,0,1.517,8.831c1.494,7.115,3.746,16.838,5.129,23.8,1.9,9.411,3.055,41.078,3.657,50.89v.023a16.764,16.764,0,0,0,.29,2.9c.513.691,1.695-1.026,7.337-12.288,5.642-11.284,2.386-28.7,1.361-33.831s-.513-36.06-1.874-44.6c0,0-9.9-10.593-13.67-9.9C4309.648,4810.451,4309.648,4820.531,4309.648,4823.943Z" fill="#de818b"/>
      <path id="Path_680" data-name="Path 680" d="M4311.165,4832.774c1.494,7.115,3.746,16.838,5.129,23.8,1.9,9.411,3.055,41.078,3.657,50.89,1.717-6.155.692-23.126,1.494-34.588.937-13.091-2.676-17.93-4.638-27.877-1.963-9.923.379-12.354,3.791-19.022C4320.13,4826.218,4314.376,4829.429,4311.165,4832.774Z" fill="#de5969"/>
      <path id="Path_681" data-name="Path 681" d="M4286.968,4900.726c.758.133,3.189-5.8,5.509-13.872,2.3-8.073,2.051-19.089,1.65-26.4a55.163,55.163,0,0,0-2.3-13.068s37.978-17.462,35.057-35.749c0,0-16.993-5.241-18.532-4.081a13.768,13.768,0,0,0-1.2,1.249c-1.628,1.851-4.706,5.553-8.185,10.08-7.248,9.389-16.3,22.3-18.153,29.415C4277.736,4860.071,4286.188,4900.614,4286.968,4900.726Z" fill="#f3a6b0"/>
      <path id="Path_682" data-name="Path 682" d="M4298.966,4818.881c9.3-7.493,18.755.134,25.445,3.345,0,0-11.975-11.8-17.26-13.425C4305.523,4810.652,4302.445,4814.354,4298.966,4818.881Z" fill="#ed7282"/>
      <path id="Path_683" data-name="Path 683" d="M4306.058,4805.88c-1.026,2.943-3.078,5.887-1.539,6.266,1.539.4,10.5,2.565,16.146,7.181a21.716,21.716,0,0,1,5.531,6.6,17.161,17.161,0,0,0,1.9,3.39c1.271,1.16-.647-12.422-1.16-25.758-.468-11.975,2.1-14.741,2.989-24.04.089-1.026.178-2.141.223-3.368.513-12.176-4.683-13.893-5.843-13.96-9.3-.535-16.079,4.728-19.536,12.935-1.828,4.348-1.07,11.908-.111,18.487.624,4.148,1.316,7.9,1.494,10.214A6.1,6.1,0,0,1,4306.058,4805.88Z" fill="#a4aab1"/>
      <path id="Path_684" data-name="Path 684" d="M4304.653,4793.614c.624,4.148,1.316,7.9,1.494,10.214,2.119-3.814,5.129-3.836,12.332-11.619,9.545-10.325,8.631-18.688,6-21.743C4324.478,4770.466,4311.878,4785.519,4304.653,4793.614Z" fill="#7389a6"/>
      <path id="Path_685" data-name="Path 685" d="M4269.774,4792.365a14.416,14.416,0,0,0,4.282,1.093,13.528,13.528,0,0,0,1.026-2.832c-.246-.647-.491-1.182-.6-1.45a1.869,1.869,0,0,1-.09-.2c-.066.023-.133.023-.178.067h-.022c-1,.424-.956,3.008-1.637,3.577C4272.21,4792.906,4271.068,4792.633,4269.774,4792.365Z" fill="#e6e6e6" style="mix-blend-mode: multiply;isolation: isolate"/>
      <path id="Path_686" data-name="Path 686" d="M4322.752,4768.335c-10.882-7.524-17.554,22.123-17.554,22.123s-2.306-1.238-9.866-1.11-21.013-.9-21.269-.385-1.794,3.2,0,4.485,27.291,7.816,32.673,6.15S4333.13,4775.51,4322.752,4768.335Z" fill="#b7bdc4"/>
      <path id="Path_687" data-name="Path 687" d="M4265.046,4781.1c.357.937.887,2.171,1.491,3.687,1.022,2.569,2.724,3.606,4.642,3.539C4270.109,4788.284,4266.986,4783.8,4265.046,4781.1Z" fill="#e6e6e6" style="mix-blend-mode: multiply;isolation: isolate"/>
      <path id="Path_688" data-name="Path 688" d="M4263.931,4779.275c.067.089.268.334.558.691A2.1,2.1,0,0,0,4263.931,4779.275Z" fill="#e6e6e6" style="mix-blend-mode: multiply;isolation: isolate"/>
      <path id="Path_689" data-name="Path 689" d="M4323.869,4799.565c1.182,9.344,4,24.668,2.327,26.363a17.161,17.161,0,0,0,1.9,3.39c1.271,1.16-.647-12.422-1.16-25.758-.468-11.975,2.1-14.741,2.989-24.04C4328.136,4786.612,4322.843,4791.291,4323.869,4799.565Z" fill="#7389a6"/>
      <path id="Path_690" data-name="Path 690" d="M4302.289,4919.1c3.077,1.494,7.694,3.322,9.589,3.568,2.543.334,12.645-1.026,15.9-2.387-5.687-.49-14.206.67-16.28.067A49.141,49.141,0,0,0,4302.289,4919.1Z" fill="#ccc" style="mix-blend-mode: multiply;isolation: isolate"/>
      <path id="Path_691" data-name="Path 691" d="M4271.112,4912.59c3.3.825,9.5,1.739,11.485,1.36,2.319-.424,10.682-4.482,13.492-6.356-6.021-.267-11.552,4.773-14.272,4.773C4279.5,4912.367,4273.431,4912.144,4271.112,4912.59Z" fill="#ccc" style="mix-blend-mode: multiply;isolation: isolate"/>
      <path id="Path_692" data-name="Path 692" d="M4299.479,4916.983q.936.2,2.609.4c4.728.558,6.423-1,8.675-2.43-.736.178-1.427.312-2.029.4C4305.21,4915.868,4300.393,4916.292,4299.479,4916.983Z" fill="#fff" opacity="0.4"/>
      <path id="Path_693" data-name="Path 693" d="M4269.4,4911.43a13.1,13.1,0,0,0,1.873.111c4.126,0,5.776-1.025,7.36-2.542a6.108,6.108,0,0,1-.692.335C4276.487,4909.78,4270.889,4910.694,4269.4,4911.43Z" fill="#fff" opacity="0.4"/>
      <path id="Path_694" data-name="Path 694" d="M4308.645,4730.257c2.854-.58,6.69,5.129,9.745,4.3,3.256-.87,3.212-2.453,7.293-2.364a8.186,8.186,0,0,0,1.048-.044c-5.174-2.119-8.073.914-8.073.914s-3.635-6.757-8.118-4.616A4.033,4.033,0,0,0,4308.645,4730.257Z" fill="#ff4747" style="mix-blend-mode: soft-light;isolation: isolate"/>
    </g>
    <g id="Group_547" data-name="Group 547">
      <g id="Group_546" data-name="Group 546">
        <rect id="Rectangle_581" data-name="Rectangle 581" width="77.82" height="52.427" rx="1.32" transform="translate(4153.077 4684.184)" fill="#fee8f2"/>
        <path id="Path_695" data-name="Path 695" d="M4202.15,4736.546v.064h-48.141a.932.932,0,0,1-.932-.932v-7.211a1,1,0,0,1,.225-.621l11.282-12.965,7.394-8.486a.935.935,0,0,1,1.382-.032l4.993,5.229,3.536,3.718.6.621.685.718,2.475,2.6.59.621,1.06,1.115Z" fill="#e388b1"/>
        <path id="Path_696" data-name="Path 696" d="M4230.9,4722.467v13.158a.982.982,0,0,1-.985.985h-55.749a.989.989,0,0,1-.782-1.6l8.786-11.293.193-.247,3.289-4.221.2-.257,5.122-6.568,14.357-18.44a1,1,0,0,1,1.543-.033l7.329,8.583,16.458,19.286A1.009,1.009,0,0,1,4230.9,4722.467Z" fill="#eda2c4"/>
        <circle id="Ellipse_305" data-name="Ellipse 305" cx="4.152" cy="4.152" r="4.152" transform="translate(4180.217 4691.302)" fill="#fff"/>
        <path id="Path_697" data-name="Path 697" d="M4203.2,4736.61a.673.673,0,0,1-.214.033l-.836.021v-.054h-35.024l13.723-18.472,1.64-2.207,4.232-5.689a.888.888,0,0,1,1.268-.168l2.986,2.354.793.621a.833.833,0,0,1,.235.279l.579,1.082,11.164,20.925A.874.874,0,0,1,4203.2,4736.61Z" fill="#eda2c4"/>
        <path id="Path_698" data-name="Path 698" d="M4212.811,4708.163c.086,1.875-5.272-5.175-6.525-5.893s-5.711,12.054-7.233,13.125-2.946-3.385-4.907-2.228a8.908,8.908,0,0,0-1.564,1.243,27.726,27.726,0,0,0-4.683,5.9,1.4,1.4,0,0,1-.6.676c-.4.171-.717-.354-1.06-1.115-.129-.268-.247-.568-.386-.878a8.665,8.665,0,0,0-.9-1.725,1.527,1.527,0,0,0-1.779-.622,6.454,6.454,0,0,0-2.325,1.489l1.64-2.207,4.232-5.689a.885.885,0,0,1,1.264-.172l2.99,2.358,14.357-18.44a1,1,0,0,1,1.543-.033l7.329,8.583a17.012,17.012,0,0,0-2.561-.439C4209.768,4702,4212.715,4706.288,4212.811,4708.163Z" fill="#fff"/>
        <path id="Path_699" data-name="Path 699" d="M4178.353,4711.592c-1.361-.343-3.1-1.018-3.675-1.018-.975,0-.964,4.529-2.571,5.333s-1.076-2.629-2.244-3.615c-.814-.686-2.782.757-5.279,2.589l7.394-8.486a.935.935,0,0,1,1.382-.032Z" fill="#fff"/>
      </g>
      <path id="Path_700" data-name="Path 700" d="M4168.008,4749c-1.874,5.321-5.322,9.946-5.242,10.244.06.28,5.1-1.2,10.723-1.614,0,0-1.056,6.019-1.415,6.3a.62.62,0,0,1-.239.06c-.6.1-2.213.219-4.126.3-3.787.14-8.71.14-9.148-.419-.7-.916-1.874-2.052.837-8.909,2.67-6.717,8.909-14.291,11.42-18.775,2.532-4.485,7.714-8.969,8.132-6.458.419,2.531-3.787,6.179-3.926,6.6s2.252.279,2.252.638c0,.339-4.345,1.316-5.341,2.173C4170.958,4739.973,4169.9,4743.68,4168.008,4749Z" fill="#ffe2d7"/>
      <path id="Path_701" data-name="Path 701" d="M4226.247,4763.87c-.438.579-5.72.559-9.547.4-1.734-.08-3.169-.179-3.727-.279a.614.614,0,0,1-.239-.06c-.359-.279-1.4-6.3-1.4-6.3,5.6.419,10.643,1.894,10.723,1.614,0-.378-3.389-4.963-5.262-10.244-1.894-5.322-2.95-9.029-3.927-9.866-.976-.857-5.321-1.834-5.321-2.173,0-.359,2.372-.219,2.232-.638s-4.345-4.066-3.927-6.6c.419-2.511,5.621,1.973,8.132,6.458,2.532,4.484,8.77,12.058,11.421,18.775C4228.121,4761.818,4226.965,4762.954,4226.247,4763.87Z" fill="#ffe2d7"/>
      <path id="Path_702" data-name="Path 702" d="M4188.158,4874.19c-.019.419-.039,1.076-.1,1.814,0,.08-.02.159-.02.259a23.216,23.216,0,0,1-.7,4.923c-.358.518-3.687.578-3.866-.638a26.432,26.432,0,0,1-.06-3.129c0-.777.02-1.575.06-2.312a15.451,15.451,0,0,1,.219-2.432C4183.933,4872.2,4188.158,4874.19,4188.158,4874.19Z" fill="#ffe2d7"/>
      <path id="Path_703" data-name="Path 703" d="M4213.411,4882.023s-3.727.16-4.026-.159c-.279-.3-.079-4.285-.02-5.561a.916.916,0,0,0,.02-.219.444.444,0,0,1,.22-.359c.02-.02.059-.02.079-.04a1.016,1.016,0,0,1,.359-.179l.12-.06c1.1-.339,2.989-.279,3.248.279a7.275,7.275,0,0,1,.18,1.774A27.374,27.374,0,0,1,4213.411,4882.023Z" fill="#ffe2d7"/>
      <path id="Path_704" data-name="Path 704" d="M4187.64,4886.886c-.717.539-4.345.558-6.338.339-.02.02-.02,0-.02,0-.777-.1-1.3-.239-1.315-.4-.1-.578,2.471-6.578,3.308-6.717.838-.16,4.565-.219,4.624,0a16.751,16.751,0,0,1,.3,2.77C4188.3,4884.574,4188.218,4886.468,4187.64,4886.886Z" fill="#272a42"/>
      <path id="Path_705" data-name="Path 705" d="M4214.029,4887.165a5.94,5.94,0,0,1-1.514.22c-1.854.159-4.764.2-4.943-.16-.339-.637.059-3.368.618-5.321a3.964,3.964,0,0,1,.9-2.033,21.368,21.368,0,0,1,4.664,0C4215.006,4880.668,4214.547,4886.747,4214.029,4887.165Z" fill="#272a42"/>
      <path id="Path_706" data-name="Path 706" d="M4188.378,4876.084a.546.546,0,0,1-.339.179c-.9.319-4.2.113-4.624,1.156,0-.777.02-1.575.06-2.312a37.613,37.613,0,0,1,4.584.9A2.962,2.962,0,0,1,4188.378,4876.084Z" fill="#e6e6e6" style="mix-blend-mode: multiply;isolation: isolate"/>
      <path id="Path_707" data-name="Path 707" d="M4213.591,4877.5c-.136-1.185-3.209-.877-4.226-1.2a2.257,2.257,0,0,1-.418-.179,5.188,5.188,0,0,1,.658-.4c.02-.02.059-.02.079-.04a2.918,2.918,0,0,1,.359-.179l.12-.06c1.1-.339,2.989-.279,3.248.279A7.275,7.275,0,0,1,4213.591,4877.5Z" fill="#e6e6e6" style="mix-blend-mode: multiply;isolation: isolate"/>
      <path id="Path_708" data-name="Path 708" d="M4213.551,4875.725a.07.07,0,0,1-.04.02,12.23,12.23,0,0,1-4.744.438c-.378-.2-4.424-34.142-4.424-34.142-.518-6.3-7.076-32.887-7.235-33.724v-.02c-.12-.637-3.488,12.816-4.106,17.66-.638,4.823.1,9.128.2,15.127.12,6-4.724,34.581-4.823,35s-4.744,0-5.362,0c-.638,0,.1-22.9.419-29.957.279-6.239-1.1-27.166.937-42.454.259-1.973.578-3.846.956-5.581,0,0,3.169-.079,7.076.08,5.541.239,12.6,1.017,14.251,3.289,2.85,3.886,4.106,16.284,4.106,24.695s2.83,11.56,3.786,17.978C4215.484,4850.552,4214.229,4875.246,4213.551,4875.725Z" fill="#474b57"/>
      <path id="Path_709" data-name="Path 709" d="M4216.7,4764.269c-1.734-.08-3.169-.179-3.727-.279.777-2.412,2.252-5.8,2.252-5.8C4215.943,4759.486,4214.649,4763.754,4216.7,4764.269Z" fill="#e6e6e6" style="mix-blend-mode: multiply;isolation: isolate"/>
      <path id="Path_710" data-name="Path 710" d="M4168.128,4764.269c2.312-.937,2.252-5.521,3.169-6.079,0,0,.319,3.707.458,5.82Z" fill="#e6e6e6" style="mix-blend-mode: multiply;isolation: isolate"/>
      <path id="Path_711" data-name="Path 711" d="M4201.393,4802.039c-4.973,1.453-15.146-2.533-17.021,1.634.259-1.973.578-3.846.956-5.581,0,0,3.169-.079,7.076.08C4196.47,4799.886,4201.393,4802.039,4201.393,4802.039Z" fill="#222f4d"/>
      <path id="Path_712" data-name="Path 712" d="M4202.848,4768.714c-1.475,4.385-2.751,12.178-2.252,14.55.7,3.308,7.434,17.32,6.6,19.213-.259.6-2.551.558-5.561.18-6.4-.758-16.1-2.99-16.523-3.468-.618-.718,2.113-13.673,2.87-17.879a9.149,9.149,0,0,0-.1-3.089,46.9,46.9,0,0,0-3.648-10.743,18.2,18.2,0,0,0-1.116-2.093.277.277,0,0,1-.04-.06c-.817-1.1-8.271-.757-11.46-.857-.877-.019-1.416-.059-1.435-.179-.06-.558.717-6.318,1.195-6.657.5-.359,11.281-2.033,21.447-2.113,10.164-.059,21.764,1.794,22.362,2.312.558.5-.139,5.76-.358,6.378-.22.638-8.272.977-10.225,1.475-.538.14-1.156,1.316-1.734,2.99C4202.868,4768.694,4202.848,4768.694,4202.848,4768.714Z" fill="#f19489"/>
      <path id="Path_713" data-name="Path 713" d="M4198.383,4749.8a15.389,15.389,0,0,0,2.153,4.385,11.064,11.064,0,0,0,3.508,2.95,6.643,6.643,0,0,1-1.455,2.292,13.871,13.871,0,0,1-5.641,3.448c-6.019,2.113-8.53.777-8.53.777s-1.276-.638-2.89-7.155c-1.1-4.485-2.253-14.072.438-19.433a6.576,6.576,0,0,1,3.249-3.309h.02a6.35,6.35,0,0,1,3.029-.518c5.88.279,8.132,14.092,10.723,16.683a9.565,9.565,0,0,0,3.369,2.252h.02a5.389,5.389,0,0,0,1.654.418s-3.089,1.4-5.68.279A10.316,10.316,0,0,1,4198.383,4749.8Z" fill="#440c01"/>
      <path id="Path_714" data-name="Path 714" d="M4207.193,4802.477c-.259.6-2.551.558-5.561.18,2.013-2.013,1.5-7.833-1.355-12.816-3.129-5.521-1.714-12.577,2.571-21.127-1.475,4.385-2.751,12.178-2.252,14.55C4201.293,4786.572,4208.03,4800.584,4207.193,4802.477Z" fill="#ed6c5c"/>
      <path id="Path_715" data-name="Path 715" d="M4187.64,4886.886c-.717.539-4.345.558-6.338.339,1.993-.637,5.72-2.431,6.9-4.345C4188.3,4884.574,4188.218,4886.468,4187.64,4886.886Z" fill="#ccc" style="mix-blend-mode: multiply;isolation: isolate"/>
      <path id="Path_716" data-name="Path 716" d="M4212.515,4887.385c-1.854.159-4.764.2-4.943-.16-.339-.637.059-3.368.618-5.321A9.059,9.059,0,0,0,4212.515,4887.385Z" fill="#ccc" style="mix-blend-mode: multiply;isolation: isolate"/>
      <path id="Path_717" data-name="Path 717" d="M4213.531,4875.446a.32.32,0,0,1-.02.3,12.23,12.23,0,0,1-4.744.438c-.378-.2-4.424-34.142-4.424-34.142-.518-6.3-7.076-32.887-7.235-33.724v-.02c.239-.956.7-1.335,1.056-1.335.439,0,9.806,28.721,10.883,34.7s-.838,30.137.916,31.552C4211.7,4874.629,4212.953,4874.031,4213.531,4875.446Z" fill="#222f4d"/>
      <path id="Path_718" data-name="Path 718" d="M4202.589,4759.426a13.871,13.871,0,0,1-5.641,3.448c-6.019,2.113-8.53.777-8.53.777s-1.276-.638-2.89-7.155c-1.1-4.485-2.253-14.072.438-19.433C4186.454,4758.481,4191.188,4765.374,4202.589,4759.426Z"/>
      <path id="Path_719" data-name="Path 719" d="M4206.356,4752.171c-2.033.119-4.544-1.156-6.9-6.318-4.943-10.823-6.956-11.879-10.225-12.1a6.35,6.35,0,0,1,3.029-.518c5.88.279,8.132,14.092,10.723,16.683A9.565,9.565,0,0,0,4206.356,4752.171Z" fill="#ff4747" style="mix-blend-mode: soft-light;isolation: isolate"/>
      <path id="Path_720" data-name="Path 720" d="M4187.9,4778.281c0-.02-.019-.04-.019-.06a46.9,46.9,0,0,0-3.648-10.743,18.2,18.2,0,0,0-1.116-2.093.277.277,0,0,1-.04-.06c-.817-1.1-8.271-.757-11.46-.857,2.75-1.036,9.288-2.471,11.52-1.335C4184.69,4763.91,4188.238,4776.746,4187.9,4778.281Z" fill="#ed6c5c"/>
    </g>
    <path id="Path_721" data-name="Path 721" d="M4055.086,4754.565a23.964,23.964,0,0,1-4.5,4.391l-.265-.2c-4.987-3.619-5.847-6.311-4.788-10.151.044-.132.066-.243.11-.353,1.214-3.486,4.943-2.537,4.943-2.537a29.348,29.348,0,0,1,4.259,6.134C4055.329,4752.954,4055.528,4753.947,4055.086,4754.565Z" fill="#440c01"/>
    <path id="Path_722" data-name="Path 722" d="M4052.615,4756.308a4.9,4.9,0,0,1-2.295,2.45c-4.987-3.619-5.847-6.311-4.788-10.151.044-.132.066-.243.11-.353-.088,3.928,3.729,5.98,6.664,6.421A2.7,2.7,0,0,1,4052.615,4756.308Z"/>
    <path id="Path_723" data-name="Path 723" d="M4054.888,4761.67a7.208,7.208,0,0,0-.419,1.015c-.2.729-.42,1.655-.618,2.538a11.537,11.537,0,0,1-.883,2.935c-.551.728-6.333-2.891-6.421-3.773-.044-.729,2.6-4.612,4.148-6.664.177-.221.331-.42.464-.6.154-.177.265-.331.375-.442,0,0,.066.067.221.2.242.243.706.706,1.191,1.236C4054.049,4759.331,4055.329,4760.942,4054.888,4761.67Z" fill="#ffe2d7"/>
    <path id="Path_724" data-name="Path 724" d="M4057.58,4762.707a2.661,2.661,0,0,1-.927,2.251,7.422,7.422,0,0,1-2.184-2.273c-.2.729-.42,1.655-.618,2.538a5.435,5.435,0,0,0-.728-2.405,7.346,7.346,0,0,1-.927-3.487c-.022-.507-1.147-.772-1.5-1.61a.748.748,0,0,1-.11-.31,5.516,5.516,0,0,1,.574-.286c.176-.066.375-.155.6-.243a6.415,6.415,0,0,1,1.191-.2,2.621,2.621,0,0,1,1.39.309C4055.947,4757.9,4057.205,4760.413,4057.58,4762.707Z" fill="#e6e6e6" style="mix-blend-mode: multiply;isolation: isolate"/>
    <path id="Path_725" data-name="Path 725" d="M4060.515,4765.51a4.215,4.215,0,0,1-3.862-.552,7.422,7.422,0,0,1-2.184-2.273,9.453,9.453,0,0,1-1.523-4.567,2.837,2.837,0,0,1-.022-.42c0-.331,0-.662.022-1.015.133-4.082,1.015-9,1.788-9.334a36.707,36.707,0,0,1,3.707-.772c.022,0,.066-.022.088-.022.728-.11,1.456-.243,2.162-.375h.044c1.788-.287,3.266-.53,3.266-.53a10.312,10.312,0,0,1,.309.993,16.725,16.725,0,0,1,.508,2.692C4065.59,4755.8,4063.8,4764.318,4060.515,4765.51Z" fill="#ffe2d7"/>
    <path id="Path_726" data-name="Path 726" d="M4053.351,4754.26c-1.324-1.865-2.888-1.624-3.429-.662s.6,4.993,3.369,4.753S4053.351,4754.26,4053.351,4754.26Z" fill="#ffe2d7"/>
    <path id="Path_727" data-name="Path 727" d="M4064.818,4749.335c-1.258.177-2.554-.34-3.481-.362-1.3-.044-3.4.782-6.14,2.26,0,0,1.147-3.332,2.935-4.479a2.072,2.072,0,0,1,.309-.177c.022,0,.066-.022.088-.022a5.373,5.373,0,0,1,2.162-.375h.044a30.077,30.077,0,0,1,3.575.463A16.725,16.725,0,0,1,4064.818,4749.335Z" fill="#e6e6e6" style="mix-blend-mode: multiply;isolation: isolate"/>
    <path id="Path_728" data-name="Path 728" d="M4064.31,4748.055c-1.633.243-4.523-.286-6.818,1.324a16.667,16.667,0,0,0-2.648,2.472c-1.015,1.147-1.7,2.118-1.7,2.118l-2.56-8.252c-1.545-4.127.265-7.084,3.244-7.834a6.66,6.66,0,0,1,1.147-.177,6.525,6.525,0,0,1,5.473,2.472s4.457-5.583,7.348-.772a7.748,7.748,0,0,1,.684,1.544v.022C4069.65,4744.988,4065.745,4747.835,4064.31,4748.055Z" fill="#440c01"/>
    <path id="Path_729" data-name="Path 729" d="M4056.82,4793.583c5.454.4,18.849,2.406,21.095.16,1.378-1.377-8.727-2.833-10.5-2.936-1.93-.112-11.19-1.235-11.475-1.235S4056.82,4793.583,4056.82,4793.583Z" fill="#f0cdc0"/>
    <path id="Path_730" data-name="Path 730" d="M4066.892,4919.024c-.088.243-.8.949-3.332,1.655-.772.22-1.7.419-2.847.64-1.037.176-2.272.331-3.685.485-7.59.794-16-1.92-17.983-2.449-.133-.044-.243-.066-.309-.088-1.214-.243.11-10.107.838-11.188,0,0,4.457,1.324,5.163,2.163.729.838,5.539,3.376,7.834,4.347,1.589.662,7.944,2.383,11.629,3.486A12.78,12.78,0,0,1,4066.892,4919.024Z" fill="#ab3d35"/>
    <path id="Path_731" data-name="Path 731" d="M4092.753,4929.373c-.088.728-.993,1.456-2.317,2.1-2.846,1.412-7.656,2.4-10.194,2.008-3.4-.574-13.5-4.016-16.064-5.869a2.348,2.348,0,0,1-.53-.508c-.706-1.1-.595-3.861-.088-6.421a16.572,16.572,0,0,1,.64-2.6c.132-.4.265-.75.4-1.081a30.847,30.847,0,0,0,3.972.242c2.295,0,4.457,2.406,9.51,6C4083.133,4926.857,4093,4927.1,4092.753,4929.373Z" fill="#b54740"/>
    <path id="Path_732" data-name="Path 732" d="M4049.592,4913.419c-.287.486-2.273,1.037-4.921-.287a15.572,15.572,0,0,1-5.45-5.163c-4.987-7.216-4.369-46.361-4.369-51.988,0-5.6-8.827-33.364-5.627-42.5,0,0,.64-.089,1.611-.2a31.239,31.239,0,0,1,7.591-.177,1.06,1.06,0,0,1,.264.045c.42.088.971.926,1.589,2.294,3.067,7.062,7.79,28.576,7.767,40.955a30.564,30.564,0,0,1-.22,3.928,80.811,80.811,0,0,0-.4,9.157C4047.474,4886.189,4049.989,4912.757,4049.592,4913.419Z" fill="#de4b43"/>
    <path id="Path_733" data-name="Path 733" d="M4054.138,4894.508a254.329,254.329,0,0,1-6.708-25.023c.044,16.7,2.559,43.272,2.162,43.934-.287.486-2.273,1.037-4.921-.287.552-.507,1.324-1.081,2.1-1.743,2.295-1.942-2.847-37.512-2.384-44.132.442-6.554-11.452-32.636-12.4-43.6,0-.132-.022-.243-.022-.353,0,0,9.533,19.793,16.086,33.1,2.361,4.833,4.347,8.827,5.34,10.68C4055.638,4871.361,4054.778,4883.564,4054.138,4894.508Z" fill="#cf3934"/>
    <path id="Path_734" data-name="Path 734" d="M4076.071,4920.789c0,1.125-4.5,1.125-11.474-3.795-3.133-2.229-7.061-11.938-10.459-22.486a254.329,254.329,0,0,1-6.708-25.023,40.485,40.485,0,0,1-.883-5.649c-.11-4.744-10.879-24.736-14.564-40.182a34.031,34.031,0,0,1-1.147-10.371,12.748,12.748,0,0,1,.64-3.332s14.916-2.935,18.624.044l.022.022a2.079,2.079,0,0,1,.595.728c.817,1.677,2.053,9.025,3.266,17.609,1.854,12.953,3.707,28.752,4.281,32.128C4059.235,4866.087,4076.071,4919.664,4076.071,4920.789Z" fill="#f76862"/>
    <path id="Path_735" data-name="Path 735" d="M4053.983,4828.354c-1.037-2.648-2.824-8.937-5.34-10.79-1.655-1.236-4.943-1.942-8.363-2.119a24.754,24.754,0,0,0-8.8.905c.662-.353,3.575-1.809,6.928-3.244h.023c3.773-1.632,8.076-3.221,10.371-3.177.507,0,.926.044,1.3.066l.022.022a2.079,2.079,0,0,1,.595.728C4051.534,4812.422,4052.77,4819.77,4053.983,4828.354Z" fill="#ed4642"/>
    <path id="Path_736" data-name="Path 736" d="M4060.1,4783.648v.022a31.549,31.549,0,0,1-2.229,8.43l-.2.529a42,42,0,0,0-1.412,4.171c-.485,1.655-.905,3.354-1.3,5.031v.022c-1.478,6.421-2.317,12.467-2.8,13.107-.728.971-6.311-1.809-14.741-.353-4.81.816-6.8,2.427-7.789,3.663-.794.927-1.015,1.655-1.478,1.655-1.081,0,1.324-13.152,4.214-21.095,2.6-7.15-.022-12.335,3.685-22.861.4-1.169.905-2.405,1.479-3.729,5.781-13,11.32-8.01,14.917-5.759C4057.933,4769.9,4060.934,4775.9,4060.1,4783.648Z" fill="#ceb2ae"/>
    <path id="Path_737" data-name="Path 737" d="M4139.9,4762.968l-19.52,37.866-4,7.739a1.148,1.148,0,0,1-1.424.519l-32.514-12.9-11.647-4.6-8.335-3.311a1.142,1.142,0,0,1-.6-1.56l4.851-9.413,1.713-3.311,16.979-32.88a1.13,1.13,0,0,1,1.425-.519l52.495,20.809A1.113,1.113,0,0,1,4139.9,4762.968Z" fill="#ffefb3"/>
    <path id="Path_738" data-name="Path 738" d="M4059.875,4800.22c-.993-.839-2.251-2.03-3.619-3.42-.485,1.655-.905,3.354-1.3,5.031-.22-1.435-.485-3.09-.86-4.568-.751-3.023-8.54-8.142-11.232-12.622s-2.074-12.136,1.1-14.828c0,0,1.037,1.7,2.626,4.258,1.434,2.384,3.332,5.517,5.252,8.7q.694,1.158,1.39,2.317c1.655,2.758,3.222,5.428,4.435,7.546.773,1.368,1.412,2.494,1.81,3.266A5.857,5.857,0,0,1,4059.875,4800.22Z" fill="#c99189"/>
    <path id="Path_739" data-name="Path 739" d="M4107.56,4806.178c-.773.265-10.283.684-13.99-1.082-3.707-1.743-29.039-1.831-32.2-3.751a13.742,13.742,0,0,1-1.5-1.125c-.993-.839-2.251-2.03-3.619-3.42a93.206,93.206,0,0,1-6.377-7.062c-1.148-1.39-2.229-2.8-3.156-4.148a18.511,18.511,0,0,1-2.956-5.759c-.6-2.626.838-4.612,2.824-5.76,2.538-1.478,5.98-1.566,7.172.111,2.383,3.376,4.523,6.62,6.333,9.466v.022c3.773,5.914,6.046,10.062,6.046,10.062s2.1-.794,8.672.795c6.575,1.566,26.28,8.65,28.288,9.709C4105.088,4805.273,4108.31,4805.913,4107.56,4806.178Z" fill="#ffe2d7"/>
    <path id="Path_740" data-name="Path 740" d="M4070,4790.934c-.649.389-1.064.441-.363.857s8.073,3.037,8.93,2.336S4070,4790.934,4070,4790.934Z" fill="#e6e6e6" style="mix-blend-mode: multiply;isolation: isolate"/>
    <path id="Path_741" data-name="Path 741" d="M4086.751,4782.126a95.209,95.209,0,0,1-4.325,14.078l-11.628-4.612-.221-.088-1.147-.464-6.973-2.758a1.147,1.147,0,0,1-.6-1.567l4.854-9.4c2.516-1.191,5.87-2.8,8.981-4.281,4.59-2.162,8.694-4.082,8.981-4.038.464.067,1.126,4.943,1.589,8.716.088.707.176,1.369.221,1.964C4086.641,4781.111,4086.751,4782.126,4086.751,4782.126Z" fill="#f5c60a"/>
    <path id="Path_742" data-name="Path 742" d="M4070.577,4791.5l-1.147-.464a8.688,8.688,0,0,1,1.125-1.853C4070.974,4789.76,4070.246,4791.129,4070.577,4791.5Z" fill="#e6e6e6" style="mix-blend-mode: multiply;isolation: isolate"/>
    <path id="Path_743" data-name="Path 743" d="M4066.5,4790.715c3.149-.543,4-1.976,4.126-1.586a2.625,2.625,0,0,1-2.41,2.542C4066.328,4791.736,4066.5,4790.715,4066.5,4790.715Z" fill="#f0cdc0"/>
    <path id="Path_744" data-name="Path 744" d="M4106.863,4804.615c-2.389.857-15.784-2.83-12.253-3.79S4106.863,4804.615,4106.863,4804.615Z" fill="#e6e6e6" style="mix-blend-mode: multiply;isolation: isolate"/>
    <path id="Path_745" data-name="Path 745" d="M4120.38,4800.838l-4.016,7.745a1.136,1.136,0,0,1-1.412.507l-15.535-6.156-1.39-.552-15.6-6.178-11.628-4.612c2.317-2.074,9.51-7.458,15.512-11.783.044-.044.132-.089.177-.133,4.545-3.266,8.341-5.869,8.672-5.869.706.11,1.213,3.619,1.213,3.619s13.593-7.591,14.431-6.995c.42.286,2.8,7.855,5.12,15.534C4117.776,4792.033,4119.586,4798.168,4120.38,4800.838Z" fill="#fad74a"/>
    <path id="Path_746" data-name="Path 746" d="M4099.4,4802.735a.62.62,0,0,1,.022.2l-1.39-.552a12.784,12.784,0,0,1,1.964-2.052C4100.168,4801.213,4099.131,4802.14,4099.4,4802.735Z" fill="#e6e6e6" style="mix-blend-mode: multiply;isolation: isolate"/>
    <path id="Path_747" data-name="Path 747" d="M4093.764,4801.312c2.952.222,6.047-1.378,6.238-.978s-1.558,2.315-3.177,2.36A4.923,4.923,0,0,1,4093.764,4801.312Z" fill="#ffe2d7"/>
    <path id="Path_748" data-name="Path 748" d="M4057.889,4780.471c0,1.147-5.583,5.406-7.392,6.664a2.246,2.246,0,0,0-.618,2.6c-1.148-1.39-2.229-2.8-3.156-4.148C4049.46,4783.251,4057.889,4780.471,4057.889,4780.471Z" fill="#f2f2f2" style="mix-blend-mode: multiply;isolation: isolate"/>
    <path id="Path_749" data-name="Path 749" d="M4045.51,4768.4c6.928-3.783,12.894,11.129,12.653,12.092s-9.6,6.677-10.407,6.677S4037.469,4772.789,4045.51,4768.4Z" fill="#e3c3bf"/>
    <path id="Path_750" data-name="Path 750" d="M4097.937,4759.81a4.523,4.523,0,1,1-1.9-6.489A4.8,4.8,0,0,1,4097.937,4759.81Z" fill="#fff"/>
    <path id="Path_751" data-name="Path 751" d="M4115.931,4785.973a46.994,46.994,0,0,1-4.966-3.947s-4.816,7.186-5.294,7.219c-.963.068-2.888-7.45-2.888-7.45s-10.35,5.411-10.761,5.294c-1.479-.422,2.253-7.7,2.253-7.7a54.282,54.282,0,0,1-7.97.423c.058-.038.135-.1.193-.134,4.543-3.273,8.335-5.872,8.662-5.872.712.116,1.213,3.62,1.213,3.62s13.591-7.585,14.438-6.988C4111.215,4770.726,4113.6,4778.292,4115.931,4785.973Z" fill="#fff"/>
    <path id="Path_752" data-name="Path 752" d="M4086.267,4777.714a15.069,15.069,0,0,1-2.407-2.5,24.776,24.776,0,0,1-1.848,2.1c-1.021-.273-.173-4.813-.173-4.813s-3.465.424-6.141.539c4.582-2.175,8.7-4.081,8.99-4.042C4085.131,4769.051,4085.8,4773.941,4086.267,4777.714Z" fill="#fff"/>
    <path id="Path_753" data-name="Path 753" d="M4036.308,4795.476c-1.39,3.309-7.414,19.881-6.686,22.794-.794.927-1.015,1.655-1.478,1.655-1.081,0,1.324-13.152,4.214-21.095,2.6-7.15-.022-12.335,3.685-22.861C4035.624,4783.339,4037.676,4792.166,4036.308,4795.476Z" fill="#c99189"/>
    <path id="Path_754" data-name="Path 754" d="M4060.713,4921.319c-1.037.176-2.272.331-3.685.485-7.59.794-16-1.92-17.983-2.449,3.552-.552,10.37.927,13.769,1.037A33.511,33.511,0,0,1,4060.713,4921.319Z" fill="#ccc" style="mix-blend-mode: multiply;isolation: isolate"/>
    <path id="Path_755" data-name="Path 755" d="M4090.436,4931.469c-2.846,1.412-7.656,2.4-10.194,2.008-3.4-.574-13.5-4.016-16.064-5.869,4.369.375,15.247,4.435,17.366,3.994A38.754,38.754,0,0,1,4090.436,4931.469Z" fill="#ccc" style="mix-blend-mode: multiply;isolation: isolate"/>
    <path id="Path_756" data-name="Path 756" d="M4054.319,4915.127c2.752.7,4.517,3.219,6.776,3.4s3.764-.571,2.44-1.246S4054.319,4915.127,4054.319,4915.127Z" fill="#fff" opacity="0.4"/>
    <path id="Path_757" data-name="Path 757" d="M4081.266,4924.733c1.947,1.22,4.465,3.79,6.854,3.738s4.283-.727,2.829-1.558S4081.266,4924.733,4081.266,4924.733Z" fill="#fff" opacity="0.4"/>
    <path id="Path_758" data-name="Path 758" d="M4068.481,4740.95c-1.81-1.721-4.987.64-7.547.486-2.405-.111-4.987-2.869-7.1-3.553a6.66,6.66,0,0,1,1.147-.177,6.525,6.525,0,0,1,5.473,2.472s4.457-5.583,7.348-.772A7.748,7.748,0,0,1,4068.481,4740.95Z" fill="#ff4747" style="mix-blend-mode: soft-light;isolation: isolate"/>
    <path id="Path_759" data-name="Path 759" d="M4397.041,4683.55c-1.372-.834-5.285-5.63-5.084-8.043s7.263-5.676,7.935-5.407,2.744,8.016,2.287,8.958S4397.041,4683.55,4397.041,4683.55Z" fill="#562707"/>
    <path id="Path_760" data-name="Path 760" d="M4401.617,4683.038c-.129.654-.31,1.42-.517,2.341a27.588,27.588,0,0,0-.525,3.15c-.2,1.963-.06,3.116-.12,3.469-.078.508-7.7-.731-7.962-2.152s3.5-6.266,4.493-7.669a9.46,9.46,0,0,1,.852-.887,5.142,5.142,0,0,1,2.092-1.282,1.889,1.889,0,0,1,.688-.06C4401.9,4680.094,4402.021,4680.9,4401.617,4683.038Z" fill="#dba179"/>
    <path id="Path_761" data-name="Path 761" d="M4401.617,4683.038c-.129.654-.31,1.42-.517,2.341a27.588,27.588,0,0,0-.525,3.15,5.377,5.377,0,0,1-2.539-5.7,1.983,1.983,0,0,0-.2-1.541,5.142,5.142,0,0,1,2.092-1.282C4400.317,4680.576,4400.834,4681.609,4401.617,4683.038Z" fill="#e6e6e6" style="mix-blend-mode: multiply;isolation: isolate"/>
    <path id="Path_762" data-name="Path 762" d="M4409.226,4674.619c-.394,13.988-3.857,13.555-4.483,13.45-1.206-.2-5.416-1.542-6.133-3.587s4.662-10.042,4.734-10.15S4409.226,4674.619,4409.226,4674.619Z" fill="#f4b387"/>
    <path id="Path_763" data-name="Path 763" d="M4401.963,4678.762c-1.165-2.672-3.03-2.313-3.64-1.309a2.784,2.784,0,0,0,2.277,4.268C4403.147,4681.882,4401.963,4678.762,4401.963,4678.762Z" fill="#f4b387"/>
    <path id="Path_764" data-name="Path 764" d="M4425.34,4728.228c-.095-.146-.482-.7-.938-1.248a3.542,3.542,0,0,0-1.4-1.17,3.588,3.588,0,0,0-1.6.37,4.349,4.349,0,0,1-1.817.439,35.6,35.6,0,0,1-4.467-1.154c-.138-.043-.258-.094-.379-.138a2.19,2.19,0,0,1-.826-.456.112.112,0,0,1-.017-.051.337.337,0,0,1,.068-.319c0-.008,0-.008.009-.017s.009-.017.017-.026c.181.026.37.069.577.1a1.191,1.191,0,0,0-.241-.464,11.559,11.559,0,0,1,1.739-1.171c.327.155.576.293.809.387a2.262,2.262,0,0,0,1.962-.034c1.421-.482,4.649-1.67,5.268-1.369.543.258,3.6,5.062,4.7,6.336.172.2.293.3.362.309C4429.644,4728.581,4425.529,4728.521,4425.34,4728.228Z" fill="#e0a47c"/>
    <path id="Path_765" data-name="Path 765" d="M4401.207,4676.854l.085.763a17.339,17.339,0,0,1,5.083-1.922,9.786,9.786,0,0,1,2.851-.134,17.348,17.348,0,0,0,1.049-5.461,18.353,18.353,0,0,0-.393-4.326c-.107-.155-9.99,4.326-9.99,4.326Z" fill="#562707"/>
    <path id="Path_766" data-name="Path 766" d="M4391.957,4675.507c.588-5.8,9.145-8.923,11.5-9.729,1.255-.43,6.206-1.578,6.476.153s-6.5,2.253-11.73,5.048A33.231,33.231,0,0,0,4391.957,4675.507Z" fill="#6b3007"/>
    <path id="Path_767" data-name="Path 767" d="M4442.865,4748.646c-5.371,3.563-18.7,5.268-23.576,2.229a4.756,4.756,0,0,1-.878-.688,1.411,1.411,0,0,1-.112-.121c-1.291-1.437.163-2.6,2.5-3.477a53.569,53.569,0,0,1,10.312-2.213,32.381,32.381,0,0,1,7.893-.826C4444.535,4743.74,4446.971,4745.926,4442.865,4748.646Z" fill="#071b4d"/>
    <path id="Path_768" data-name="Path 768" d="M4414.322,4724.1l-.336.361c.181.026.37.069.577.1a1.191,1.191,0,0,0-.241-.464,11.559,11.559,0,0,1,1.739-1.171c.327.155.576.293.809.387a5.009,5.009,0,0,1-.646,1.6,1.106,1.106,0,0,1-.568.543,1.868,1.868,0,0,1-.542.008,1.746,1.746,0,0,1-.37-.069,1.57,1.57,0,0,1-.87-.5.777.777,0,0,1-.163-.482c.086.009.172.026.258.043Z" fill="#e6e6e6" style="mix-blend-mode: multiply;isolation: isolate"/>
    <path id="Path_769" data-name="Path 769" d="M4403.6,4713.677c2.188,2.331,13.163,9.253,13.091,9.576s-1.327,2.152-2.4,2.224-12.3,1.147-12.983-.969S4403.6,4713.677,4403.6,4713.677Z" fill="#9893eb"/>
    <path id="Path_770" data-name="Path 770" d="M4403.562,4737.387c-.292,1.36-7.29,8.246-11.4,9.606a2.591,2.591,0,0,1-2.161,0c-2.152-1.36-4.76-8.909-6.731-19.255-.732-3.822-1.377-8.031-1.877-12.447-1.867-16.355,6.026-24.894,9.176-26.254,2.583-1.119,6.921-.705,10.261,2.514,1.868,1.79,3.3,5.233,3.658,8.607S4403.915,4735.734,4403.562,4737.387Z" fill="#a49fff"/>
    <path id="Path_771" data-name="Path 771" d="M4392.166,4746.993a2.591,2.591,0,0,1-2.161,0c-2.152-1.36-4.76-8.909-6.731-19.255,2.746,5.336,5.216,13.565,6.636,13.376,1.619-.215,7.153-3.443,8.772-3.064C4400.1,4738.377,4395.376,4745.013,4392.166,4746.993Z" fill="#e6e6e6" style="mix-blend-mode: multiply;isolation: isolate"/>
    <path id="Path_772" data-name="Path 772" d="M4439,4743.55c.035,5.173-14.607,7.351-19.711,7.325a6.251,6.251,0,0,1-1.421-.112s.155-.258.431-.7a39.287,39.287,0,0,1,2.5-3.477,53.569,53.569,0,0,1,10.312-2.213A32.381,32.381,0,0,1,4439,4743.55Z" fill="#e6e6e6" style="mix-blend-mode: multiply;isolation: isolate"/>
    <path id="Path_773" data-name="Path 773" d="M4403.577,4736.434c-13.739,3.691-16.247,10.652-12.158,14.848s16.516,3.712,25.339.7,26.523-10.49,28.836-14.794,0-6.617-4.2-6.886S4407.182,4735.465,4403.577,4736.434Z" fill="#173b9e"/>
    <path id="Path_774" data-name="Path 774" d="M4431.1,4729.063c.052.353-4.338,2.5-8.452,2.1a18.143,18.143,0,0,1-6.826-2.178,5.711,5.711,0,0,0-1.55.1c-.335.051-.706.1-1.076.163a13.835,13.835,0,0,1-3.348.387c-.189-.3,3.469-5.276,3.469-5.276.12.017.249.034.4.06.086.009.172.026.258.043h.017c.181.026.37.069.577.1h.009c.482.095,1.041.216,1.652.353,1.507.336,3.323.792,5.174,1.266,1.007.266,2.022.533,3,.8,1.67.456,3.219.9,4.4,1.266A11.336,11.336,0,0,1,4431.1,4729.063Z" fill="#f4b387"/>
    <path id="Path_775" data-name="Path 775" d="M4414.27,4729.081c-.223.034-.456.068-.7.1-.12.017-.25.043-.379.06a36.327,36.327,0,0,1,.68-4.347.243.243,0,0,0,.018-.077c.025-.112.051-.224.068-.319,0-.008,0-.008.009-.017v-.026l.035-.034.008.008-.026.026a.074.074,0,0,1,.043.009c.164.026.345.06.534.094h.009a3.72,3.72,0,0,1,.163.766c0,.026.009.044.009.069A10.04,10.04,0,0,1,4414.27,4729.081Z" fill="#e6e6e6" style="mix-blend-mode: multiply;isolation: isolate"/>
    <path id="Path_776" data-name="Path 776" d="M4413.573,4729.184a.5.5,0,0,1-.043.095c-.267.43-17.327,3.873-21.571,1.291s-5.225-14.737-4.467-24.317,3.8-15,9.2-13.024c3.228,1.188,4.468,6.732,3.332,12.215s-3.822,17.163-3.065,17.275,15.821.964,16.837,1.5a.511.511,0,0,1,.207.2s.008,0,0,.009l.008.008a.035.035,0,0,1,.017.035C4414.6,4725.457,4413.866,4728.512,4413.573,4729.184Z" fill="#b7b3ff"/>
    <path id="Path_777" data-name="Path 777" d="M4443.256,4728.818l-22.2,2.677a.547.547,0,0,0-.479.611h0a.548.548,0,0,0,.611.479l22.2-2.677a.55.55,0,0,0,.48-.611h0A.55.55,0,0,0,4443.256,4728.818Z" fill="#204069"/>
    <path id="Path_778" data-name="Path 778" d="M4453.611,4709.485l-10.756,19.6a.55.55,0,0,0,.217.746h0a.549.549,0,0,0,.746-.217l10.756-19.6a.549.549,0,0,0-.217-.746h0A.55.55,0,0,0,4453.611,4709.485Z" fill="#204069"/>
    <g id="Group_557" data-name="Group 557">
      <path id="Path_779" data-name="Path 779" d="M4309.281,4600.357l54.448-15.638-5.339,7.912Z" fill="#f0f4ff"/>
      <path id="Path_780" data-name="Path 780" d="M4309.281,4600.357l49.109-7.726.73,19.72Z" fill="#9eb7ff"/>
      <path id="Path_781" data-name="Path 781" d="M4359.12,4612.351l-49.839-11.994,43.647-.086Z" fill="#5d7ade"/>
      <path id="Path_782" data-name="Path 782" d="M4345.18,4615.353l-35.9-15,43.647-.086Z" fill="#f0f4ff"/>
      <g id="Group_548" data-name="Group 548">
        <path id="Path_783" data-name="Path 783" d="M4439.684,4678.091a.478.478,0,0,1-.386-.763,42.191,42.191,0,0,0,3.068-4.812.484.484,0,0,1,.65-.192.479.479,0,0,1,.192.65,43.106,43.106,0,0,1-3.139,4.923A.476.476,0,0,1,4439.684,4678.091Z" fill="#5d7ade"/>
      </g>
      <g id="Group_549" data-name="Group 549">
        <path id="Path_784" data-name="Path 784" d="M4445.574,4666.9a.481.481,0,0,1-.453-.635,40.213,40.213,0,0,0,1.464-5.512.484.484,0,0,1,.561-.381.476.476,0,0,1,.38.561,40.869,40.869,0,0,1-1.5,5.643A.479.479,0,0,1,4445.574,4666.9Z" fill="#5d7ade"/>
      </g>
      <g id="Group_550" data-name="Group 550">
        <path id="Path_785" data-name="Path 785" d="M4447.7,4653.779a.479.479,0,0,1-.479-.472,35.382,35.382,0,0,0-.919-7.464.478.478,0,1,1,.932-.219,36.145,36.145,0,0,1,.945,7.668.48.48,0,0,1-.471.487Z" fill="#5d7ade"/>
      </g>
      <g id="Group_551" data-name="Group 551">
        <path id="Path_786" data-name="Path 786" d="M4444.4,4639.465a.475.475,0,0,1-.432-.274,34.96,34.96,0,0,0-3.175-5.378.479.479,0,0,1,.779-.558,35.853,35.853,0,0,1,3.261,5.526.479.479,0,0,1-.227.638A.484.484,0,0,1,4444.4,4639.465Z" fill="#5d7ade"/>
      </g>
      <g id="Group_552" data-name="Group 552">
        <path id="Path_787" data-name="Path 787" d="M4436.219,4628.381a.478.478,0,0,1-.327-.129,42.629,42.629,0,0,0-4.558-3.7.479.479,0,0,1,.55-.784,43.532,43.532,0,0,1,4.663,3.782.479.479,0,0,1-.328.829Z" fill="#5d7ade"/>
      </g>
      <g id="Group_553" data-name="Group 553">
        <path id="Path_788" data-name="Path 788" d="M4425.586,4620.915a.483.483,0,0,1-.228-.058c-1.994-1.082-4.1-2.095-6.265-3.014a.48.48,0,0,1-.254-.628.474.474,0,0,1,.628-.254c2.192.93,4.326,1.958,6.347,3.054a.479.479,0,0,1-.228.9Z" fill="#5d7ade"/>
      </g>
      <g id="Group_554" data-name="Group 554">
        <path id="Path_789" data-name="Path 789" d="M4412.377,4615.3a.519.519,0,0,1-.149-.023c-2.84-.93-5.846-1.768-8.936-2.495a.48.48,0,0,1-.356-.576.473.473,0,0,1,.577-.357c3.114.732,6.148,1.579,9.014,2.516a.479.479,0,0,1-.15.935Z" fill="#5d7ade"/>
      </g>
      <g id="Group_555" data-name="Group 555">
        <path id="Path_790" data-name="Path 790" d="M4396.67,4611.444a.544.544,0,0,1-.079-.006,96.542,96.542,0,0,0-9.819-1.137.478.478,0,0,1-.447-.509.488.488,0,0,1,.507-.448,97.545,97.545,0,0,1,9.917,1.148.479.479,0,0,1-.079.952Z" fill="#5d7ade"/>
      </g>
      <g id="Group_556" data-name="Group 556">
        <path id="Path_791" data-name="Path 791" d="M4369.567,4610.53a.479.479,0,0,1-.041-.957c3.639-.312,7.349-.463,10.95-.441a.479.479,0,0,1,0,.958h0c-3.6-.009-7.257.128-10.863.438Z" fill="#5d7ade"/>
      </g>
    </g>
    <g id="Group_563" data-name="Group 563">
      <g id="Group_562" data-name="Group 562">
        <g id="Group_558" data-name="Group 558">
          <path id="Path_792" data-name="Path 792" d="M4111.593,4602.782a8.147,8.147,0,1,0-4.044,10.788A8.148,8.148,0,0,0,4111.593,4602.782Z" fill="#6666bf"/>
        </g>
        <g id="Group_559" data-name="Group 559">
          <path id="Path_793" data-name="Path 793" d="M4084.629,4605.642a2.332,2.332,0,0,1-2.24-2.966,23.911,23.911,0,0,1,33.451-14.946,2.328,2.328,0,0,1-2.035,4.187,19.256,19.256,0,0,0-26.939,12.035A2.328,2.328,0,0,1,4084.629,4605.642Z" fill="#6666bf"/>
        </g>
        <g id="Group_560" data-name="Group 560">
          <path id="Path_794" data-name="Path 794" d="M4071.887,4596.372a2.329,2.329,0,0,1-2.1-3.318,39.736,39.736,0,0,1,47.064-21.2,2.327,2.327,0,1,1-1.311,4.466,35.081,35.081,0,0,0-41.54,18.712A2.327,2.327,0,0,1,4071.887,4596.372Z" fill="#6666bf"/>
        </g>
        <g id="Group_561" data-name="Group 561">
          <path id="Path_795" data-name="Path 795" d="M4059.312,4587.2a2.327,2.327,0,0,1-2.035-3.453,55.709,55.709,0,0,1,60.774-27.435,2.328,2.328,0,1,1-1.012,4.544A51.087,51.087,0,0,0,4061.352,4586,2.326,2.326,0,0,1,4059.312,4587.2Z" fill="#6666bf"/>
        </g>
      </g>
    </g>
  </g>
</svg>
