<svg xmlns="http://www.w3.org/2000/svg" width="759.715" height="672.626" viewBox="0 0 759.715 672.626">
  <g id="Group_78" data-name="Group 78" transform="translate(-859.716 -378.073)">
    <g id="Group_5" data-name="Group 5" transform="translate(790.839 378.609)">
      <rect id="Rectangle_4" data-name="Rectangle 4" width="59.784" height="0.451" transform="translate(752.267 619.626)" fill="#ececec"/>
      <rect id="Rectangle_5" data-name="Rectangle 5" width="15.691" height="0.451" transform="translate(582.146 624.524)" fill="#ececec"/>
      <rect id="Rectangle_6" data-name="Rectangle 6" width="34.641" height="0.451" transform="translate(715.819 602.865)" fill="#ececec"/>
      <rect id="Rectangle_7" data-name="Rectangle 7" width="77.962" height="0.451" transform="translate(94.686 605.898)" fill="#ececec"/>
      <rect id="Rectangle_8" data-name="Rectangle 8" width="11.431" height="0.451" transform="translate(188.718 605.898)" fill="#ececec"/>
      <rect id="Rectangle_9" data-name="Rectangle 9" width="169.08" height="0.451" transform="translate(237.3 613.519)" fill="#ececec"/>
      <path id="Path_8" data-name="Path 8" d="M863.876,378.609a9.863,9.863,0,0,0-9.852,9.851V878.382a9.862,9.862,0,0,0,9.852,9.851H1212.41a9.861,9.861,0,0,0,9.85-9.851V388.46a9.862,9.862,0,0,0-9.85-9.851Z" transform="translate(-784.611 -378.609)" fill="#fff" stroke="#ccc" stroke-miterlimit="10" stroke-width="1.071" opacity="0.7"/>
      <path id="Rectangle_10" data-name="Rectangle 10" d="M8.966,0h350.3a8.966,8.966,0,0,1,8.966,8.966v491.69a8.968,8.968,0,0,1-8.968,8.968H8.967A8.967,8.967,0,0,1,0,500.657V8.966A8.966,8.966,0,0,1,8.966,0Z" transform="translate(459.821 0)" fill="#fff" stroke="#ccc" stroke-miterlimit="10" stroke-width="1.071" opacity="0.7"/>
    </g>
    <g id="Group_35" data-name="Group 35" transform="translate(878.487 402.966)">
      <g id="Group_8" data-name="Group 8" transform="translate(585.866 330.923)">
        <rect id="Rectangle_11" data-name="Rectangle 11" width="50.041" height="50.041" transform="translate(26.172 21.94)" fill="#e1e1e1"/>
        <rect id="Rectangle_12" data-name="Rectangle 12" width="60.714" height="35.059" transform="translate(20.835 29.165)" fill="#e1e1e1"/>
        <rect id="Rectangle_13" data-name="Rectangle 13" width="26.243" height="16.145" transform="translate(38.071)" fill="#e1e1e1"/>
        <rect id="Rectangle_14" data-name="Rectangle 14" width="33.716" height="8.641" transform="translate(34.334 3.398)" fill="#e1e1e1"/>
        <g id="Group_6" data-name="Group 6" transform="translate(0.065 3.398)">
          <rect id="Rectangle_15" data-name="Rectangle 15" width="6.773" height="6.773" transform="translate(81.356 18.542)" fill="#e1e1e1"/>
          <rect id="Rectangle_16" data-name="Rectangle 16" width="5.46" height="18.542" transform="translate(88.334 0)" fill="#e1e1e1"/>
          <rect id="Rectangle_17" data-name="Rectangle 17" width="6.906" height="6.906" transform="translate(81.223 39.167)" fill="#e1e1e1"/>
          <rect id="Rectangle_18" data-name="Rectangle 18" width="7.141" height="7.14" transform="translate(88.128 32.026)" fill="#e1e1e1"/>
          <rect id="Rectangle_19" data-name="Rectangle 19" width="6.986" height="10.098" transform="translate(95.269 21.929)" fill="#e1e1e1"/>
          <rect id="Rectangle_20" data-name="Rectangle 20" width="6.773" height="6.773" transform="translate(20.9 25.315) rotate(180)" fill="#e1e1e1"/>
          <rect id="Rectangle_21" data-name="Rectangle 21" width="5.46" height="18.542" transform="translate(13.921 18.542) rotate(180)" fill="#e1e1e1"/>
          <rect id="Rectangle_22" data-name="Rectangle 22" width="6.906" height="6.906" transform="translate(21.032 46.072) rotate(180)" fill="#e1e1e1"/>
          <rect id="Rectangle_23" data-name="Rectangle 23" width="7.141" height="7.14" transform="translate(14.127 39.167) rotate(180)" fill="#e1e1e1"/>
          <rect id="Rectangle_24" data-name="Rectangle 24" width="6.986" height="10.098" transform="translate(6.986 32.026) rotate(180)" fill="#e1e1e1"/>
        </g>
        <g id="Group_7" data-name="Group 7" transform="translate(0 53.467)">
          <rect id="Rectangle_25" data-name="Rectangle 25" width="6.773" height="6.773" transform="translate(26.36 25.001) rotate(180)" fill="#e1e1e1"/>
          <rect id="Rectangle_26" data-name="Rectangle 26" width="5.46" height="18.542" transform="translate(19.381 43.543) rotate(180)" fill="#e1e1e1"/>
          <rect id="Rectangle_27" data-name="Rectangle 27" width="6.906" height="6.906" transform="translate(21.032 6.906) rotate(180)" fill="#e1e1e1"/>
          <rect id="Rectangle_28" data-name="Rectangle 28" width="7.14" height="7.14" transform="translate(14.127 14.046) rotate(180)" fill="#e1e1e1"/>
          <rect id="Rectangle_29" data-name="Rectangle 29" width="6.986" height="10.097" transform="translate(6.986 24.143) rotate(180)" fill="#e1e1e1"/>
          <rect id="Rectangle_30" data-name="Rectangle 30" width="6.773" height="6.773" transform="translate(76.148 18.228)" fill="#e1e1e1"/>
          <rect id="Rectangle_31" data-name="Rectangle 31" width="5.46" height="18.542" transform="translate(83.127 25.001)" fill="#e1e1e1"/>
          <rect id="Rectangle_32" data-name="Rectangle 32" width="6.906" height="6.906" transform="translate(81.223)" fill="#e1e1e1"/>
          <rect id="Rectangle_33" data-name="Rectangle 33" width="7.14" height="7.14" transform="translate(88.129 6.906)" fill="#e1e1e1"/>
          <rect id="Rectangle_34" data-name="Rectangle 34" width="6.986" height="10.097" transform="translate(95.398 14.046)" fill="#e1e1e1"/>
        </g>
      </g>
      <g id="Group_11" data-name="Group 11" transform="translate(286.846 139.699)">
        <rect id="Rectangle_35" data-name="Rectangle 35" width="50.041" height="50.041" transform="translate(26.171 21.94)" fill="#e1e1e1"/>
        <rect id="Rectangle_36" data-name="Rectangle 36" width="60.714" height="35.059" transform="translate(20.835 29.165)" fill="#e1e1e1"/>
        <rect id="Rectangle_37" data-name="Rectangle 37" width="26.243" height="16.145" transform="translate(38.071)" fill="#e1e1e1"/>
        <rect id="Rectangle_38" data-name="Rectangle 38" width="33.716" height="8.641" transform="translate(34.334 3.398)" fill="#e1e1e1"/>
        <g id="Group_9" data-name="Group 9" transform="translate(0.065 3.398)">
          <rect id="Rectangle_39" data-name="Rectangle 39" width="6.773" height="6.773" transform="translate(81.355 18.542)" fill="#e1e1e1"/>
          <rect id="Rectangle_40" data-name="Rectangle 40" width="5.46" height="18.542" transform="translate(88.334)" fill="#e1e1e1"/>
          <rect id="Rectangle_41" data-name="Rectangle 41" width="6.906" height="6.906" transform="translate(81.223 39.167)" fill="#e1e1e1"/>
          <rect id="Rectangle_42" data-name="Rectangle 42" width="7.141" height="7.14" transform="translate(88.128 32.026)" fill="#e1e1e1"/>
          <rect id="Rectangle_43" data-name="Rectangle 43" width="6.986" height="10.098" transform="translate(95.269 21.929)" fill="#e1e1e1"/>
          <rect id="Rectangle_44" data-name="Rectangle 44" width="6.773" height="6.773" transform="translate(20.9 25.315) rotate(180)" fill="#e1e1e1"/>
          <rect id="Rectangle_45" data-name="Rectangle 45" width="5.46" height="18.542" transform="translate(13.921 18.542) rotate(180)" fill="#e1e1e1"/>
          <rect id="Rectangle_46" data-name="Rectangle 46" width="6.906" height="6.906" transform="translate(21.032 46.072) rotate(180)" fill="#e1e1e1"/>
          <rect id="Rectangle_47" data-name="Rectangle 47" width="7.141" height="7.14" transform="translate(14.127 39.167) rotate(180)" fill="#e1e1e1"/>
          <rect id="Rectangle_48" data-name="Rectangle 48" width="6.986" height="10.098" transform="translate(6.986 32.026) rotate(180)" fill="#e1e1e1"/>
        </g>
        <g id="Group_10" data-name="Group 10" transform="translate(0 53.467)">
          <rect id="Rectangle_49" data-name="Rectangle 49" width="6.773" height="6.773" transform="translate(26.36 25.001) rotate(180)" fill="#e1e1e1"/>
          <rect id="Rectangle_50" data-name="Rectangle 50" width="5.46" height="18.542" transform="translate(19.381 43.543) rotate(180)" fill="#e1e1e1"/>
          <rect id="Rectangle_51" data-name="Rectangle 51" width="6.906" height="6.906" transform="translate(21.032 6.906) rotate(180)" fill="#e1e1e1"/>
          <rect id="Rectangle_52" data-name="Rectangle 52" width="7.14" height="7.14" transform="translate(14.127 14.046) rotate(180)" fill="#e1e1e1"/>
          <rect id="Rectangle_53" data-name="Rectangle 53" width="6.986" height="10.098" transform="translate(6.986 24.144) rotate(180)" fill="#e1e1e1"/>
          <rect id="Rectangle_54" data-name="Rectangle 54" width="6.773" height="6.773" transform="translate(76.148 18.228)" fill="#e1e1e1"/>
          <rect id="Rectangle_55" data-name="Rectangle 55" width="5.46" height="18.542" transform="translate(83.127 25.001)" fill="#e1e1e1"/>
          <rect id="Rectangle_56" data-name="Rectangle 56" width="6.906" height="6.906" transform="translate(81.223)" fill="#e1e1e1"/>
          <rect id="Rectangle_57" data-name="Rectangle 57" width="7.14" height="7.14" transform="translate(88.128 6.906)" fill="#e1e1e1"/>
          <rect id="Rectangle_58" data-name="Rectangle 58" width="6.986" height="10.098" transform="translate(95.398 14.046)" fill="#e1e1e1"/>
        </g>
      </g>
      <g id="Group_14" data-name="Group 14" transform="translate(298.782)">
        <rect id="Rectangle_59" data-name="Rectangle 59" width="31.434" height="31.434" transform="translate(16.44 13.782)" fill="#f0f0f0"/>
        <rect id="Rectangle_60" data-name="Rectangle 60" width="38.138" height="22.022" transform="translate(13.088 18.321)" fill="#f0f0f0"/>
        <rect id="Rectangle_61" data-name="Rectangle 61" width="16.485" height="10.142" transform="translate(23.914)" fill="#f0f0f0"/>
        <rect id="Rectangle_62" data-name="Rectangle 62" width="21.179" height="5.428" transform="translate(21.567 2.135)" fill="#f0f0f0"/>
        <g id="Group_12" data-name="Group 12" transform="translate(0.041 2.135)">
          <rect id="Rectangle_63" data-name="Rectangle 63" width="4.254" height="4.254" transform="translate(51.104 11.648)" fill="#f0f0f0"/>
          <rect id="Rectangle_64" data-name="Rectangle 64" width="3.43" height="11.648" transform="translate(55.488)" fill="#f0f0f0"/>
          <rect id="Rectangle_65" data-name="Rectangle 65" width="4.338" height="4.338" transform="translate(51.021 24.603)" fill="#f0f0f0"/>
          <rect id="Rectangle_66" data-name="Rectangle 66" width="4.485" height="4.485" transform="translate(55.359 20.118)" fill="#f0f0f0"/>
          <rect id="Rectangle_67" data-name="Rectangle 67" width="4.389" height="6.343" transform="translate(59.844 13.775)" fill="#f0f0f0"/>
          <rect id="Rectangle_68" data-name="Rectangle 68" width="4.254" height="4.254" transform="translate(13.128 15.902) rotate(180)" fill="#f0f0f0"/>
          <rect id="Rectangle_69" data-name="Rectangle 69" width="3.43" height="11.648" transform="translate(8.744 11.648) rotate(180)" fill="#f0f0f0"/>
          <rect id="Rectangle_70" data-name="Rectangle 70" width="4.338" height="4.338" transform="translate(13.211 28.941) rotate(180)" fill="#f0f0f0"/>
          <rect id="Rectangle_71" data-name="Rectangle 71" width="4.485" height="4.485" transform="translate(8.874 24.603) rotate(180)" fill="#f0f0f0"/>
          <rect id="Rectangle_72" data-name="Rectangle 72" width="4.388" height="6.343" transform="translate(4.388 20.118) rotate(180)" fill="#f0f0f0"/>
        </g>
        <g id="Group_13" data-name="Group 13" transform="translate(0 33.586)">
          <rect id="Rectangle_73" data-name="Rectangle 73" width="4.254" height="4.255" transform="translate(16.558 15.705) rotate(180)" fill="#f0f0f0"/>
          <rect id="Rectangle_74" data-name="Rectangle 74" width="3.43" height="11.647" transform="translate(12.174 27.352) rotate(180)" fill="#f0f0f0"/>
          <rect id="Rectangle_75" data-name="Rectangle 75" width="4.338" height="4.338" transform="translate(13.211 4.338) rotate(180)" fill="#f0f0f0"/>
          <rect id="Rectangle_76" data-name="Rectangle 76" width="4.485" height="4.485" transform="translate(8.874 8.823) rotate(180)" fill="#f0f0f0"/>
          <rect id="Rectangle_77" data-name="Rectangle 77" width="4.388" height="6.343" transform="translate(4.388 15.166) rotate(180)" fill="#f0f0f0"/>
          <rect id="Rectangle_78" data-name="Rectangle 78" width="4.254" height="4.255" transform="translate(47.833 11.45)" fill="#f0f0f0"/>
          <rect id="Rectangle_79" data-name="Rectangle 79" width="3.43" height="11.647" transform="translate(52.217 15.705)" fill="#f0f0f0"/>
          <rect id="Rectangle_80" data-name="Rectangle 80" width="4.338" height="4.338" transform="translate(51.021 0)" fill="#f0f0f0"/>
          <rect id="Rectangle_81" data-name="Rectangle 81" width="4.485" height="4.485" transform="translate(55.359 4.338)" fill="#f0f0f0"/>
          <rect id="Rectangle_82" data-name="Rectangle 82" width="4.388" height="6.343" transform="translate(59.925 8.823)" fill="#f0f0f0"/>
        </g>
      </g>
      <g id="Group_17" data-name="Group 17" transform="translate(24.938 19.018)">
        <rect id="Rectangle_83" data-name="Rectangle 83" width="19.504" height="19.504" transform="translate(10.201 8.551)" fill="#f0f0f0"/>
        <rect id="Rectangle_84" data-name="Rectangle 84" width="23.664" height="13.664" transform="translate(8.121 11.368)" fill="#f0f0f0"/>
        <rect id="Rectangle_85" data-name="Rectangle 85" width="10.228" height="6.293" transform="translate(14.838)" fill="#f0f0f0"/>
        <rect id="Rectangle_86" data-name="Rectangle 86" width="13.141" height="3.368" transform="translate(13.382 1.324)" fill="#f0f0f0"/>
        <g id="Group_15" data-name="Group 15" transform="translate(0.025 1.324)">
          <rect id="Rectangle_87" data-name="Rectangle 87" width="2.64" height="2.64" transform="translate(31.709 7.227)" fill="#f0f0f0"/>
          <rect id="Rectangle_88" data-name="Rectangle 88" width="2.128" height="7.227" transform="translate(34.429)" fill="#f0f0f0"/>
          <rect id="Rectangle_89" data-name="Rectangle 89" width="2.692" height="2.692" transform="translate(31.658 15.266)" fill="#f0f0f0"/>
          <rect id="Rectangle_90" data-name="Rectangle 90" width="2.783" height="2.783" transform="translate(34.349 12.483)" fill="#f0f0f0"/>
          <rect id="Rectangle_91" data-name="Rectangle 91" width="2.723" height="3.936" transform="translate(37.132 8.547)" fill="#f0f0f0"/>
          <rect id="Rectangle_92" data-name="Rectangle 92" width="2.64" height="2.64" transform="translate(8.146 9.867) rotate(180)" fill="#f0f0f0"/>
          <rect id="Rectangle_93" data-name="Rectangle 93" width="2.128" height="7.227" transform="translate(5.426 7.227) rotate(180)" fill="#f0f0f0"/>
          <rect id="Rectangle_94" data-name="Rectangle 94" width="2.692" height="2.692" transform="translate(8.198 17.957) rotate(180)" fill="#f0f0f0"/>
          <rect id="Rectangle_95" data-name="Rectangle 95" width="2.783" height="2.783" transform="translate(5.506 15.266) rotate(180)" fill="#f0f0f0"/>
          <rect id="Rectangle_96" data-name="Rectangle 96" width="2.723" height="3.936" transform="translate(2.723 12.483) rotate(180)" fill="#f0f0f0"/>
        </g>
        <g id="Group_16" data-name="Group 16" transform="translate(0 20.839)">
          <rect id="Rectangle_97" data-name="Rectangle 97" width="2.64" height="2.64" transform="translate(10.274 9.744) rotate(180)" fill="#f0f0f0"/>
          <rect id="Rectangle_98" data-name="Rectangle 98" width="2.128" height="7.227" transform="translate(7.554 16.971) rotate(180)" fill="#f0f0f0"/>
          <rect id="Rectangle_99" data-name="Rectangle 99" width="2.692" height="2.692" transform="translate(8.198 2.692) rotate(180)" fill="#f0f0f0"/>
          <rect id="Rectangle_100" data-name="Rectangle 100" width="2.783" height="2.783" transform="translate(5.506 5.475) rotate(180)" fill="#f0f0f0"/>
          <rect id="Rectangle_101" data-name="Rectangle 101" width="2.723" height="3.936" transform="translate(2.723 9.41) rotate(180)" fill="#f0f0f0"/>
          <rect id="Rectangle_102" data-name="Rectangle 102" width="2.64" height="2.64" transform="translate(29.68 7.105)" fill="#f0f0f0"/>
          <rect id="Rectangle_103" data-name="Rectangle 103" width="2.128" height="7.227" transform="translate(32.4 9.744)" fill="#f0f0f0"/>
          <rect id="Rectangle_104" data-name="Rectangle 104" width="2.691" height="2.692" transform="translate(31.658)" fill="#f0f0f0"/>
          <rect id="Rectangle_105" data-name="Rectangle 105" width="2.783" height="2.783" transform="translate(34.349 2.692)" fill="#f0f0f0"/>
          <rect id="Rectangle_106" data-name="Rectangle 106" width="2.723" height="3.936" transform="translate(37.182 5.475)" fill="#f0f0f0"/>
        </g>
      </g>
      <g id="Group_19" data-name="Group 19" transform="translate(0 185.173)">
        <rect id="Rectangle_107" data-name="Rectangle 107" width="67.216" height="47.793" transform="translate(0 26.934)" fill="#e1e1e1"/>
        <rect id="Rectangle_108" data-name="Rectangle 108" width="55.16" height="55.16" transform="translate(6.028 23.237)" fill="#e1e1e1"/>
        <g id="Group_18" data-name="Group 18" transform="translate(6.886)">
          <rect id="Rectangle_109" data-name="Rectangle 109" width="7.345" height="13.125" transform="translate(0 7.254)" fill="#e1e1e1"/>
          <rect id="Rectangle_110" data-name="Rectangle 110" width="7.345" height="13.125" transform="translate(46.1 7.254)" fill="#e1e1e1"/>
          <rect id="Rectangle_111" data-name="Rectangle 111" width="38.754" height="7.58" transform="translate(7.345)" fill="#e1e1e1"/>
        </g>
        <rect id="Rectangle_112" data-name="Rectangle 112" width="16.181" height="10.95" transform="translate(25.518 39.867)" fill="#fafafa"/>
        <rect id="Rectangle_113" data-name="Rectangle 113" width="5.801" height="16.828" transform="translate(30.708 46.852)" fill="#fafafa"/>
      </g>
      <g id="Group_21" data-name="Group 21" transform="translate(475.843 47.187)">
        <rect id="Rectangle_114" data-name="Rectangle 114" width="67.217" height="47.793" transform="translate(0 26.934)" fill="#e1e1e1"/>
        <rect id="Rectangle_115" data-name="Rectangle 115" width="55.16" height="55.16" transform="translate(6.028 23.237)" fill="#e1e1e1"/>
        <g id="Group_20" data-name="Group 20" transform="translate(6.886)">
          <rect id="Rectangle_116" data-name="Rectangle 116" width="7.345" height="13.125" transform="translate(0 7.254)" fill="#e1e1e1"/>
          <rect id="Rectangle_117" data-name="Rectangle 117" width="7.345" height="13.125" transform="translate(46.099 7.254)" fill="#e1e1e1"/>
          <rect id="Rectangle_118" data-name="Rectangle 118" width="38.754" height="7.58" transform="translate(7.345)" fill="#e1e1e1"/>
        </g>
        <rect id="Rectangle_119" data-name="Rectangle 119" width="16.181" height="10.95" transform="translate(25.518 39.867)" fill="#fafafa"/>
        <rect id="Rectangle_120" data-name="Rectangle 120" width="5.801" height="16.828" transform="translate(30.708 46.852)" fill="#fafafa"/>
      </g>
      <g id="Group_23" data-name="Group 23" transform="translate(478.157 435.269)">
        <rect id="Rectangle_121" data-name="Rectangle 121" width="67.216" height="47.793" transform="translate(0 26.934)" fill="#e1e1e1"/>
        <rect id="Rectangle_122" data-name="Rectangle 122" width="55.16" height="55.16" transform="translate(6.028 23.237)" fill="#e1e1e1"/>
        <g id="Group_22" data-name="Group 22" transform="translate(6.886)">
          <rect id="Rectangle_123" data-name="Rectangle 123" width="7.345" height="13.125" transform="translate(0 7.254)" fill="#e1e1e1"/>
          <rect id="Rectangle_124" data-name="Rectangle 124" width="7.345" height="13.125" transform="translate(46.1 7.254)" fill="#e1e1e1"/>
          <rect id="Rectangle_125" data-name="Rectangle 125" width="38.754" height="7.58" transform="translate(7.346)" fill="#e1e1e1"/>
        </g>
        <rect id="Rectangle_126" data-name="Rectangle 126" width="16.181" height="10.95" transform="translate(25.518 39.867)" fill="#fafafa"/>
        <rect id="Rectangle_127" data-name="Rectangle 127" width="5.801" height="16.828" transform="translate(30.708 46.852)" fill="#fafafa"/>
      </g>
      <g id="Group_25" data-name="Group 25" transform="translate(451.87 286.046)">
        <rect id="Rectangle_128" data-name="Rectangle 128" width="36.509" height="25.959" transform="translate(0 14.629)" fill="#f0f0f0"/>
        <rect id="Rectangle_129" data-name="Rectangle 129" width="29.96" height="29.96" transform="translate(3.274 12.621)" fill="#f0f0f0"/>
        <g id="Group_24" data-name="Group 24" transform="translate(3.74)">
          <rect id="Rectangle_130" data-name="Rectangle 130" width="3.99" height="7.129" transform="translate(0 3.94)" fill="#f0f0f0"/>
          <rect id="Rectangle_131" data-name="Rectangle 131" width="3.99" height="7.129" transform="translate(25.039 3.94)" fill="#f0f0f0"/>
          <rect id="Rectangle_132" data-name="Rectangle 132" width="21.049" height="4.117" transform="translate(3.99)" fill="#f0f0f0"/>
        </g>
        <rect id="Rectangle_133" data-name="Rectangle 133" width="8.788" height="5.948" transform="translate(13.86 21.654)" fill="#fff"/>
        <rect id="Rectangle_134" data-name="Rectangle 134" width="3.151" height="9.14" transform="translate(16.679 25.447)" fill="#fff"/>
      </g>
      <g id="Group_28" data-name="Group 28" transform="translate(142.64 24.794)">
        <g id="Group_26" data-name="Group 26">
          <rect id="Rectangle_135" data-name="Rectangle 135" width="56.525" height="70.949" transform="translate(11.689)" fill="#e1e1e1"/>
          <rect id="Rectangle_136" data-name="Rectangle 136" width="79.904" height="39.571" transform="translate(0 3.599)" fill="#e1e1e1"/>
          <rect id="Rectangle_137" data-name="Rectangle 137" width="70.57" height="24.75" transform="translate(4.667 34.824)" fill="#e1e1e1"/>
          <rect id="Rectangle_138" data-name="Rectangle 138" width="38.33" height="13.354" transform="translate(20.787 64.365)" fill="#e1e1e1"/>
          <rect id="Rectangle_139" data-name="Rectangle 139" width="10.167" height="10.85" transform="translate(34.868 73.278)" fill="#e1e1e1"/>
        </g>
        <g id="Group_27" data-name="Group 27" transform="translate(13.958 14.47)">
          <rect id="Rectangle_140" data-name="Rectangle 140" width="8.509" height="8.509" transform="translate(0 11.82)" fill="#fafafa"/>
          <rect id="Rectangle_141" data-name="Rectangle 141" width="8.705" height="8.705" transform="translate(8.509 20.654)" fill="#fafafa"/>
          <rect id="Rectangle_142" data-name="Rectangle 142" width="10.513" height="7.78" transform="translate(17.214 29.359)" fill="#fafafa"/>
          <rect id="Rectangle_143" data-name="Rectangle 143" width="7.854" height="11.068" transform="translate(27.727 18.344)" fill="#fafafa"/>
          <rect id="Rectangle_144" data-name="Rectangle 144" width="7.855" height="10.015" transform="translate(35.581 8.329)" fill="#fafafa"/>
          <rect id="Rectangle_145" data-name="Rectangle 145" width="8.552" height="8.552" transform="translate(43.436)" fill="#fafafa"/>
        </g>
      </g>
      <g id="Group_31" data-name="Group 31" transform="translate(649.683 44.864)">
        <g id="Group_29" data-name="Group 29">
          <rect id="Rectangle_146" data-name="Rectangle 146" width="35.045" height="43.988" transform="translate(7.247)" fill="#f0f0f0"/>
          <rect id="Rectangle_147" data-name="Rectangle 147" width="49.54" height="24.533" transform="translate(0 2.231)" fill="#f0f0f0"/>
          <rect id="Rectangle_148" data-name="Rectangle 148" width="43.752" height="15.344" transform="translate(2.894 21.59)" fill="#f0f0f0"/>
          <rect id="Rectangle_149" data-name="Rectangle 149" width="23.764" height="8.279" transform="translate(12.888 39.906)" fill="#f0f0f0"/>
          <rect id="Rectangle_150" data-name="Rectangle 150" width="6.303" height="6.727" transform="translate(21.618 45.431)" fill="#f0f0f0"/>
        </g>
        <g id="Group_30" data-name="Group 30" transform="translate(8.654 8.971)">
          <rect id="Rectangle_151" data-name="Rectangle 151" width="5.276" height="5.276" transform="translate(0 7.328)" fill="#fff"/>
          <rect id="Rectangle_152" data-name="Rectangle 152" width="5.397" height="5.397" transform="translate(5.276 12.806)" fill="#fff"/>
          <rect id="Rectangle_153" data-name="Rectangle 153" width="6.518" height="4.823" transform="translate(10.672 18.202)" fill="#fff"/>
          <rect id="Rectangle_154" data-name="Rectangle 154" width="4.87" height="6.862" transform="translate(17.19 11.373)" fill="#fff"/>
          <rect id="Rectangle_155" data-name="Rectangle 155" width="4.87" height="6.209" transform="translate(22.06 5.164)" fill="#fff"/>
          <rect id="Rectangle_156" data-name="Rectangle 156" width="5.302" height="5.302" transform="translate(26.93)" fill="#fff"/>
        </g>
      </g>
      <g id="Group_34" data-name="Group 34" transform="translate(359.246 460.456)">
        <g id="Group_32" data-name="Group 32">
          <rect id="Rectangle_157" data-name="Rectangle 157" width="24.666" height="30.961" transform="translate(5.101)" fill="#f0f0f0"/>
          <rect id="Rectangle_158" data-name="Rectangle 158" width="34.869" height="17.268" transform="translate(0 1.57)" fill="#f0f0f0"/>
          <rect id="Rectangle_159" data-name="Rectangle 159" width="30.795" height="10.8" transform="translate(2.037 15.196)" fill="#f0f0f0"/>
          <rect id="Rectangle_160" data-name="Rectangle 160" width="16.727" height="5.827" transform="translate(9.071 28.088)" fill="#f0f0f0"/>
          <rect id="Rectangle_161" data-name="Rectangle 161" width="4.437" height="4.735" transform="translate(15.216 31.977)" fill="#f0f0f0"/>
        </g>
        <g id="Group_33" data-name="Group 33" transform="translate(6.091 6.314)">
          <rect id="Rectangle_162" data-name="Rectangle 162" width="3.713" height="3.713" transform="translate(0 5.158)" fill="#fff"/>
          <rect id="Rectangle_163" data-name="Rectangle 163" width="3.799" height="3.799" transform="translate(3.713 9.013)" fill="#fff"/>
          <rect id="Rectangle_164" data-name="Rectangle 164" width="4.588" height="3.395" transform="translate(7.512 12.812)" fill="#fff"/>
          <rect id="Rectangle_165" data-name="Rectangle 165" width="3.428" height="4.83" transform="translate(12.099 8.005)" fill="#fff"/>
          <rect id="Rectangle_166" data-name="Rectangle 166" width="3.427" height="4.37" transform="translate(15.527 3.635)" fill="#fff"/>
          <rect id="Rectangle_167" data-name="Rectangle 167" width="3.732" height="3.732" transform="translate(18.954)" fill="#fff"/>
        </g>
      </g>
    </g>
    <ellipse id="_Path_" data-name="&lt;Path&gt;" cx="349.961" cy="20.438" rx="349.961" ry="20.438" transform="translate(892.117 1009.823)" fill="#f5f5f5"/>
    <g id="Group_45" data-name="Group 45" transform="translate(1490.662 861.375)">
      <g id="Group_36" data-name="Group 36" transform="translate(10.475 14.837)">
        <path id="Path_9" data-name="Path 9" d="M1440.132,860.6s11.457-9.551,21.28,0,11.719,68.725,11.719,68.725" transform="translate(-1437.142 -829.125)" fill="none" stroke="#007cff" stroke-miterlimit="10" stroke-width="1.643"/>
        <path id="Path_10" data-name="Path 10" d="M1470.984,942.031s-6.753-69.443,18.674-98.627" transform="translate(-1434.181 -830.401)" fill="none" stroke="#007cff" stroke-miterlimit="10" stroke-width="1.643"/>
        <path id="Path_11" data-name="Path 11" d="M1469.953,935.187s5.2-79.056-13.869-96.6" transform="translate(-1435.569 -830.876)" fill="none" stroke="#007cff" stroke-miterlimit="10" stroke-width="1.643"/>
        <path id="Path_12" data-name="Path 12" d="M1470.911,932.075s.444-52.24,14.615-60.362,21.4,18.366,21.4,18.366" transform="translate(-1434.108 -827.764)" fill="none" stroke="#007cff" stroke-miterlimit="10" stroke-width="1.643"/>
        <path id="Path_13" data-name="Path 13" d="M1468.616,931.862s2.311-40.105-8.669-54.438-22.537,6.14-22.537,6.14" transform="translate(-1437.41 -827.55)" fill="none" stroke="#007cff" stroke-miterlimit="10" stroke-width="1.643"/>
        <path id="Path_14" data-name="Path 14" d="M1469.49,941.25s-7.1-93.79,4.649-109.682" transform="translate(-1434.458 -831.568)" fill="none" stroke="#007cff" stroke-miterlimit="10" stroke-width="1.643"/>
      </g>
      <g id="Group_37" data-name="Group 37" transform="translate(68.673 60.666)">
        <path id="Path_15" data-name="Path 15" d="M1495.742,879.017s-7.066,2.6-4.965,8.756,24.445,16.272,24.445,16.272,9.359-8.578.763-22.527S1495.934,874.616,1495.742,879.017Z" transform="translate(-1490.387 -873.285)" fill="#007cff"/>
        <path id="Path_16" data-name="Path 16" d="M1495.742,879.017s-7.066,2.6-4.965,8.756,24.445,16.272,24.445,16.272,9.359-8.578.763-22.527S1495.934,874.616,1495.742,879.017Z" transform="translate(-1490.387 -873.285)" fill="#fff" opacity="0.5" style="isolation: isolate"/>
      </g>
      <g id="Group_38" data-name="Group 38" transform="translate(25.226 51.86)">
        <path id="Path_17" data-name="Path 17" d="M1468.921,868.1s7.525-.315,7.953,6.171-16.3,24.425-16.3,24.425-11.938-4.316-9.374-20.5S1467.052,864.111,1468.921,868.1Z" transform="translate(-1450.837 -865.269)" fill="#007cff"/>
        <path id="Path_18" data-name="Path 18" d="M1468.921,868.1s7.525-.315,7.953,6.171-16.3,24.425-16.3,24.425-11.938-4.316-9.374-20.5S1467.052,864.111,1468.921,868.1Z" transform="translate(-1450.837 -865.269)" fill="#fff" opacity="0.5" style="isolation: isolate"/>
      </g>
      <g id="Group_39" data-name="Group 39" transform="translate(10.782 14.837)">
        <path id="Path_19" data-name="Path 19" d="M1463.847,840.38s5.017-.539,4.613-3.594-19.5-10.921-30.77,1.8c0,0,7.215,12.393,17.644,12.555S1463.847,840.38,1463.847,840.38Z" transform="translate(-1437.69 -831.568)" fill="#007cff"/>
        <path id="Path_20" data-name="Path 20" d="M1463.847,840.38s5.017-.539,4.613-3.594-19.5-10.921-30.77,1.8c0,0,7.215,12.393,17.644,12.555S1463.847,840.38,1463.847,840.38Z" transform="translate(-1437.69 -831.568)" fill="#fff" opacity="0.5" style="isolation: isolate"/>
      </g>
      <g id="Group_40" data-name="Group 40" transform="translate(40.38 0)">
        <path id="Path_21" data-name="Path 21" d="M1470.54,834.29s-4.542,2.2-5.816-.611,10.775-19.582,27.064-14.748c0,0,.432,14.334-8.335,19.987S1470.54,834.29,1470.54,834.29Z" transform="translate(-1464.632 -818.062)" fill="#007cff"/>
        <path id="Path_22" data-name="Path 22" d="M1470.54,834.29s-4.542,2.2-5.816-.611,10.775-19.582,27.064-14.748c0,0,.432,14.334-8.335,19.987S1470.54,834.29,1470.54,834.29Z" transform="translate(-1464.632 -818.062)" fill="#fff" opacity="0.5" style="isolation: isolate"/>
      </g>
      <g id="Group_41" data-name="Group 41" transform="translate(0 59.286)">
        <path id="Path_23" data-name="Path 23" d="M1450.41,876.669s3.463-2.8-.273-4.16-22.071-.977-22.261,17.185c0,0,21.353,3.548,24-3.369S1450.41,876.669,1450.41,876.669Z" transform="translate(-1427.875 -872.029)" fill="#007cff"/>
        <path id="Path_24" data-name="Path 24" d="M1450.41,876.669s3.463-2.8-.273-4.16-22.071-.977-22.261,17.185c0,0,21.353,3.548,24-3.369S1450.41,876.669,1450.41,876.669Z" transform="translate(-1427.875 -872.029)" fill="#fff" opacity="0.5" style="isolation: isolate"/>
      </g>
      <g id="Group_42" data-name="Group 42" transform="translate(63.73 18.553)">
        <path id="Path_25" data-name="Path 25" d="M1488.236,839.59s-3.463-2.8.275-4.16,22.07-.977,22.261,17.185c0,0-21.354,3.548-24-3.369S1488.236,839.59,1488.236,839.59Z" transform="translate(-1485.887 -834.95)" fill="#007cff"/>
        <path id="Path_26" data-name="Path 26" d="M1488.236,839.59s-3.463-2.8.275-4.16,22.07-.977,22.261,17.185c0,0-21.354,3.548-24-3.369S1488.236,839.59,1488.236,839.59Z" transform="translate(-1485.887 -834.95)" fill="#fff" opacity="0.5" style="isolation: isolate"/>
      </g>
      <g id="Group_43" data-name="Group 43" transform="translate(48.4 35.448)">
        <path id="Path_27" data-name="Path 27" d="M1478.322,852.7s-.3-3.4,2.439-2.065,12.3,11.643,2.394,21.427c0,0-13.336-9.877-10.932-15.021S1478.322,852.7,1478.322,852.7Z" transform="translate(-1471.933 -850.329)" fill="#007cff"/>
        <path id="Path_28" data-name="Path 28" d="M1478.322,852.7s-.3-3.4,2.439-2.065,12.3,11.643,2.394,21.427c0,0-13.336-9.877-10.932-15.021S1478.322,852.7,1478.322,852.7Z" transform="translate(-1471.933 -850.329)" fill="#fff" opacity="0.5" style="isolation: isolate"/>
      </g>
      <g id="Group_44" data-name="Group 44" transform="translate(4.553 39.597)">
        <path id="Path_29" data-name="Path 29" d="M1446.907,857.175s2.07-2.712-.961-3.049-16.616,3.289-13.452,16.85c0,0,16.549-1.244,17.258-6.877S1446.907,857.175,1446.907,857.175Z" transform="translate(-1432.019 -854.106)" fill="#007cff"/>
        <path id="Path_30" data-name="Path 30" d="M1446.907,857.175s2.07-2.712-.961-3.049-16.616,3.289-13.452,16.85c0,0,16.549-1.244,17.258-6.877S1446.907,857.175,1446.907,857.175Z" transform="translate(-1432.019 -854.106)" fill="#fff" opacity="0.5" style="isolation: isolate"/>
      </g>
      <path id="Path_31" data-name="Path 31" d="M1502.108,977.924h-56.782l-6.126-62.169h69.034Z" transform="translate(-1426.759 -808.433)" fill="#1a2e35"/>
      <path id="Path_32" data-name="Path 32" d="M1502.108,977.924h-56.782l-6.126-62.169h69.034Z" transform="translate(-1426.759 -808.433)" fill="#fff" opacity="0.2" style="isolation: isolate"/>
      <rect id="Rectangle_168" data-name="Rectangle 168" width="75.097" height="13.718" transform="translate(9.41 100.464)" fill="#1a2e35"/>
      <rect id="Rectangle_169" data-name="Rectangle 169" width="75.097" height="13.718" transform="translate(9.41 100.464)" fill="#fff" opacity="0.4" style="isolation: isolate"/>
    </g>
    <g id="Group_48" data-name="Group 48" transform="translate(1397.755 532.838)">
      <g id="Group_46" data-name="Group 46" transform="translate(0 0)">
        <rect id="Rectangle_170" data-name="Rectangle 170" width="201.302" height="165.593" rx="3.762" transform="translate(0.001 0)" fill="#007cff"/>
        <path id="Path_33" data-name="Path 33" d="M1544.61,523.134v157.32a4.134,4.134,0,0,1-4.134,4.134H1347.437a4.133,4.133,0,0,1-4.134-4.134V523.134a4.144,4.144,0,0,1,4.134-4.133h193.039A4.145,4.145,0,0,1,1544.61,523.134Z" transform="translate(-1343.303 -519.001)" fill="#fff" opacity="0.6" style="isolation: isolate"/>
      </g>
      <rect id="Rectangle_171" data-name="Rectangle 171" width="192.733" height="144.108" transform="translate(4.286 16.835)" fill="#1a2e35"/>
      <g id="Group_47" data-name="Group 47" transform="translate(12.239 24.277)">
        <path id="Path_34" data-name="Path 34" d="M1362.022,551.617a1.353,1.353,0,1,0,1.6-2.18l-3.994-2.939,3.987-2.95a1.353,1.353,0,0,0-1.609-2.176l-5.462,4.039a1.354,1.354,0,0,0,0,2.18Z" transform="translate(-1354.291 -541.099)" fill="#fff" opacity="0.5"/>
        <path id="Path_35" data-name="Path 35" d="M1378.568,546.482l-3.986,2.947a1.353,1.353,0,0,0,1.608,2.177l5.463-4.039a1.352,1.352,0,0,0,0-2.178l-5.472-4.026a1.354,1.354,0,0,0-1.6,2.181Z" transform="translate(-1352.514 -541.099)" fill="#fff" opacity="0.5"/>
        <path id="Path_36" data-name="Path 36" d="M1367.1,551.8a1.352,1.352,0,0,0,1.728-.825l2.852-8.069a1.353,1.353,0,1,0-2.552-.9l-2.853,8.07A1.352,1.352,0,0,0,1367.1,551.8Z" transform="translate(-1353.285 -541.099)" fill="#fff" opacity="0.5"/>
        <path id="Path_37" data-name="Path 37" d="M1387.737,551.649h7.141a1.8,1.8,0,1,0,0-3.61h-7.141a1.8,1.8,0,0,0,0,3.61Z" transform="translate(-1351.34 -540.416)" fill="#fff" opacity="0.5"/>
        <path id="Path_38" data-name="Path 38" d="M1503.009,644.263h-111.69a1.8,1.8,0,1,0,0,3.609h111.69a1.8,1.8,0,1,0,0-3.609Z" transform="translate(-1350.987 -530.932)" fill="#fff" opacity="0.5"/>
        <path id="Path_39" data-name="Path 39" d="M1516.553,644.263h-13.807a1.8,1.8,0,1,0,0,3.609h13.807a1.8,1.8,0,1,0,0-3.609Z" transform="translate(-1340.005 -530.932)" fill="#fff"/>
        <path id="Path_40" data-name="Path 40" d="M1421.97,637.473h44.966a1.8,1.8,0,1,0,0-3.61H1421.97a1.8,1.8,0,0,0,0,3.61Z" transform="translate(-1347.966 -531.957)" fill="#fff"/>
        <path id="Path_41" data-name="Path 41" d="M1495.274,637.473a1.8,1.8,0,0,0,0-3.61h-25.5a1.8,1.8,0,0,0,0,3.61Z" transform="translate(-1343.255 -531.957)" fill="#fff" opacity="0.5"/>
        <path id="Path_42" data-name="Path 42" d="M1516.532,633.863h-13.572a1.8,1.8,0,0,0,0,3.61h13.572a1.8,1.8,0,0,0,0-3.61Z" transform="translate(-1339.984 -531.957)" fill="#fff" opacity="0.5"/>
        <path id="Path_43" data-name="Path 43" d="M1498.546,623.464H1438.4a1.8,1.8,0,0,0,0,3.61h60.146a1.8,1.8,0,0,0,0-3.61Z" transform="translate(-1346.347 -532.982)" fill="#fff"/>
        <path id="Path_44" data-name="Path 44" d="M1516.546,623.464h-13.721a1.8,1.8,0,0,0,0,3.61h13.721a1.8,1.8,0,1,0,0-3.61Z" transform="translate(-1339.997 -532.982)" fill="#fff"/>
        <path id="Path_45" data-name="Path 45" d="M1468.657,614.869a1.806,1.806,0,0,0-1.805-1.8H1405.54a1.8,1.8,0,1,0,0,3.61h61.312A1.806,1.806,0,0,0,1468.657,614.869Z" transform="translate(-1349.586 -534.007)" fill="#fff" opacity="0.5"/>
        <path id="Path_46" data-name="Path 46" d="M1471.471,613.064a1.8,1.8,0,0,0,0,3.61h23.785a1.8,1.8,0,1,0,0-3.61Z" transform="translate(-1343.088 -534.007)" fill="#fff" opacity="0.5"/>
        <path id="Path_47" data-name="Path 47" d="M1516.532,613.064h-13.563a1.8,1.8,0,1,0,0,3.61h13.563a1.8,1.8,0,1,0,0-3.61Z" transform="translate(-1339.983 -534.007)" fill="#fff"/>
        <path id="Path_48" data-name="Path 48" d="M1474.546,606.274h11.8a1.8,1.8,0,0,0,0-3.61h-11.8a1.8,1.8,0,1,0,0,3.61Z" transform="translate(-1342.784 -535.032)" fill="#fff"/>
        <path id="Path_49" data-name="Path 49" d="M1492.933,606.274h24.588a1.8,1.8,0,1,0,0-3.61h-24.588a1.8,1.8,0,0,0,0,3.61Z" transform="translate(-1340.972 -535.032)" fill="#fff" opacity="0.5"/>
        <path id="Path_50" data-name="Path 50" d="M1420.007,594.07a1.8,1.8,0,0,0-1.8-1.8h-61.953a1.8,1.8,0,0,0,0,3.61H1418.2A1.8,1.8,0,0,0,1420.007,594.07Z" transform="translate(-1354.444 -536.057)" fill="#fff"/>
        <path id="Path_51" data-name="Path 51" d="M1421.508,595.875h18.22a1.8,1.8,0,0,0,0-3.61h-18.22a1.8,1.8,0,0,0,0,3.61Z" transform="translate(-1348.012 -536.057)" fill="#fff" opacity="0.5"/>
        <path id="Path_52" data-name="Path 52" d="M1356.249,585.474H1379.7a1.8,1.8,0,0,0,0-3.61h-23.449a1.8,1.8,0,0,0,0,3.61Z" transform="translate(-1354.444 -537.082)" fill="#fff" opacity="0.5"/>
        <path id="Path_53" data-name="Path 53" d="M1462.865,583.669a1.8,1.8,0,0,0-1.805-1.8H1388.2a1.8,1.8,0,0,0,0,3.61h72.86A1.8,1.8,0,0,0,1462.865,583.669Z" transform="translate(-1351.295 -537.082)" fill="#fff"/>
        <path id="Path_54" data-name="Path 54" d="M1356.249,575.075h42.512a1.8,1.8,0,0,0,0-3.61h-42.512a1.8,1.8,0,1,0,0,3.61Z" transform="translate(-1354.444 -538.107)" fill="#fff"/>
        <path id="Path_55" data-name="Path 55" d="M1402.054,573.27a1.8,1.8,0,0,0,1.8,1.8h10.534a1.8,1.8,0,0,0,0-3.61h-10.534A1.8,1.8,0,0,0,1402.054,573.27Z" transform="translate(-1349.751 -538.107)" fill="#fff" opacity="0.5"/>
        <path id="Path_56" data-name="Path 56" d="M1356.249,564.675h50.2a1.8,1.8,0,1,0,0-3.61h-50.2a1.8,1.8,0,0,0,0,3.61Z" transform="translate(-1354.444 -539.132)" fill="#fff" opacity="0.5"/>
        <path id="Path_57" data-name="Path 57" d="M1435.9,564.675h38.512a1.8,1.8,0,0,0,0-3.61H1435.9a1.8,1.8,0,0,0,0,3.61Z" transform="translate(-1346.594 -539.132)" fill="#fff"/>
      </g>
      <path id="Path_58" data-name="Path 58" d="M1458.622,519v44.871a9.048,9.048,0,0,1-9.043,9.043H1343.3V523.134a4.144,4.144,0,0,1,4.134-4.133Z" transform="translate(-1343.303 -519.001)" opacity="0.2" style="isolation: isolate"/>
    </g>
    <g id="Group_51" data-name="Group 51" transform="translate(1276.967 406.888)">
      <g id="Group_49" data-name="Group 49" transform="translate(0)">
        <rect id="Rectangle_172" data-name="Rectangle 172" width="226.571" height="165.594" rx="3.762" transform="translate(0 0.002)" fill="#007cff"/>
        <path id="Path_59" data-name="Path 59" d="M1459.928,408.485V565.8a4.132,4.132,0,0,1-4.133,4.133H1237.486a4.121,4.121,0,0,1-4.133-4.133V408.485a4.133,4.133,0,0,1,4.133-4.134H1455.8A4.144,4.144,0,0,1,1459.928,408.485Z" transform="translate(-1233.352 -404.351)" fill="#fff" opacity="0.6" style="isolation: isolate"/>
      </g>
      <rect id="Rectangle_173" data-name="Rectangle 173" width="218.003" height="144.107" transform="translate(4.284 16.836)" fill="#1a2e35"/>
      <g id="Group_50" data-name="Group 50" transform="translate(12.238 24.277)">
        <path id="Path_60" data-name="Path 60" d="M1252.071,436.969a1.353,1.353,0,1,0,1.6-2.181l-3.994-2.939,3.987-2.949a1.353,1.353,0,0,0-1.609-2.176l-5.462,4.039a1.353,1.353,0,0,0,0,2.178Z" transform="translate(-1244.339 -426.449)" fill="#fff"/>
        <path id="Path_61" data-name="Path 61" d="M1268.616,431.832l-3.987,2.95a1.353,1.353,0,1,0,1.609,2.176l5.463-4.039a1.352,1.352,0,0,0,0-2.178l-5.473-4.026a1.353,1.353,0,0,0-1.6,2.181Z" transform="translate(-1242.562 -426.45)" fill="#fff"/>
        <path id="Path_62" data-name="Path 62" d="M1257.153,437.153a1.355,1.355,0,0,0,1.727-.825l2.853-8.07a1.353,1.353,0,1,0-2.552-.9l-2.853,8.069A1.354,1.354,0,0,0,1257.153,437.153Z" transform="translate(-1243.333 -426.449)" fill="#fff"/>
        <path id="Path_63" data-name="Path 63" d="M1277.785,437h7.141a1.8,1.8,0,0,0,0-3.61h-7.141a1.8,1.8,0,1,0,0,3.61Z" transform="translate(-1241.388 -425.766)" fill="#fff" opacity="0.5"/>
        <path id="Path_64" data-name="Path 64" d="M1362.077,450.027h9.648a1.8,1.8,0,0,0,0-3.61h-9.648a1.8,1.8,0,1,0,0,3.61Z" transform="translate(-1233.08 -424.482)" fill="#fff" opacity="0.5"/>
        <path id="Path_65" data-name="Path 65" d="M1266.819,448.222a1.806,1.806,0,0,0,1.805,1.8h90.25a1.8,1.8,0,1,0,0-3.61h-90.25A1.8,1.8,0,0,0,1266.819,448.222Z" transform="translate(-1242.291 -424.482)" fill="#fff"/>
        <path id="Path_66" data-name="Path 66" d="M1246.3,450.027H1260.1a1.8,1.8,0,0,0,0-3.61H1246.3a1.8,1.8,0,1,0,0,3.61Z" transform="translate(-1244.492 -424.482)" fill="#fff" opacity="0.5"/>
        <path id="Path_67" data-name="Path 67" d="M1334.652,460.426a1.8,1.8,0,0,0,0-3.61H1298.71a1.8,1.8,0,1,0,0,3.61Z" transform="translate(-1239.326 -423.457)" fill="#fff"/>
        <path id="Path_68" data-name="Path 68" d="M1268.626,460.426h25.5a1.8,1.8,0,0,0,0-3.61h-25.5a1.8,1.8,0,0,0,0,3.61Z" transform="translate(-1242.291 -423.457)" fill="#fff"/>
        <path id="Path_69" data-name="Path 69" d="M1246.3,460.426h13.571a1.8,1.8,0,0,0,0-3.61H1246.3a1.8,1.8,0,1,0,0,3.61Z" transform="translate(-1244.492 -423.457)" fill="#fff" opacity="0.5"/>
        <path id="Path_70" data-name="Path 70" d="M1321.387,469.021a1.8,1.8,0,0,0-1.805-1.8h-51.12a1.8,1.8,0,1,0,0,3.61h51.12A1.8,1.8,0,0,0,1321.387,469.021Z" transform="translate(-1242.307 -422.432)" fill="#fff"/>
        <path id="Path_71" data-name="Path 71" d="M1246.3,470.826h13.721a1.8,1.8,0,0,0,0-3.61H1246.3a1.8,1.8,0,1,0,0,3.61Z" transform="translate(-1244.492 -422.432)" fill="#fff" opacity="0.5"/>
        <path id="Path_72" data-name="Path 72" d="M1300.261,481.225h52.287a1.8,1.8,0,0,0,0-3.61h-52.287a1.8,1.8,0,0,0,0,3.61Z" transform="translate(-1239.173 -421.407)" fill="#fff"/>
        <path id="Path_73" data-name="Path 73" d="M1268.491,477.615a1.8,1.8,0,1,0,0,3.61h23.784a1.8,1.8,0,0,0,0-3.61Z" transform="translate(-1242.305 -421.407)" fill="#fff"/>
        <path id="Path_74" data-name="Path 74" d="M1246.3,481.225h13.563a1.8,1.8,0,1,0,0-3.61H1246.3a1.8,1.8,0,1,0,0,3.61Z" transform="translate(-1244.492 -421.407)" fill="#fff" opacity="0.5"/>
        <path id="Path_75" data-name="Path 75" d="M1288.123,488.015h-11.8a1.8,1.8,0,0,0,0,3.61h11.8a1.8,1.8,0,1,0,0-3.61Z" transform="translate(-1241.532 -420.382)" fill="#fff"/>
        <path id="Path_76" data-name="Path 76" d="M1270.885,488.015H1246.3a1.8,1.8,0,1,0,0,3.61h24.588a1.8,1.8,0,1,0,0-3.61Z" transform="translate(-1244.492 -420.382)" fill="#fff"/>
        <path id="Path_77" data-name="Path 77" d="M1338.947,500.221a1.806,1.806,0,0,0,1.8,1.8H1437a1.8,1.8,0,0,0,0-3.61h-96.248A1.8,1.8,0,0,0,1338.947,500.221Z" transform="translate(-1235.182 -419.357)" fill="#fff"/>
        <path id="Path_78" data-name="Path 78" d="M1315.3,498.416a1.8,1.8,0,0,0,0,3.61h18.22a1.8,1.8,0,0,0,0-3.61Z" transform="translate(-1237.69 -419.357)" fill="#fff" opacity="0.5"/>
        <path id="Path_79" data-name="Path 79" d="M1430.469,508.815H1407.02a1.8,1.8,0,1,0,0,3.61h23.449a1.8,1.8,0,0,0,0-3.61Z" transform="translate(-1228.651 -418.332)" fill="#fff" opacity="0.5"/>
        <path id="Path_80" data-name="Path 80" d="M1407.024,510.62a1.806,1.806,0,0,0-1.8-1.8h-98.13a1.8,1.8,0,0,0,0,3.61h98.13A1.806,1.806,0,0,0,1407.024,510.62Z" transform="translate(-1238.5 -418.332)" fill="#fff"/>
        <path id="Path_81" data-name="Path 81" d="M1432.179,519.215h-42.511a1.8,1.8,0,0,0,0,3.61h42.511a1.8,1.8,0,0,0,0-3.61Z" transform="translate(-1230.361 -417.307)" fill="#fff"/>
        <path id="Path_82" data-name="Path 82" d="M1371.166,519.215a1.8,1.8,0,1,0,0,3.61H1381.7a1.8,1.8,0,1,0,0-3.61Z" transform="translate(-1232.185 -417.307)" fill="#fff" opacity="0.5"/>
        <path id="Path_83" data-name="Path 83" d="M1435.946,529.614h-84.495a1.8,1.8,0,0,0,0,3.61h84.495a1.8,1.8,0,0,0,0-3.61Z" transform="translate(-1234.128 -416.282)" fill="#fff"/>
        <path id="Path_84" data-name="Path 84" d="M1320.144,529.614h-29.487a1.8,1.8,0,0,0,0,3.61h29.487a1.8,1.8,0,0,0,0-3.61Z" transform="translate(-1240.12 -416.282)" fill="#fff"/>
      </g>
      <path id="Path_85" data-name="Path 85" d="M1354.14,469.938v94.327H1237.486a4.121,4.121,0,0,1-4.133-4.133V461.906h112.755A8.026,8.026,0,0,1,1354.14,469.938Z" transform="translate(-1233.352 -398.678)" opacity="0.2" style="isolation: isolate"/>
    </g>
    <g id="Group_54" data-name="Group 54" transform="translate(1121.998 477.095)">
      <g id="Group_52" data-name="Group 52" transform="translate(0)">
        <rect id="Rectangle_174" data-name="Rectangle 174" width="260.865" height="165.594" rx="3.762" fill="#007cff"/>
        <rect id="Rectangle_175" data-name="Rectangle 175" width="260.865" height="165.594" rx="3.762" fill="#fff" opacity="0.6" style="isolation: isolate"/>
      </g>
      <rect id="Rectangle_176" data-name="Rectangle 176" width="252.297" height="144.107" transform="translate(4.284 16.835)" fill="#1a2e35"/>
      <g id="Group_53" data-name="Group 53" transform="translate(12.238 24.099)">
        <path id="Path_86" data-name="Path 86" d="M1145.6,511.11h-40.371a1.8,1.8,0,0,0,0,3.61H1145.6a1.8,1.8,0,0,0,0-3.61Z" transform="translate(-1103.427 -488.134)" fill="#fff"/>
        <path id="Path_87" data-name="Path 87" d="M1145.117,521.363h-34.956a1.8,1.8,0,1,0,0,3.61h34.956a1.8,1.8,0,0,0,0-3.61Z" transform="translate(-1102.941 -487.124)" fill="#fff"/>
        <path id="Path_88" data-name="Path 88" d="M1145.6,531.615h-40.371a1.8,1.8,0,0,0,0,3.61H1145.6a1.8,1.8,0,0,0,0-3.61Z" transform="translate(-1103.427 -486.113)" fill="#fff" opacity="0.5"/>
        <path id="Path_89" data-name="Path 89" d="M1144.146,541.867h-24.127a1.8,1.8,0,0,0,0,3.61h24.127a1.8,1.8,0,0,0,0-3.61Z" transform="translate(-1101.97 -485.103)" fill="#fff"/>
        <path id="Path_90" data-name="Path 90" d="M1145.6,552.119h-40.371a1.8,1.8,0,0,0,0,3.61H1145.6a1.8,1.8,0,0,0,0-3.61Z" transform="translate(-1103.427 -484.092)" fill="#fff"/>
        <path id="Path_91" data-name="Path 91" d="M1144.955,562.371H1111.8a1.8,1.8,0,0,0,0,3.61h33.151a1.8,1.8,0,0,0,0-3.61Z" transform="translate(-1102.779 -483.082)" fill="#fff"/>
        <path id="Path_92" data-name="Path 92" d="M1144.955,572.623H1111.8a1.8,1.8,0,0,0,0,3.61h33.151a1.8,1.8,0,0,0,0-3.61Z" transform="translate(-1102.779 -482.072)" fill="#fff"/>
        <path id="Path_93" data-name="Path 93" d="M1145.279,582.875h-36.761a1.8,1.8,0,0,0,0,3.61h36.761a1.8,1.8,0,0,0,0-3.61Z" transform="translate(-1103.103 -481.061)" fill="#fff"/>
        <path id="Path_94" data-name="Path 94" d="M1144.146,593.127h-24.127a1.8,1.8,0,0,0,0,3.61h24.127a1.8,1.8,0,0,0,0-3.61Z" transform="translate(-1101.97 -480.051)" fill="#fff" opacity="0.5"/>
        <path id="Path_95" data-name="Path 95" d="M1144.631,500.859H1115.09a1.8,1.8,0,0,0,0,3.61h29.542a1.8,1.8,0,0,0,0-3.61Z" transform="translate(-1102.455 -489.145)" fill="#fff" opacity="0.5"/>
        <path id="Path_96" data-name="Path 96" d="M1145.6,490.606h-40.371a1.8,1.8,0,0,0,0,3.61H1145.6a1.8,1.8,0,0,0,0-3.61Z" transform="translate(-1103.427 -490.155)" fill="#fff"/>
        <path id="Path_97" data-name="Path 97" d="M1145.6,603.379h-40.371a1.8,1.8,0,1,0,0,3.61H1145.6a1.8,1.8,0,1,0,0-3.61Z" transform="translate(-1103.427 -479.04)" fill="#fff"/>
        <rect id="Rectangle_177" data-name="Rectangle 177" width="7.883" height="4.512" transform="translate(55.953 22.525)" fill="#fff" opacity="0.5"/>
        <rect id="Rectangle_178" data-name="Rectangle 178" width="7.883" height="4.512" transform="translate(55.953 33.787)" fill="#fff" opacity="0.5"/>
        <rect id="Rectangle_179" data-name="Rectangle 179" width="7.883" height="4.512" transform="translate(55.953 45.051)" fill="#fff" opacity="0.5"/>
        <rect id="Rectangle_180" data-name="Rectangle 180" width="7.883" height="4.512" transform="translate(55.953 56.313)" fill="#fff" opacity="0.5"/>
        <rect id="Rectangle_181" data-name="Rectangle 181" width="7.883" height="4.512" transform="translate(55.953 67.576)" fill="#fff" opacity="0.5"/>
        <rect id="Rectangle_182" data-name="Rectangle 182" width="7.883" height="4.512" transform="translate(55.953 78.838)" fill="#fff" opacity="0.5"/>
        <rect id="Rectangle_183" data-name="Rectangle 183" width="7.883" height="4.512" transform="translate(55.953 90.101)" fill="#fff" opacity="0.5"/>
        <rect id="Rectangle_184" data-name="Rectangle 184" width="7.883" height="4.512" transform="translate(55.953 101.363)" fill="#fff" opacity="0.5"/>
        <rect id="Rectangle_185" data-name="Rectangle 185" width="7.883" height="4.512" transform="translate(55.953 112.626)" fill="#fff" opacity="0.5"/>
        <rect id="Rectangle_186" data-name="Rectangle 186" width="7.883" height="4.512" transform="translate(55.953 11.263)" fill="#fff" opacity="0.5"/>
        <rect id="Rectangle_187" data-name="Rectangle 187" width="7.883" height="4.512" transform="translate(55.953)" fill="#fff" opacity="0.5"/>
        <rect id="Rectangle_188" data-name="Rectangle 188" width="7.883" height="4.512" transform="translate(55.953 123.888)" fill="#fff" opacity="0.5"/>
        <path id="Path_98" data-name="Path 98" d="M1198.721,512.915a1.8,1.8,0,0,0,1.805,1.8h130.62a1.8,1.8,0,0,0,0-3.61h-130.62A1.806,1.806,0,0,0,1198.721,512.915Z" transform="translate(-1094.035 -488.134)" fill="#fff"/>
        <path id="Path_99" data-name="Path 99" d="M1325.845,521.363h-71.534a1.8,1.8,0,0,0,0,3.61h71.534a1.8,1.8,0,0,0,0-3.61Z" transform="translate(-1088.734 -487.124)" fill="#fff"/>
        <path id="Path_100" data-name="Path 100" d="M1240.853,521.363H1218.6a1.8,1.8,0,0,0,0,3.61h22.254a1.8,1.8,0,0,0,0-3.61Z" transform="translate(-1092.253 -487.124)" fill="#fff" opacity="0.5"/>
        <path id="Path_101" data-name="Path 101" d="M1288.9,531.615h-99.269a1.8,1.8,0,0,0,0,3.61H1288.9a1.8,1.8,0,0,0,0-3.61Z" transform="translate(-1095.108 -486.113)" fill="#fff"/>
        <path id="Path_102" data-name="Path 102" d="M1170.952,535.225h7.038a1.8,1.8,0,0,0,0-3.61h-7.038a1.8,1.8,0,0,0,0,3.61Z" transform="translate(-1096.95 -486.113)" fill="#fff" opacity="0.5"/>
        <path id="Path_103" data-name="Path 103" d="M1299.912,543.672a1.805,1.805,0,0,0-1.8-1.8h-92a1.8,1.8,0,0,0,0,3.61h92A1.8,1.8,0,0,0,1299.912,543.672Z" transform="translate(-1093.484 -485.103)" fill="#fff"/>
        <path id="Path_104" data-name="Path 104" d="M1170.952,545.477h25.969a1.8,1.8,0,0,0,0-3.61h-25.969a1.8,1.8,0,0,0,0,3.61Z" transform="translate(-1096.95 -485.103)" fill="#fff"/>
        <path id="Path_105" data-name="Path 105" d="M1170.952,555.729h98.13a1.8,1.8,0,1,0,0-3.61h-98.13a1.8,1.8,0,0,0,0,3.61Z" transform="translate(-1096.95 -484.092)" fill="#fff"/>
        <path id="Path_106" data-name="Path 106" d="M1228.74,562.371a1.8,1.8,0,0,0,0,3.61h50.892a1.8,1.8,0,0,0,0-3.61Z" transform="translate(-1091.254 -483.082)" fill="#fff"/>
        <path id="Path_107" data-name="Path 107" d="M1170.952,565.981H1215a1.8,1.8,0,0,0,0-3.61h-44.047a1.8,1.8,0,0,0,0,3.61Z" transform="translate(-1096.95 -483.082)" fill="#fff"/>
        <path id="Path_108" data-name="Path 108" d="M1330.174,572.623H1210.385a1.8,1.8,0,1,0,0,3.61h119.789a1.8,1.8,0,0,0,0-3.61Z" transform="translate(-1093.063 -482.072)" fill="#fff"/>
        <path id="Path_109" data-name="Path 109" d="M1328.717,582.875H1225.172a1.8,1.8,0,1,0,0,3.61h103.545a1.8,1.8,0,0,0,0-3.61Z" transform="translate(-1091.605 -481.061)" fill="#fff"/>
        <path id="Path_110" data-name="Path 110" d="M1321.337,593.127h-21.292a1.8,1.8,0,1,0,0,3.61h21.292a1.8,1.8,0,0,0,0-3.61Z" transform="translate(-1084.226 -480.051)" fill="#fff" opacity="0.5"/>
        <path id="Path_111" data-name="Path 111" d="M1293.5,593.127h-78.186a1.8,1.8,0,0,0,0,3.61H1293.5a1.8,1.8,0,0,0,0-3.61Z" transform="translate(-1092.577 -480.051)" fill="#fff"/>
        <path id="Path_112" data-name="Path 112" d="M1170.952,504.469h83.691a1.8,1.8,0,0,0,0-3.61h-83.691a1.8,1.8,0,0,0,0,3.61Z" transform="translate(-1096.95 -489.145)" fill="#fff"/>
        <path id="Path_113" data-name="Path 113" d="M1170.952,494.216h130.62a1.8,1.8,0,0,0,0-3.61h-130.62a1.8,1.8,0,0,0,0,3.61Z" transform="translate(-1096.95 -490.155)" fill="#fff"/>
        <path id="Path_114" data-name="Path 114" d="M1286.612,603.379h-55.439a1.8,1.8,0,0,0,0,3.61h55.439a1.8,1.8,0,1,0,0-3.61Z" transform="translate(-1091.014 -479.04)" fill="#fff"/>
        <path id="Path_115" data-name="Path 115" d="M1221.381,603.379h-50.429a1.8,1.8,0,1,0,0,3.61h50.429a1.8,1.8,0,1,0,0-3.61Z" transform="translate(-1096.95 -479.04)" fill="#fff" opacity="0.5"/>
        <path id="Path_116" data-name="Path 116" d="M1264.621,504.469a1.8,1.8,0,1,0,0-3.61h-6.5a1.8,1.8,0,0,0,0,3.61Z" transform="translate(-1088.358 -489.145)" fill="#fff" opacity="0.5"/>
        <path id="Path_117" data-name="Path 117" d="M1192.975,512.915a1.806,1.806,0,0,0-1.805-1.8h-8.718a1.8,1.8,0,0,0,0,3.61h8.718A1.8,1.8,0,0,0,1192.975,512.915Z" transform="translate(-1095.816 -488.134)" fill="#fff" opacity="0.5"/>
        <path id="Path_118" data-name="Path 118" d="M1283.644,553.924a1.805,1.805,0,0,0-1.8-1.8h-9.54a1.8,1.8,0,0,0,0,3.61h9.54A1.8,1.8,0,0,0,1283.644,553.924Z" transform="translate(-1086.961 -484.092)" fill="#fff" opacity="0.5"/>
        <path id="Path_119" data-name="Path 119" d="M1311.758,545.477a1.8,1.8,0,1,0,0-3.61h-7.734a1.8,1.8,0,0,0,0,3.61Z" transform="translate(-1083.834 -485.103)" fill="#fff" opacity="0.5"/>
        <path id="Path_120" data-name="Path 120" d="M1197.176,572.623a1.8,1.8,0,1,0,0,3.61h7.776a1.8,1.8,0,0,0,0-3.61Z" transform="translate(-1094.365 -482.072)" fill="#fff" opacity="0.5"/>
      </g>
    </g>
    <g id="Group_58" data-name="Group 58" transform="translate(976.983 565.984)">
      <rect id="Rectangle_189" data-name="Rectangle 189" width="71.965" height="44.564" rx="5.588" transform="translate(0 0)" fill="#007cff"/>
      <path id="Path_121" data-name="Path 121" d="M1002.964,587.676s2.722,12.447,18.618,17.251c0,0-8.279-7.474-6.407-17.251Z" transform="translate(-956.075 -545.378)" fill="#007cff"/>
      <g id="Group_55" data-name="Group 55" transform="translate(6.867 6.956)">
        <path id="Path_122" data-name="Path 122" d="M969.065,555.562v7.48H968.3v-6.8h-1.763v-.683Z" transform="translate(-966.533 -555.498)" fill="#fff"/>
        <path id="Path_123" data-name="Path 123" d="M970.461,559.307c0-2.383,1.25-3.8,2.98-3.8s2.992,1.42,2.992,3.8-1.26,3.805-2.992,3.805S970.461,561.691,970.461,559.307Zm5.182,0c0-2-.9-3.1-2.2-3.1s-2.2,1.1-2.2,3.1.9,3.1,2.2,3.1S975.643,561.307,975.643,559.307Z" transform="translate(-966.146 -555.504)" fill="#fff"/>
        <path id="Path_124" data-name="Path 124" d="M976.9,559.307c0-2.383,1.25-3.8,2.982-3.8s2.993,1.42,2.993,3.8-1.261,3.805-2.993,3.805S976.9,561.691,976.9,559.307Zm5.183,0c0-2-.9-3.1-2.2-3.1s-2.2,1.1-2.2,3.1.9,3.1,2.2,3.1S982.08,561.307,982.08,559.307Z" transform="translate(-965.511 -555.504)" fill="#fff"/>
        <path id="Path_125" data-name="Path 125" d="M985.43,555.562v7.48h-.77v-6.8H982.9v-.683Z" transform="translate(-964.92 -555.498)" fill="#fff"/>
        <path id="Path_126" data-name="Path 126" d="M988.939,555.562v7.48h-.769v-6.8h-1.763v-.683Z" transform="translate(-964.574 -555.498)" fill="#fff"/>
        <path id="Path_127" data-name="Path 127" d="M990.335,559.307c0-2.383,1.25-3.8,2.981-3.8s2.991,1.42,2.991,3.8-1.26,3.805-2.991,3.805S990.335,561.691,990.335,559.307Zm5.183,0c0-2-.9-3.1-2.2-3.1s-2.2,1.1-2.2,3.1.9,3.1,2.2,3.1S995.518,561.307,995.518,559.307Z" transform="translate(-964.187 -555.504)" fill="#fff"/>
        <path id="Path_128" data-name="Path 128" d="M998.867,555.562v7.48h-.77v-6.8h-1.763v-.683Z" transform="translate(-963.596 -555.498)" fill="#fff"/>
        <path id="Path_129" data-name="Path 129" d="M1000.262,559.307c0-2.383,1.25-3.8,2.981-3.8s2.991,1.42,2.991,3.8-1.26,3.805-2.991,3.805S1000.262,561.691,1000.262,559.307Zm5.183,0c0-2-.9-3.1-2.2-3.1s-2.2,1.1-2.2,3.1.9,3.1,2.2,3.1S1005.445,561.307,1005.445,559.307Z" transform="translate(-963.209 -555.504)" fill="#fff"/>
        <path id="Path_130" data-name="Path 130" d="M1006.7,559.307c0-2.383,1.25-3.8,2.982-3.8s2.992,1.42,2.992,3.8-1.261,3.805-2.992,3.805S1006.7,561.691,1006.7,559.307Zm5.183,0c0-2-.9-3.1-2.2-3.1s-2.2,1.1-2.2,3.1.9,3.1,2.2,3.1S1011.882,561.307,1011.882,559.307Z" transform="translate(-962.574 -555.504)" fill="#fff"/>
        <path id="Path_131" data-name="Path 131" d="M1015.231,555.562v7.48h-.769v-6.8H1012.7v-.683Z" transform="translate(-961.983 -555.498)" fill="#fff"/>
        <path id="Path_132" data-name="Path 132" d="M1018.741,555.562v7.48h-.77v-6.8h-1.763v-.683Z" transform="translate(-961.637 -555.498)" fill="#fff"/>
      </g>
      <g id="Group_56" data-name="Group 56" transform="translate(7.326 17.785)">
        <path id="Path_133" data-name="Path 133" d="M966.951,569.166c0-2.384,1.25-3.8,2.982-3.8s2.991,1.42,2.991,3.8-1.26,3.8-2.991,3.8S966.951,571.549,966.951,569.166Zm5.183,0c0-2-.9-3.1-2.2-3.1s-2.2,1.1-2.2,3.1.9,3.1,2.2,3.1S972.134,571.165,972.134,569.166Z" transform="translate(-966.951 -565.362)" fill="#fff"/>
        <path id="Path_134" data-name="Path 134" d="M973.388,569.166c0-2.384,1.249-3.8,2.98-3.8s2.993,1.42,2.993,3.8-1.26,3.8-2.993,3.8S973.388,571.549,973.388,569.166Zm5.182,0c0-2-.9-3.1-2.2-3.1s-2.2,1.1-2.2,3.1.9,3.1,2.2,3.1S978.57,571.165,978.57,569.166Z" transform="translate(-966.317 -565.362)" fill="#fff"/>
        <path id="Path_135" data-name="Path 135" d="M981.919,565.42v7.48h-.769v-6.8h-1.764v-.683Z" transform="translate(-965.725 -565.356)" fill="#fff"/>
        <path id="Path_136" data-name="Path 136" d="M985.43,565.42v7.48h-.77v-6.8H982.9v-.683Z" transform="translate(-965.379 -565.356)" fill="#fff"/>
        <path id="Path_137" data-name="Path 137" d="M986.826,569.166c0-2.384,1.249-3.8,2.98-3.8s2.991,1.42,2.991,3.8-1.26,3.8-2.991,3.8S986.826,571.549,986.826,569.166Zm5.182,0c0-2-.9-3.1-2.2-3.1s-2.2,1.1-2.2,3.1.9,3.1,2.2,3.1S992.008,571.165,992.008,569.166Z" transform="translate(-964.992 -565.362)" fill="#fff"/>
        <path id="Path_138" data-name="Path 138" d="M995.357,565.42v7.48h-.77v-6.8h-1.763v-.683Z" transform="translate(-964.401 -565.356)" fill="#fff"/>
        <path id="Path_139" data-name="Path 139" d="M996.753,569.166c0-2.384,1.249-3.8,2.98-3.8s2.991,1.42,2.991,3.8-1.26,3.8-2.991,3.8S996.753,571.549,996.753,569.166Zm5.182,0c0-2-.9-3.1-2.2-3.1s-2.2,1.1-2.2,3.1.9,3.1,2.2,3.1S1001.935,571.165,1001.935,569.166Z" transform="translate(-964.014 -565.362)" fill="#fff"/>
        <path id="Path_140" data-name="Path 140" d="M1003.188,569.166c0-2.384,1.251-3.8,2.981-3.8s2.993,1.42,2.993,3.8-1.26,3.8-2.993,3.8S1003.188,571.549,1003.188,569.166Zm5.183,0c0-2-.9-3.1-2.2-3.1s-2.2,1.1-2.2,3.1.9,3.1,2.2,3.1S1008.371,571.165,1008.371,569.166Z" transform="translate(-963.379 -565.362)" fill="#fff"/>
        <path id="Path_141" data-name="Path 141" d="M1011.72,565.42v7.48h-.769v-6.8h-1.763v-.683Z" transform="translate(-962.788 -565.356)" fill="#fff"/>
        <path id="Path_142" data-name="Path 142" d="M1015.231,565.42v7.48h-.769v-6.8H1012.7v-.683Z" transform="translate(-962.442 -565.356)" fill="#fff"/>
        <path id="Path_143" data-name="Path 143" d="M1018.741,565.42v7.48h-.77v-6.8h-1.763v-.683Z" transform="translate(-962.096 -565.356)" fill="#fff"/>
      </g>
      <g id="Group_57" data-name="Group 57" transform="translate(6.867 28.615)">
        <path id="Path_144" data-name="Path 144" d="M969.065,575.278v7.48H968.3v-6.8h-1.763v-.683Z" transform="translate(-966.533 -575.214)" fill="#fff"/>
        <path id="Path_145" data-name="Path 145" d="M972.575,575.278v7.48h-.769v-6.8h-1.764v-.683Z" transform="translate(-966.187 -575.214)" fill="#fff"/>
        <path id="Path_146" data-name="Path 146" d="M973.97,579.024c0-2.384,1.251-3.8,2.982-3.8s2.992,1.42,2.992,3.8-1.26,3.8-2.992,3.8S973.97,581.407,973.97,579.024Zm5.183,0c0-2-.9-3.1-2.2-3.1s-2.2,1.1-2.2,3.1.9,3.1,2.2,3.1S979.153,581.023,979.153,579.024Z" transform="translate(-965.8 -575.22)" fill="#fff"/>
        <path id="Path_147" data-name="Path 147" d="M980.408,579.024c0-2.384,1.25-3.8,2.981-3.8s2.991,1.42,2.991,3.8-1.26,3.8-2.991,3.8S980.408,581.407,980.408,579.024Zm5.183,0c0-2-.9-3.1-2.2-3.1s-2.2,1.1-2.2,3.1.9,3.1,2.2,3.1S985.591,581.023,985.591,579.024Z" transform="translate(-965.165 -575.22)" fill="#fff"/>
        <path id="Path_148" data-name="Path 148" d="M988.939,575.278v7.48h-.769v-6.8h-1.763v-.683Z" transform="translate(-964.574 -575.214)" fill="#fff"/>
        <path id="Path_149" data-name="Path 149" d="M992.449,575.278v7.48h-.769v-6.8h-1.763v-.683Z" transform="translate(-964.228 -575.214)" fill="#fff"/>
        <path id="Path_150" data-name="Path 150" d="M993.845,579.024c0-2.384,1.25-3.8,2.982-3.8s2.991,1.42,2.991,3.8-1.26,3.8-2.991,3.8S993.845,581.407,993.845,579.024Zm5.183,0c0-2-.9-3.1-2.2-3.1s-2.2,1.1-2.2,3.1.9,3.1,2.2,3.1S999.028,581.023,999.028,579.024Z" transform="translate(-963.841 -575.22)" fill="#fff"/>
        <path id="Path_151" data-name="Path 151" d="M1000.281,579.024c0-2.384,1.25-3.8,2.981-3.8s2.993,1.42,2.993,3.8-1.261,3.8-2.993,3.8S1000.281,581.407,1000.281,579.024Zm5.183,0c0-2-.9-3.1-2.2-3.1s-2.2,1.1-2.2,3.1.9,3.1,2.2,3.1S1005.464,581.023,1005.464,579.024Z" transform="translate(-963.207 -575.22)" fill="#fff"/>
        <path id="Path_152" data-name="Path 152" d="M1008.814,575.278v7.48h-.77v-6.8h-1.763v-.683Z" transform="translate(-962.615 -575.214)" fill="#fff"/>
        <path id="Path_153" data-name="Path 153" d="M1010.21,579.024c0-2.384,1.249-3.8,2.98-3.8s2.993,1.42,2.993,3.8-1.261,3.8-2.993,3.8S1010.21,581.407,1010.21,579.024Zm5.182,0c0-2-.9-3.1-2.2-3.1s-2.2,1.1-2.2,3.1.9,3.1,2.2,3.1S1015.392,581.023,1015.392,579.024Z" transform="translate(-962.228 -575.22)" fill="#fff"/>
        <path id="Path_154" data-name="Path 154" d="M1018.741,575.278v7.48h-.77v-6.8h-1.763v-.683Z" transform="translate(-961.637 -575.214)" fill="#fff"/>
      </g>
    </g>
    <g id="Group_60" data-name="Group 60" transform="translate(884.637 710.971)">
      <path id="Path_155" data-name="Path 155" d="M916.863,943.377l49.642-4.879V868.733h19.674v69.745l49.843,4.9a9.664,9.664,0,0,1,8.719,9.618v7.455h-136.6v-7.455A9.664,9.664,0,0,1,916.863,943.377Z" transform="translate(-873.075 -662.664)" fill="#1a2e35"/>
      <path id="Path_156" data-name="Path 156" d="M916.863,943.377l49.642-4.879V868.733h19.674v69.745l49.843,4.9a9.664,9.664,0,0,1,8.719,9.618v7.455h-136.6v-7.455A9.664,9.664,0,0,1,916.863,943.377Z" transform="translate(-873.075 -662.664)" fill="#fff" opacity="0.2" style="isolation: isolate"/>
      <circle id="Ellipse_1" data-name="Ellipse 1" cx="12.863" cy="12.863" r="12.863" transform="translate(153.55 294.169)" fill="#1a2e35"/>
      <circle id="Ellipse_2" data-name="Ellipse 2" cx="12.863" cy="12.863" r="12.863" transform="translate(27.459 294.169)" fill="#1a2e35"/>
      <path id="Rectangle_190" data-name="Rectangle 190" d="M6.791,0H19.659A6.791,6.791,0,0,1,26.45,6.791V62.139a0,0,0,0,1,0,0H0a0,0,0,0,1,0,0V6.791A6.791,6.791,0,0,1,6.791,0Z" transform="translate(116.492 221.064) rotate(180)" fill="#1a2e35"/>
      <path id="Rectangle_191" data-name="Rectangle 191" d="M6.791,0H19.659A6.791,6.791,0,0,1,26.45,6.791V62.139a0,0,0,0,1,0,0H0a0,0,0,0,1,0,0V6.791A6.791,6.791,0,0,1,6.791,0Z" transform="translate(116.492 221.064) rotate(180)" fill="#fff" opacity="0.3" style="isolation: isolate"/>
      <path id="Path_157" data-name="Path 157" d="M929.652,726.553S925.9,819.585,951.8,835.6H922.233s-22.912-31.695-16.437-109.05Z" transform="translate(-873.42 -676.677)" fill="#1a2e35"/>
      <path id="Path_158" data-name="Path 158" d="M929.652,726.553S925.9,819.585,951.8,835.6H922.233s-22.912-31.695-16.437-109.05Z" transform="translate(-873.42 -676.677)" fill="#fff" opacity="0.3" style="isolation: isolate"/>
      <path id="Rectangle_192" data-name="Rectangle 192" d="M8.215,0h116.1a8.215,8.215,0,0,1,8.215,8.215V20.14a0,0,0,0,1,0,0H0a0,0,0,0,1,0,0V8.215A8.215,8.215,0,0,1,8.215,0Z" transform="translate(38.741 145.915)" fill="#1a2e35"/>
      <g id="Group_59" data-name="Group 59" transform="translate(33.217 155.985)">
        <rect id="Rectangle_193" data-name="Rectangle 193" width="143.577" height="10.07" rx="3.305" fill="#1a2e35"/>
        <rect id="Rectangle_194" data-name="Rectangle 194" width="143.577" height="10.07" rx="3.305" fill="#fff" opacity="0.6" style="isolation: isolate"/>
      </g>
      <rect id="Rectangle_195" data-name="Rectangle 195" width="97.625" height="68.778" rx="23.962" transform="translate(97.625 68.778) rotate(180)" fill="#1a2e35"/>
    </g>
    <g id="_Group_" data-name="&lt;Group&gt;" transform="translate(948.644 622.125)">
      <path id="Path_159" data-name="Path 159" d="M1017.794,963.727l14.378-1.973,1.993-34.179-14.358,1.989Z" transform="translate(-926.275 -568.018)" fill="#fcb373"/>
      <path id="Path_160" data-name="Path 160" d="M1019.727,929.562l14.36-1.971-1.143,19.536-14.34,1.259Z" transform="translate(-926.195 -568.017)" opacity="0.2" style="isolation: isolate"/>
      <path id="Path_161" data-name="Path 161" d="M1026.268,779.988l-3.509-21.977-80.609-4.82s-8.571,45.733-1.985,57.916c11.756,21.75,75.117,10.774,93.658,12.911-11.081,45.323-10,133.892-10,133.892l26.479,2.022s20.375-95.44,24.494-140.787C1077.577,788.545,1052.222,789.306,1026.268,779.988Z" transform="translate(-934.171 -585.206)" fill="#007cff"/>
      <path id="Path_162" data-name="Path 162" d="M1013.307,941.858l31.821,2.094,2.725-13.627-34.962-1.624Z" transform="translate(-926.758 -567.907)" fill="#007cff"/>
      <path id="Path_163" data-name="Path 163" d="M1047.988,951.825l14.474,1.065,9.068-33.014-14.457-1.045Z" transform="translate(-923.299 -568.88)" fill="#fcb373"/>
      <g id="Group_61" data-name="Group 61" transform="translate(141.12 379.007)">
        <path id="Path_164" data-name="Path 164" d="M1063,950.928c.018.037.01.082.04.112a.2.2,0,0,0,.123.015,17.744,17.744,0,0,0,3.541,1.519,3.885,3.885,0,0,0,2.816.045,1.8,1.8,0,0,0,.907-1.7,1.276,1.276,0,0,0-.49-1.136c-.822-.611-2.542-.432-4.058-.11,1.105-.9,2.075-2.031,2.138-2.937a1.274,1.274,0,0,0-.876-1.315,1.66,1.66,0,0,0-1.453.064c-1.758.965-2.441,5.016-2.493,5.232l.256,0v0l-.261.014c0,.014-.243.025-.243.041A.284.284,0,0,0,1063,950.928Zm1.08-.805c-.121.035-.224.068-.325.1.339-1.333,1.069-3.52,2.12-4.083a.981.981,0,0,1,.778-.1l.156.056c.449.185.507.446.483.643C1067.168,947.712,1065.5,949.338,1064.079,950.122Zm.054.746c1.91-.578,4.559-1.1,5.373-.488a.612.612,0,0,1,.24.557,1.246,1.246,0,0,1-.556,1.1C1068.349,952.491,1066.493,952.057,1064.133,950.868Z" transform="translate(-1062.945 -945.28)" fill="#007cff"/>
      </g>
      <path id="Path_165" data-name="Path 165" d="M1056.708,918.83l14.456,1.063-5.187,18.87-14.288-1.756Z" transform="translate(-922.934 -568.88)" opacity="0.2" style="isolation: isolate"/>
      <path id="Path_166" data-name="Path 166" d="M1085.077,951.892l-25.487-7.491s15.216-85.879,30.648-115.661c-1.155-.379-2.689-.867-4.584-1.426-3.411-1.029-7.941-2.31-13.266-3.79C1035.35,813.254,960.282,794,960.282,794l34.295-32s136.6,20.829,139.433,56.82C1135.363,836.123,1085.077,951.892,1085.077,951.892Z" transform="translate(-931.943 -584.338)" fill="#007cff"/>
      <path id="Path_167" data-name="Path 167" d="M1047.688,929.713l30.687,8.676,5.5-12.761-33.857-8.871Z" transform="translate(-923.329 -569.084)" fill="#007cff"/>
      <path id="Path_168" data-name="Path 168" d="M1083.656,826.121c-3.411-1.029-7.941-2.31-13.266-3.79,1.064-8.737,1.083-18.754-3.123-23.862-8.357-10.18-29.854-16.154-42.09-18.321-10.234-1.8-44.619-5.4-44.619-5.4s44.619-4.278,90.23,9.025C1093.331,790.366,1088.944,812.4,1083.656,826.121Z" transform="translate(-929.945 -583.145)" opacity="0.2" style="isolation: isolate"/>
      <path id="Path_169" data-name="Path 169" d="M1013.307,941.858l31.821,2.094,2.725-13.627-34.962-1.624Z" transform="translate(-926.758 -567.907)" fill="#fff" opacity="0.2"/>
      <path id="Path_170" data-name="Path 170" d="M1047.688,929.713l30.687,8.676,5.5-12.761-33.857-8.871Z" transform="translate(-923.329 -569.084)" fill="#fff" opacity="0.2"/>
      <path id="Path_171" data-name="Path 171" d="M1064.368,948.894l-15.678-4.374a1.028,1.028,0,0,0-1.3.657l-.005.015-4.228,12.2a2.562,2.562,0,0,0,1.75,3.148c5.495,1.438,8.19,1.85,15.1,3.721,4.237,1.17,12.5,3.883,18.545,4.572s6.562-5.305,4.064-6.129c-5.918-1.982-13-8.149-16.075-12.338A4.056,4.056,0,0,0,1064.368,948.894Z" transform="translate(-923.784 -566.353)" fill="#1a2e35"/>
      <g id="Group_62" data-name="Group 62" transform="translate(107.329 387.678)">
        <path id="Path_172" data-name="Path 172" d="M1032.186,959.268c0,.015.3.023.3.037.016.055.323.1.365.137.024.032.026.078.061.1a.2.2,0,0,0,.123-.01,17.784,17.784,0,0,0,3.778.748,3.876,3.876,0,0,0,2.76-.543,1.8,1.8,0,0,0,.526-1.857,1.291,1.291,0,0,0-.728-1.007c-.93-.426-2.6.109-4.017.739a5.164,5.164,0,0,0,1.427-3.313,1.374,1.374,0,0,0-1.231-1.1,2.128,2.128,0,0,0-1.611.378c-1.512,1.305-1.755,5.405-1.755,5.658v.029Zm1.558-.838c-.11.06-.205.113-.3.166.055-1.374.313-3.666,1.224-4.435a.973.973,0,0,1,.739-.263l.165.022c.478.087.589.331.606.528C1036.263,955.429,1034.974,957.365,1033.744,958.43Zm.209.718c1.748-.963,4.229-2.025,5.153-1.6a.613.613,0,0,1,.35.5,1.247,1.247,0,0,1-.316,1.186C1038.414,959.857,1036.509,959.819,1033.952,959.148Z" transform="translate(-1032.186 -953.173)" fill="#007cff"/>
      </g>
      <path id="Path_173" data-name="Path 173" d="M1033.572,957.2l-16.245-1.013a1.027,1.027,0,0,0-1.133.912l0,.018-1.593,12.815a2.563,2.563,0,0,0,2.367,2.716c5.674.261,8.4.1,15.548.493,4.388.261,13.034,1.194,19.09.609s5.313-6.555,2.7-6.841c-6.2-.706-14.412-5.262-18.292-8.719A4.062,4.062,0,0,0,1033.572,957.2Z" transform="translate(-926.59 -565.199)" fill="#1a2e35"/>
      <path id="Path_174" data-name="Path 174" d="M1048.233,703.725s4.544,24.642,12.744,29.4S1125.846,704,1125.846,704l-4.744-9.557s-47.447,12.8-47.9,12.891-1.8-10.863-1.8-10.863Z" transform="translate(-923.275 -590.996)" fill="#1a2e35"/>
      <path id="Path_175" data-name="Path 175" d="M1066.547,667.6c3.74,4.621,9.12,38.769,9.12,38.769l-27.828,6.483-6.031-17.306Z" transform="translate(-923.908 -593.642)" fill="#007cff"/>
      <path id="Path_176" data-name="Path 176" d="M1066.547,667.6c3.74,4.621,9.12,38.769,9.12,38.769l-27.828,6.483-6.031-17.306Z" transform="translate(-923.908 -593.642)" fill="#fff" opacity="0.4" style="isolation: isolate"/>
      <g id="Group_63" data-name="Group 63" transform="translate(0 45.159)">
        <path id="Path_177" data-name="Path 177" d="M934.486,792.624l93.411-15.547s5.839-55.481,49.229-106.892c0,0-15.059-32.929-68.664-28.366S934.486,792.624,934.486,792.624Z" transform="translate(-934.486 -641.385)" fill="#007cff"/>
        <path id="Path_178" data-name="Path 178" d="M934.486,792.624l93.411-15.547s5.839-55.481,49.229-106.892c0,0-15.059-32.929-68.664-28.366S934.486,792.624,934.486,792.624Z" transform="translate(-934.486 -641.385)" fill="#fff" opacity="0.6" style="isolation: isolate"/>
      </g>
      <path id="Path_179" data-name="Path 179" d="M1002.891,684.77s-.936,25.654,1.92,27.128,56.808-18.161,65.356-19.59,28.185,6.065,28.185,6.065l1.785,11.719s-17.477-.346-27.3-5.138c0,0-63.023,37.694-76.591,35.552s-18.208-53.2-18.208-53.2Z" transform="translate(-930.194 -591.949)" fill="#fcb373"/>
      <path id="Path_180" data-name="Path 180" d="M1002.827,693.04s.205,15.1,3.345,16.238,49.819-15.285,49.819-15.285l7.379,17.09s-58.98,38.067-70.4,28.7-14.28-42.931-14.28-42.931Z" transform="translate(-930.13 -591.134)" fill="#1a2e35"/>
      <g id="Group_64" data-name="Group 64" transform="translate(44.309 51.322)">
        <path id="Path_181" data-name="Path 181" d="M994.774,647.032c16.775-1.75,10.711,57.627,10.711,57.627l-28.2,4.018S965.143,650.125,994.774,647.032Z" transform="translate(-974.819 -646.994)" fill="#007cff"/>
        <path id="Path_182" data-name="Path 182" d="M994.774,647.032c16.775-1.75,10.711,57.627,10.711,57.627l-28.2,4.018S965.143,650.125,994.774,647.032Z" transform="translate(-974.819 -646.994)" fill="#fff" opacity="0.4" style="isolation: isolate"/>
      </g>
      <path id="Path_183" data-name="Path 183" d="M1017.161,643.132s-.564,26.089,15.439,28.754,17.669-18.6,17.669-18.6S1039.51,641.7,1017.161,643.132Z" transform="translate(-926.338 -596.065)" fill="#1a2e35"/>
      <path id="Path_184" data-name="Path 184" d="M1057.089,658.525c-3.917-1.732-8.573,0-8.573,0a12.485,12.485,0,0,1-12,9.639,21.832,21.832,0,0,1-4.115-.18c-13.97-1.914-12.436-22.689-12.436-22.689a24.926,24.926,0,0,0,14.547-3.5v-.019a32.227,32.227,0,0,0,9.53-8.519Z" transform="translate(-926.066 -597.027)" fill="#fcb373"/>
      <path id="Path_185" data-name="Path 185" d="M1055.853,658.525c-3.917-1.732-8.573,0-8.573,0a12.485,12.485,0,0,1-12,9.639c-3.592-8.9-3.122-19.1-2-26.37v-.019a32.227,32.227,0,0,0,9.53-8.519Z" transform="translate(-924.83 -597.027)" opacity="0.2" style="isolation: isolate"/>
      <g id="Group_66" data-name="Group 66" transform="translate(107.005 0)">
        <path id="Path_186" data-name="Path 186" d="M1063.89,619.943c-6.224,4.223-3.389,11.38,10.691,22.579,5.715-7.417,6.665-21.816,2.119-25.436S1069.316,616.288,1063.89,619.943Z" transform="translate(-1029.045 -598.786)" fill="#1a2e35"/>
        <path id="Path_187" data-name="Path 187" d="M1039.248,632.06c.677,15.212.309,24.135,7.836,32.07,11.338,11.922,30.214,5.29,34.1-9.823,3.473-13.573,1.8-36.177-12.968-42.464a20.766,20.766,0,0,0-28.968,20.217Z" transform="translate(-1031.169 -599.305)" fill="#fcb373"/>
        <path id="Path_188" data-name="Path 188" d="M1059.834,634.434c-.02,1.237.623,2.251,1.43,2.26s1.468-.968,1.489-2.2-.606-2.247-1.409-2.273S1059.939,633.218,1059.834,634.434Z" transform="translate(-1029.137 -597.129)" fill="#1a2e35"/>
        <path id="Path_189" data-name="Path 189" d="M1072.63,634.669c-.02,1.237.623,2.251,1.43,2.261s1.485-.965,1.51-2.218-.623-2.251-1.43-2.26S1072.651,633.433,1072.63,634.669Z" transform="translate(-1027.876 -597.106)" fill="#1a2e35"/>
        <path id="Path_190" data-name="Path 190" d="M1068.464,634.93a44.155,44.155,0,0,0,5.732,10.678c-2.268,2-5.935,1-5.935,1Z" transform="translate(-1028.306 -596.862)" fill="#ec873e"/>
        <path id="Path_191" data-name="Path 191" d="M1079.006,627.137a.751.751,0,0,1-.683.378,5.781,5.781,0,0,0-4.861,1.973.73.73,0,0,1-1.183-.855,7.249,7.249,0,0,1,6.126-2.562.717.717,0,0,1,.682.751v.011A.833.833,0,0,1,1079.006,627.137Z" transform="translate(-1027.923 -597.737)" fill="#1a2e35"/>
        <path id="Path_192" data-name="Path 192" d="M1065.8,629.828a.753.753,0,0,1-.761-.171,5.779,5.779,0,0,0-4.942-1.76.73.73,0,0,1-.315-1.426,7.247,7.247,0,0,1,6.278,2.161.717.717,0,0,1,.01,1.015l-.008.008A.838.838,0,0,1,1065.8,629.828Z" transform="translate(-1029.198 -597.703)" fill="#1a2e35"/>
        <path id="Path_193" data-name="Path 193" d="M1046.252,618.145c7.062,2.556,6.061,10.2-4.846,24.491-7.365-5.792-11.819-19.535-8.276-24.134S1040.083,615.925,1046.252,618.145Z" transform="translate(-1031.891 -598.754)" fill="#1a2e35"/>
        <path id="Path_194" data-name="Path 194" d="M1032.493,641.814a14.485,14.485,0,0,0,6.736,8.774c4.415,2.493,7.827-1.167,7.622-5.963-.191-4.325-2.728-10.837-7.641-11.36S1031.293,637.27,1032.493,641.814Z" transform="translate(-1031.858 -597.03)" fill="#fcb373"/>
        <path id="Path_195" data-name="Path 195" d="M1057.877,647.854s2.639,4.987,10,4.75" transform="translate(-1029.33 -595.588)" fill="none" stroke="#1a2e35" stroke-linecap="round" stroke-linejoin="round" stroke-width="0.865"/>
        <path id="Path_196" data-name="Path 196" d="M1047.71,624.947s5.989.321,8.748,4.106a8.444,8.444,0,0,0,1.5-6.963s7.248.888,10.462,5.888c0,0,1.606-3.211,1.071-5.888,0,0,2.41,2.851,2.187,5.888,0,0,5.518-3.5,4.8-6.781a15.267,15.267,0,0,1,2.941,5.713s3.636-1.249,2.834-7.676c0,0,2.411,2.717,2.59,4.66,0,0,4.73-13.408-13.165-20.9s-38.426,1.392-38.068,16.265S1047.71,624.947,1047.71,624.947Z" transform="translate(-1031.722 -600.277)" fill="#1a2e35"/>
        <g id="Group_65" data-name="Group 65" transform="translate(12.185 32.44)">
          <path id="Path_197" data-name="Path 197" d="M1068.047,637.164c0,3.935-2.662,7.124-5.945,7.124s-5.947-3.189-5.947-7.124,2.663-7.124,5.947-7.124S1068.047,633.229,1068.047,637.164Z" transform="translate(-1041.684 -629.784)" fill="none" stroke="#1a2e35" stroke-linecap="round" stroke-linejoin="round" stroke-width="0.865"/>
          <path id="Path_198" data-name="Path 198" d="M1082.854,636.931c0,3.935-2.662,7.125-5.947,7.125s-5.945-3.19-5.945-7.125,2.662-7.124,5.945-7.124S1082.854,633,1082.854,636.931Z" transform="translate(-1040.225 -629.807)" fill="none" stroke="#1a2e35" stroke-linecap="round" stroke-linejoin="round" stroke-width="0.865"/>
          <path id="Path_199" data-name="Path 199" d="M1066.98,636.614s2.3-2.051,4.375-.256" transform="translate(-1040.617 -629.234)" fill="none" stroke="#1a2e35" stroke-linecap="round" stroke-linejoin="round" stroke-width="0.865"/>
          <line id="Line_1" data-name="Line 1" x1="14.471" y1="1.236" transform="translate(0 6.144)" fill="none" stroke="#1a2e35" stroke-linecap="round" stroke-linejoin="round" stroke-width="0.865"/>
        </g>
      </g>
      <g id="Group_67" data-name="Group 67" transform="translate(148.844 51.36)">
        <path id="Path_200" data-name="Path 200" d="M1189.1,702.892v4.777c0,1.431-2.463,2.443-3.878,2.443H1073.69c-1.432,0-3.714-1.012-3.714-2.443v-4.777Z" transform="translate(-1069.976 -641.523)" fill="#1a2e35"/>
        <path id="Path_201" data-name="Path 201" d="M1189.1,702.892v4.777c0,1.431-2.463,2.443-3.878,2.443H1073.69c-1.432,0-3.714-1.012-3.714-2.443v-4.777Z" transform="translate(-1069.976 -641.523)" fill="#fff" opacity="0.6" style="isolation: isolate"/>
        <path id="Path_202" data-name="Path 202" d="M1185.7,702.892v4.777c0,1.431-2.463,2.443-3.878,2.443h-73.563c-1.431,0-3.782-1.012-3.782-2.443v-4.777Z" transform="translate(-1066.575 -641.523)" opacity="0.2" style="isolation: isolate"/>
        <path id="Path_203" data-name="Path 203" d="M1203.033,649.761l-13.278,60.426a4.7,4.7,0,0,1-4.311,3.625h-72.529c-1.931,0-3.173-2.061-2.724-4.044l13.261-59.779a4.153,4.153,0,0,1,4.311-2.961h72.529C1202.24,647.029,1203.464,647.795,1203.033,649.761Z" transform="translate(-1066.021 -647.029)" fill="#1a2e35"/>
        <path id="Path_204" data-name="Path 204" d="M1203.033,649.761l-13.278,60.426a4.7,4.7,0,0,1-4.311,3.625h-72.529c-1.931,0-3.173-2.061-2.724-4.044l13.261-59.779a4.153,4.153,0,0,1,4.311-2.961h72.529C1202.24,647.029,1203.464,647.795,1203.033,649.761Z" transform="translate(-1066.021 -647.029)" fill="#fff" opacity="0.6" style="isolation: isolate"/>
        <path id="Path_205" data-name="Path 205" d="M1202.813,649.761l-13.278,60.426a4.7,4.7,0,0,1-4.311,3.625h-70.063c-1.949,0-3.172-2.061-2.742-4.044L1125.7,649.99c.431-1.966,2.362-2.961,4.311-2.961h70.063C1202.02,647.029,1203.243,647.795,1202.813,649.761Z" transform="translate(-1065.801 -647.029)" fill="#fff" opacity="0.4" style="isolation: isolate"/>
        <path id="Path_206" data-name="Path 206" d="M1156.282,686.223c3.376,0,6.841-3.629,7.725-8.087.867-4.477-1.156-8.1-4.548-8.1a5.27,5.27,0,0,0-1.878.36c-.794,3.484-3.158,6.408-5.757,7.382a2.569,2.569,0,0,0-.09.361C1150.85,682.594,1152.889,686.223,1156.282,686.223Z" transform="translate(-1061.938 -644.762)" opacity="0.2" style="isolation: isolate"/>
      </g>
    </g>
    <g id="Group_77" data-name="Group 77" transform="translate(1001.825 634.599)">
      <g id="Group_69" data-name="Group 69" transform="translate(256.105)">
        <path id="Path_207" data-name="Path 207" d="M1237.745,664.269l16.9,16.9,5.712,32.75h-34.75l1.428-3.61,19.041-3.61,1.666-19.909-12.615-3Z" transform="translate(-1215.079 -606.444)" fill="#1a2e35"/>
        <path id="Path_208" data-name="Path 208" d="M1260.359,713.912h-34.745l1.426-3.61,19.042-3.61,1.66-19.909-1.642-.4-10.974-2.6,2.617-19.511,16.894,16.894Z" transform="translate(-1215.079 -606.443)" fill="#fff" opacity="0.6" style="isolation: isolate"/>
        <path id="Path_209" data-name="Path 209" d="M1251.438,678.824l-6.191,7.563-10.974-2.6,2.617-19.511Z" transform="translate(-1214.225 -606.443)" opacity="0.2" style="isolation: isolate"/>
        <g id="Group_68" data-name="Group 68">
          <path id="Path_210" data-name="Path 210" d="M1236.726,697.815h-19.4a1.263,1.263,0,0,1-1.285-1.474l11.264-83.235a1.749,1.749,0,0,1,1.684-1.474h19.4a1.263,1.263,0,0,1,1.285,1.474l-11.264,83.235A1.748,1.748,0,0,1,1236.726,697.815Z" transform="translate(-1216.024 -611.632)" fill="#1a2e35"/>
          <path id="Path_211" data-name="Path 211" d="M1236.726,697.815h-19.4a1.263,1.263,0,0,1-1.285-1.474l11.264-83.235a1.749,1.749,0,0,1,1.684-1.474h19.4a1.263,1.263,0,0,1,1.285,1.474l-11.264,83.235A1.748,1.748,0,0,1,1236.726,697.815Z" transform="translate(-1216.024 -611.632)" fill="#fff" opacity="0.6" style="isolation: isolate"/>
          <path id="Path_212" data-name="Path 212" d="M1231.312,697.815h-13.989a1.263,1.263,0,0,1-1.285-1.474l11.264-83.235a1.749,1.749,0,0,1,1.684-1.474h13.989a1.263,1.263,0,0,1,1.285,1.474L1233,696.341A1.748,1.748,0,0,1,1231.312,697.815Z" transform="translate(-1216.024 -611.632)" fill="#fff" opacity="0.4" style="isolation: isolate"/>
          <path id="Path_213" data-name="Path 213" d="M1232.029,694.969h-14.9l10.956-80.959h14.9Z" transform="translate(-1215.914 -611.398)" fill="#007cff"/>
        </g>
      </g>
      <g id="Group_76" data-name="Group 76" transform="translate(0 106.737)">
        <g id="Group_70" data-name="Group 70" transform="translate(112.751 12.927)">
          <path id="Path_214" data-name="Path 214" d="M1116.461,997.163H1105.4l-19.867-276.6h14.669Z" transform="translate(-1085.531 -720.56)" fill="#1a2e35"/>
          <path id="Path_215" data-name="Path 215" d="M1116.468,997.123H1105.4l-18.9-262.864-.975-13.294h14.675l.794,13.294Z" transform="translate(-1085.531 -720.52)" fill="#fff" opacity="0.4" style="isolation: isolate"/>
          <path id="Path_216" data-name="Path 216" d="M1101,733.6h-14.494l-.975-12.635h14.675Z" transform="translate(-1085.531 -720.52)" opacity="0.2" style="isolation: isolate"/>
        </g>
        <g id="Group_71" data-name="Group 71" transform="translate(211.967 12.927)">
          <path id="Path_217" data-name="Path 217" d="M1188.709,997.163h-11.057l-1.806-276.6h14.669Z" transform="translate(-1175.846 -720.56)" fill="#1a2e35"/>
          <path id="Path_218" data-name="Path 218" d="M1190.522,720.965l-.289,44.628-1.516,231.53h-11.065l-1.516-231.53-.289-44.628Z" transform="translate(-1175.845 -720.52)" fill="#fff" opacity="0.5" style="isolation: isolate"/>
          <path id="Path_219" data-name="Path 219" d="M1190.522,720.965l-.289,45.124h-14.1l-.289-45.124Z" transform="translate(-1175.845 -720.52)" opacity="0.2" style="isolation: isolate"/>
        </g>
        <g id="Group_72" data-name="Group 72" transform="translate(311.296 12.927)">
          <path id="Path_220" data-name="Path 220" d="M1297.193,997.163h-11.057l-19.867-276.6h14.669Z" transform="translate(-1266.263 -720.56)" fill="#1a2e35"/>
          <path id="Path_221" data-name="Path 221" d="M1297.2,997.123h-11.064l-18.9-262.864-.975-13.294h14.675l.794,13.294Z" transform="translate(-1266.263 -720.52)" fill="#fff" opacity="0.5" style="isolation: isolate"/>
          <path id="Path_222" data-name="Path 222" d="M1281.732,733.6h-14.494l-.975-12.635h14.675Z" transform="translate(-1266.263 -720.52)" opacity="0.2" style="isolation: isolate"/>
        </g>
        <g id="Group_73" data-name="Group 73" transform="translate(6.13 12.927)">
          <path id="Path_223" data-name="Path 223" d="M999.533,997.163H988.476l16.255-276.6H1019.4Z" transform="translate(-988.476 -720.56)" fill="#1a2e35"/>
          <path id="Path_224" data-name="Path 224" d="M1019.4,720.965l-.975,13.294-18.9,262.864H988.478l15.451-262.864.794-13.294Z" transform="translate(-988.475 -720.52)" fill="#fff" opacity="0.5" style="isolation: isolate"/>
          <path id="Path_225" data-name="Path 225" d="M1003.337,720.965h14.674l-.975,12.635h-14.494Z" transform="translate(-987.089 -720.52)" opacity="0.2" style="isolation: isolate"/>
        </g>
        <g id="Group_74" data-name="Group 74" transform="translate(10.756 6)">
          <path id="Rectangle_196" data-name="Rectangle 196" d="M0,0H326.843a0,0,0,0,1,0,0V10.3a3.553,3.553,0,0,1-3.553,3.553H3.552A3.552,3.552,0,0,1,0,10.3V0A0,0,0,0,1,0,0Z" fill="#007cff"/>
        </g>
        <rect id="Rectangle_197" data-name="Rectangle 197" width="326.843" height="6.927" transform="translate(10.756 6)" opacity="0.2" style="isolation: isolate"/>
        <g id="Group_75" data-name="Group 75">
          <path id="Path_226" data-name="Path 226" d="M1327.349,716.6H986.8a3.9,3.9,0,0,1-3.9-3.9h0a3.9,3.9,0,0,1,3.9-3.9h340.551a3.9,3.9,0,0,1,3.9,3.9h0A3.9,3.9,0,0,1,1327.349,716.6Z" transform="translate(-982.896 -708.793)" fill="#007cff"/>
        </g>
      </g>
    </g>
  </g>
</svg>
