<?xml version="1.0" encoding="utf-8"?>
<!-- Generator: Adobe Illustrator 24.3.0, SVG Export Plug-In . SVG Version: 6.00 Build 0)  -->
<svg version="1.1" id="圖層_1" xmlns="http://www.w3.org/2000/svg" xmlns:xlink="http://www.w3.org/1999/xlink" x="0px" y="0px"
	 viewBox="0 0 186.9 56.6" style="enable-background:new 0 0 186.9 56.6;" xml:space="preserve">
<style type="text/css">
	.st0{fill:#007CFF;}
	.st1{fill:#007AF2;}
</style>
<g id="Group_4" transform="translate(-184.967 -83.688)">
	<g id="Group_3" transform="translate(184.967 83.688)">
		<path id="Path_4" class="st0" d="M52,4.9c-0.1-0.9-1-1.7-1.9-1.6c0,0,0,0,0,0l-2.9,0l-3.5,0l-12.5,0l-2.8,0l-4.3,0
			c-1.1,0-1.9,0.8-2,2v14.8c0,0.9,0.7,1.8,1.6,1.9c0.1,0,0.2,0,0.3,0l7.8,0V15c0-1.1,0.9-1.9,2-2l6.5,0c0.9,0,1.8,0.7,1.9,1.6
			c0,0.1,0,0.2,0,0.4v38.4l7.8,0c1.1,0,1.9-0.8,2-2V5.6c0-0.1,0-0.2,0-0.3C52.1,5.1,52,5,52,4.9z"/>
		<path id="Path_5" class="st0" d="M29.9,31.7l-7.8,0v9.9c0,1.1-0.9,1.9-2,2l-6.6,0c-0.9,0-1.7-0.6-1.9-1.5V3.3l-7.8,0
			c-1.1,0-1.9,0.8-2,2v46.1c0,0.9,0.7,1.8,1.6,1.9c0.1,0,0.2,0,0.3,0l2.9,0l3.5,0l12.5,0l2.8,0l4.3,0c1.1,0,1.9-0.8,2-2V33.7
			c0-0.9-0.7-1.8-1.6-1.9C30.1,31.7,30,31.7,29.9,31.7z"/>
	</g>
</g>
<g>
	<path class="st1" d="M85.9,39.8h-1.8v-9.9h-9.7v9.9h-1.8V18.3h1.8v10.1h9.7V18.3h1.8V39.8z"/>
	<path class="st1" d="M89.6,30.6c0-2.1,0.5-3.8,1.6-5.1c1.1-1.3,2.5-2,4.3-2c1.8,0,3.2,0.7,4.3,2c1.1,1.3,1.6,3,1.6,5.1V33
		c0,2.1-0.5,3.8-1.6,5.1c-1.1,1.3-2.5,2-4.3,2c-1.8,0-3.2-0.7-4.3-2c-1.1-1.3-1.6-3-1.6-5.1V30.6z M91.3,33c0,1.6,0.4,2.9,1.1,4
		c0.7,1.1,1.7,1.6,3,1.6c1.3,0,2.3-0.5,3-1.6c0.7-1.1,1.1-2.4,1.1-4v-2.4c0-1.6-0.4-2.9-1.1-4s-1.7-1.6-3-1.6c-1.3,0-2.3,0.5-3,1.6
		s-1.1,2.4-1.1,4V33z"/>
	<path class="st1" d="M106.1,23.8l0.1,2.5c0.4-0.9,1-1.6,1.7-2.1s1.5-0.7,2.5-0.7c1,0,1.8,0.3,2.4,0.8c0.7,0.6,1.1,1.4,1.4,2.6
		c0.4-1.1,1-1.9,1.7-2.5c0.7-0.6,1.6-0.9,2.6-0.9c1.4,0,2.5,0.6,3.3,1.7c0.8,1.1,1.2,2.9,1.2,5.2v9.3h-1.8v-9.4c0-2-0.3-3.3-0.8-4.1
		c-0.5-0.8-1.3-1.2-2.3-1.2c-1,0-1.8,0.4-2.4,1.3c-0.6,0.9-0.9,2-1.1,3.3v0.4v9.6h-1.8v-9.4c0-1.9-0.3-3.3-0.8-4.1
		c-0.5-0.8-1.3-1.2-2.3-1.2c-0.9,0-1.7,0.3-2.3,0.8s-1,1.3-1.2,2.3v11.5h-1.8v-16H106.1z"/>
	<path class="st1" d="M132.1,40.1c-1.7,0-3.1-0.6-4.2-1.9c-1.1-1.3-1.6-2.9-1.6-5v-2.7c0-2,0.5-3.7,1.6-5c1.1-1.3,2.4-2,4-2
		c1.7,0,3,0.6,3.9,1.8c0.9,1.2,1.4,2.8,1.4,4.8v1.8H128v1.3c0,1.5,0.4,2.8,1.1,3.9c0.7,1,1.7,1.5,3,1.5c0.9,0,1.6-0.2,2.3-0.5
		c0.6-0.3,1.2-0.7,1.6-1.3l0.7,1.2c-0.5,0.6-1.1,1.1-1.9,1.5C134.1,39.9,133.2,40.1,132.1,40.1z M131.9,25.1c-1.1,0-2,0.5-2.7,1.5
		c-0.7,1-1.1,2.3-1.1,3.8h7.4v-0.7c0-1.3-0.3-2.4-0.9-3.3C133.9,25.5,133,25.1,131.9,25.1z"/>
	<path class="st1" d="M143.3,34.6l0.4,2.5h0.1l0.5-2.5l2.8-10.8h1.5l2.7,10.8l0.5,2.6h0.1l0.5-2.6l2.3-10.8h1.8l-3.9,16h-1.5
		l-2.8-10.9l-0.6-2.6h-0.1l-0.5,2.6l-2.8,10.9H143l-3.8-16h1.8L143.3,34.6z"/>
	<path class="st1" d="M167.8,39.8c-0.1-0.6-0.2-1-0.2-1.4s-0.1-0.7-0.1-1.1c-0.5,0.8-1.1,1.5-1.9,2c-0.8,0.5-1.6,0.8-2.6,0.8
		c-1.3,0-2.3-0.4-3.1-1.2c-0.7-0.8-1.1-1.9-1.1-3.3c0-1.5,0.5-2.7,1.6-3.6c1-0.9,2.5-1.3,4.2-1.3h2.8v-2c0-1.1-0.3-2-0.9-2.7
		c-0.6-0.6-1.4-1-2.4-1c-1,0-1.7,0.3-2.4,0.9c-0.6,0.6-0.9,1.4-0.9,2.2l-1.7,0l0-0.1c0-1.2,0.4-2.3,1.4-3.2c1-0.9,2.2-1.4,3.7-1.4
		c1.5,0,2.7,0.5,3.6,1.4c0.9,0.9,1.4,2.2,1.4,3.9v7.8c0,0.6,0,1.1,0.1,1.7c0,0.5,0.1,1.1,0.3,1.6H167.8z M163.3,38.5
		c1,0,1.9-0.3,2.6-0.8c0.8-0.6,1.3-1.3,1.6-2.2V32h-2.8c-1.2,0-2.2,0.3-2.9,1c-0.7,0.7-1.1,1.5-1.1,2.5c0,0.9,0.2,1.6,0.7,2.1
		C161.9,38.2,162.5,38.5,163.3,38.5z"/>
	<path class="st1" d="M177,35.4l0.4,1.6h0.1l3.8-13.2h2l-5.7,18.5c-0.3,1.1-0.8,2-1.4,2.7c-0.6,0.8-1.4,1.2-2.4,1.2
		c-0.2,0-0.4,0-0.7-0.1c-0.3,0-0.5-0.1-0.6-0.1l0.2-1.5c0.1,0,0.3,0,0.5,0.1c0.2,0,0.4,0,0.5,0c0.6,0,1.1-0.3,1.5-0.8
		c0.4-0.6,0.7-1.3,0.9-2.1l0.7-2.1l-5.1-15.8h2L177,35.4z"/>
</g>
</svg>
