<svg xmlns="http://www.w3.org/2000/svg" width="186.868" height="56.582" viewBox="0 0 186.868 56.582">
  <g id="Group_4" data-name="Group 4" transform="translate(-184.967 -83.688)">
    <g id="Group_3" data-name="Group 3" transform="translate(184.967 83.688)">
      <path id="Path_4" data-name="Path 4" d="M233.41,85.077a1.66,1.66,0,0,0-1.936-1.37l-2.931.411-3.476.489-12.514,1.759-2.782.39-4.292.6a2.34,2.34,0,0,0-1.965,2.241v14.841a1.669,1.669,0,0,0,1.965,1.689l7.768-1.091V97.967a2.338,2.338,0,0,1,1.965-2.241l6.492-.912a1.667,1.667,0,0,1,1.964,1.689v38.358l7.775-1.092a2.34,2.34,0,0,0,1.965-2.241v-45.8a2.069,2.069,0,0,0,.028-.328A1.9,1.9,0,0,0,233.41,85.077Z" transform="translate(-183.353 -83.688)" fill="#007cff"/>
      <path id="Path_5" data-name="Path 5" d="M212.9,114.566l-7.768,1.091v9.9a2.338,2.338,0,0,1-1.965,2.241l-6.556.921a1.659,1.659,0,0,1-1.907-1.232V88.669l-7.769,1.091A2.339,2.339,0,0,0,184.967,92v46.127a1.668,1.668,0,0,0,1.965,1.688l2.9-.408,3.476-.488,12.515-1.759,2.781-.391,4.292-.6a2.339,2.339,0,0,0,1.965-2.241V116.255A1.669,1.669,0,0,0,212.9,114.566Z" transform="translate(-184.967 -83.255)" fill="#007cff"/>
    </g>
    <path id="Path_1022" data-name="Path 1022" d="M16.567,0h-4.16V-8.833H5.786V0H1.611V-21.328H5.786v9.17h6.621v-9.17h4.16Zm3.211-8.892a7.88,7.88,0,0,1,1.692-5.222,5.83,5.83,0,0,1,4.739-2.029,5.852,5.852,0,0,1,4.746,2.029,7.858,7.858,0,0,1,1.7,5.222v1.963a7.816,7.816,0,0,1-1.7,5.229A5.864,5.864,0,0,1,26.224.308,5.876,5.876,0,0,1,21.47-1.7a7.838,7.838,0,0,1-1.692-5.229Zm4.146,1.957a6.616,6.616,0,0,0,.513,2.875,1.826,1.826,0,0,0,1.787,1.042,1.8,1.8,0,0,0,1.75-1.049,6.543,6.543,0,0,0,.52-2.868V-8.9a6.561,6.561,0,0,0-.52-2.853,1.812,1.812,0,0,0-1.765-1.064,1.811,1.811,0,0,0-1.765,1.071,6.57,6.57,0,0,0-.52,2.846ZM39.5-15.85l.161,2.021a4.721,4.721,0,0,1,1.582-1.714,4,4,0,0,1,2.183-.6,3.514,3.514,0,0,1,2.095.637,3.925,3.925,0,0,1,1.362,1.941,4.965,4.965,0,0,1,1.582-1.9,3.846,3.846,0,0,1,2.256-.674,3.588,3.588,0,0,1,3.1,1.619A8.67,8.67,0,0,1,54.952-9.58V0H50.777V-9.591a5.616,5.616,0,0,0-.4-2.53,1.318,1.318,0,0,0-1.23-.7,1.734,1.734,0,0,0-1.069.352,2.679,2.679,0,0,0-.776.968q.015.279.029.55t.015.565V0H43.2V-9.591a5.531,5.531,0,0,0-.4-2.522,1.343,1.343,0,0,0-1.252-.7,1.847,1.847,0,0,0-1.018.286,2.516,2.516,0,0,0-.769.8V0H35.616V-15.85ZM64.594.308a6.052,6.052,0,0,1-4.746-1.963A7.144,7.144,0,0,1,58.09-6.606V-8.833a8.181,8.181,0,0,1,1.633-5.259,5.457,5.457,0,0,1,4.519-2.051,5.252,5.252,0,0,1,4.307,1.86,7.767,7.767,0,0,1,1.523,5.068v2.549H62.235v.059a4.38,4.38,0,0,0,.71,2.578,2.448,2.448,0,0,0,2.146,1.011A5.728,5.728,0,0,0,67-3.281a10.017,10.017,0,0,0,1.743-.879l1.055,2.651a6.283,6.283,0,0,1-2.19,1.3A8.524,8.524,0,0,1,64.594.308Zm-.352-13.125a1.545,1.545,0,0,0-1.465.912,5.917,5.917,0,0,0-.527,2.457h3.735v-.588a4.226,4.226,0,0,0-.41-2.052A1.413,1.413,0,0,0,64.242-12.817ZM84.489-6.855l.088-.015,1.479-8.979h3.853L86.657,0H83.186L80.974-8.54h-.088L78.674,0H75.2L71.921-15.85H75.8l1.479,9.023h.088l2.212-9.023h2.7ZM100.137,0a7.113,7.113,0,0,1-.315-.864,7.055,7.055,0,0,1-.212-.952A4.954,4.954,0,0,1,98.181-.271a3.369,3.369,0,0,1-1.956.579A4.052,4.052,0,0,1,93.083-.981,4.9,4.9,0,0,1,91.9-4.424a4.511,4.511,0,0,1,1.5-3.618,6.688,6.688,0,0,1,4.46-1.289h1.567V-10.62a3.186,3.186,0,0,0-.417-1.78,1.407,1.407,0,0,0-1.252-.623,1.206,1.206,0,0,0-1.055.5,2.5,2.5,0,0,0-.352,1.45l-4.028-.015-.044-.088a4.344,4.344,0,0,1,1.531-3.516,6.06,6.06,0,0,1,4.226-1.45,5.655,5.655,0,0,1,4.021,1.443,5.346,5.346,0,0,1,1.545,4.109v6.416a13.884,13.884,0,0,0,.161,2.183,11.891,11.891,0,0,0,.5,1.992Zm-2.71-2.827a2.143,2.143,0,0,0,1.165-.337,2.5,2.5,0,0,0,.842-.864V-6.943H97.866a1.515,1.515,0,0,0-1.377.659,3.028,3.028,0,0,0-.425,1.67,2.122,2.122,0,0,0,.366,1.289A1.171,1.171,0,0,0,97.427-2.827ZM111.873-6.5l.029.161,2.314-9.507h4.453L113.323,2.388a8.652,8.652,0,0,1-1.6,2.864A3.859,3.859,0,0,1,108.65,6.4a4.212,4.212,0,0,1-.908-.088q-.4-.088-1.055-.264l.483-3.105q.249.044.359.066a1.235,1.235,0,0,0,.242.022,1.824,1.824,0,0,0,1.37-.476,2.779,2.779,0,0,0,.667-1.252l.366-1.172L105.5-15.85h4.468Z" transform="translate(253.165 122.869)" fill="#007af2"/>
  </g>
</svg>
