<?xml version="1.0" encoding="utf-8"?>
<!-- Generator: Adobe Illustrator 20.0.0, SVG Export Plug-In . SVG Version: 6.00 Build 0)  -->
<svg version="1.1" id="圖層_1" xmlns="http://www.w3.org/2000/svg" xmlns:xlink="http://www.w3.org/1999/xlink" x="0px" y="0px"
	 width="1012.9px" height="1027px" viewBox="0 0 1012.9 1027" style="enable-background:new 0 0 1012.9 1027;" xml:space="preserve"
	>
<style type="text/css">
	.st0{fill:none;}
	.st1{fill:#BFDEFF;}
</style>
<g>
	<path class="st0" d="M344.2,969.2c19.1-35.5,52-81.5,100.2-98.6c37.5-13.3,85.3-17.2,135.8-21.4c73.7-6.1,149.9-12.3,197.6-49.2
		c38.6-29.8,45.6-88.9,53.6-157.2c7-59.4,14.9-126.7,46.8-182.3c28.5-49.7,72.9-84.2,134.8-104.5V0H0v1027h319.1
		C325.9,1007.1,334.3,987.8,344.2,969.2z"/>
	<path class="st0" d="M832.9,643.1c-8.1,68.7-15.1,128.1-54.2,158.3c-48,37.1-124.5,43.4-198.4,49.5c-50.4,4.2-98.1,8.1-135.4,21.3
		c-47.7,16.9-80.3,62.5-99.3,97.8c-9.8,18.3-18.1,37.4-24.8,57H343c22.3-35.8,44.3-72.1,75.3-100.4c45.4-41.6,109.5-48.8,168.5-45.1
		c53.7,3.4,109.2,10.3,159.9-7.8c44.6-16,81.3-50.8,104-92.4c39.3-72,26.6-149.8,37.3-227.7c9.9-72.4,59.5-134.4,125-161.5v-34.2
		C860.7,407.5,846,532,832.9,643.1z"/>
	<path class="st1" d="M887.9,553.6c-10.7,78,2,155.7-37.3,227.7c-22.7,41.6-59.3,76.4-104,92.4c-50.6,18.1-106.2,11.2-159.9,7.8
		c-59-3.7-123.1,3.5-168.5,45.1c-31,28.3-53,64.6-75.3,100.4h669.9V392C947.4,419.2,897.8,481.1,887.9,553.6z"/>
	<path class="st1" d="M878.1,460.7c-31.9,55.6-39.8,122.9-46.8,182.3c-8,68.3-15,127.4-53.6,157.2c-47.6,36.8-123.9,43.1-197.6,49.2
		c-50.5,4.2-98.3,8.1-135.8,21.4c-48.2,17.1-81.1,63-100.2,98.6c-9.9,18.5-18.3,37.9-25.1,57.8h1.7c6.7-19.6,15-38.7,24.8-57
		c19-35.3,51.6-80.9,99.3-97.8c37.3-13.2,84.9-17.1,135.4-21.3c73.9-6.1,150.4-12.4,198.4-49.5c39.2-30.3,46.1-89.6,54.2-158.3
		c13.1-111.1,27.7-235.6,180-285.3v-1.6C951.1,376.4,906.7,410.9,878.1,460.7z"/>
</g>
</svg>
