<svg xmlns="http://www.w3.org/2000/svg" width="293.678" height="293.776" viewBox="0 0 293.678 293.776">
  <path id="Path_289" data-name="Path 289" d="M539.758,1549.794a4.031,4.031,0,0,1-3.939-4.162h0a4.062,4.062,0,0,1,4.163-3.96h0a4.064,4.064,0,0,1,3.939,4.182h0a4.062,4.062,0,0,1-4.061,3.94h-.1Zm12.367-4.182a4.063,4.063,0,0,1,3.7-4.386h0a4.068,4.068,0,0,1,4.406,3.694h0a4.1,4.1,0,0,1-3.716,4.406h0v-.02h0a1.878,1.878,0,0,1-.345.02h0A4.06,4.06,0,0,1,552.125,1545.612Zm-29.078,2.78a4.05,4.05,0,0,1-3.451-4.588h0a4.055,4.055,0,0,1,4.589-3.453h0a4.064,4.064,0,0,1,3.452,4.591h0a4.063,4.063,0,0,1-4.021,3.492h0A4.973,4.973,0,0,1,523.047,1548.392Zm45.281-4.628a4.069,4.069,0,0,1,3.188-4.773h0a4.07,4.07,0,0,1,4.792,3.169h0a4.1,4.1,0,0,1-3.188,4.791h0a5.208,5.208,0,0,1-.812.081h0A4.09,4.09,0,0,1,568.328,1543.764Zm-61.728,1.319h0a4.055,4.055,0,0,1-2.9-4.954h0a4.058,4.058,0,0,1,4.954-2.905h0a4.059,4.059,0,0,1,2.9,4.956h0a4.085,4.085,0,0,1-3.919,3.046h0A4.57,4.57,0,0,1,506.6,1545.083Zm77.626-5.015a4.074,4.074,0,0,1,2.6-5.116h.02a4.076,4.076,0,0,1,5.117,2.619h0a4.068,4.068,0,0,1-2.62,5.116h0a4.412,4.412,0,0,1-1.258.183h0A4.06,4.06,0,0,1,584.226,1540.068Zm-93.605-.163a4.094,4.094,0,0,1-2.315-5.258h0a4.084,4.084,0,0,1,5.279-2.314h-.021a4.061,4.061,0,0,1,2.315,5.258h0a4.046,4.046,0,0,1-3.776,2.6h0A4.247,4.247,0,0,1,490.621,1539.905Zm108.977-5.32a4.046,4.046,0,0,1,2.01-5.379h0a4.064,4.064,0,0,1,5.381,1.988h0a4.1,4.1,0,0,1-2.01,5.4h0a4.132,4.132,0,0,1-1.686.365h0A4.083,4.083,0,0,1,599.6,1534.585Zm-124.227-1.644h0a4.069,4.069,0,0,1-1.705-5.482h0a4.049,4.049,0,0,1,5.481-1.706h0a4.07,4.07,0,0,1,1.707,5.483h0a4.085,4.085,0,0,1-3.594,2.171h0A3.881,3.881,0,0,1,475.371,1532.941Zm138.846-5.564a4.082,4.082,0,0,1,1.381-5.584h0a4.076,4.076,0,0,1,5.584,1.361h0a4.082,4.082,0,0,1-1.381,5.584h0a3.935,3.935,0,0,1-2.091.589h0A4.082,4.082,0,0,1,614.217,1527.377Zm-153.222-3.107a4.069,4.069,0,0,1-1.056-5.643h0a4.07,4.07,0,0,1,5.645-1.057h0a4.069,4.069,0,0,1,1.056,5.645h0a4.084,4.084,0,0,1-3.35,1.767h0A4.017,4.017,0,0,1,460.995,1524.27Zm166.949-5.747a4.029,4.029,0,0,1,.73-5.685h0a4.033,4.033,0,0,1,5.687.732h0a4.029,4.029,0,0,1-.732,5.685h0a3.905,3.905,0,0,1-2.477.853h0A4.022,4.022,0,0,1,627.944,1518.523Zm-180.229-4.487a4.06,4.06,0,0,1-.4-5.746h0a4.07,4.07,0,0,1,5.725-.405h0a4.072,4.072,0,0,1,.407,5.725h0a4.033,4.033,0,0,1-3.067,1.4h0A4.1,4.1,0,0,1,447.715,1514.036Zm192.838-5.847a4.07,4.07,0,0,1,.082-5.747h0a4.07,4.07,0,0,1,5.746.081h0a4.07,4.07,0,0,1-.081,5.747h0a4.037,4.037,0,0,1-2.823,1.158h0A4.145,4.145,0,0,1,640.553,1508.189Zm-204.878-5.848a4.073,4.073,0,0,1,.244-5.747h0a4.048,4.048,0,0,1,5.725.264h0a4.048,4.048,0,0,1-.223,5.727h0a4.119,4.119,0,0,1-2.762,1.077h0A4.059,4.059,0,0,1,435.675,1502.341Zm216.249-5.848a4.082,4.082,0,0,1-.569-5.726h0a4.084,4.084,0,0,1,5.727-.568h0a4.08,4.08,0,0,1,.568,5.725h0a4.077,4.077,0,0,1-3.147,1.483h0A4.174,4.174,0,0,1,651.924,1496.493Zm-226.869-7.126a4.055,4.055,0,0,1,.873-5.666h0a4.062,4.062,0,0,1,5.686.893h0a4.058,4.058,0,0,1-.894,5.665h0a4.048,4.048,0,0,1-2.4.771h0A4.021,4.021,0,0,1,425.055,1489.367Zm236.839-5.808a4.04,4.04,0,0,1-1.2-5.6h0a4.045,4.045,0,0,1,5.605-1.22h0a4.053,4.053,0,0,1,1.217,5.606h0a4.042,4.042,0,0,1-3.431,1.868h0A4,4,0,0,1,661.894,1483.559Zm-245.935-8.285a4.032,4.032,0,0,1,1.522-5.522h0a4.064,4.064,0,0,1,5.544,1.522h0a4.071,4.071,0,0,1-1.523,5.523h0a4.1,4.1,0,0,1-2.011.549h0A4.056,4.056,0,0,1,415.959,1475.274Zm254.382-5.685a4.059,4.059,0,0,1-1.848-5.441h0a4.081,4.081,0,0,1,5.442-1.848h0a4.065,4.065,0,0,1,1.848,5.441h0a4.069,4.069,0,0,1-3.656,2.274h0A4.132,4.132,0,0,1,670.341,1469.589Zm-261.814-9.339a4.1,4.1,0,0,1,2.152-5.343h0a4.108,4.108,0,0,1,5.34,2.174h0a4.065,4.065,0,0,1-2.172,5.32h0a3.943,3.943,0,0,1-1.585.325h0A4.1,4.1,0,0,1,408.527,1460.25Zm268.6-5.5a4.067,4.067,0,0,1-2.457-5.2h0a4.071,4.071,0,0,1,5.2-2.457h0a4.072,4.072,0,0,1,2.457,5.2h0a4.051,4.051,0,0,1-3.818,2.7h0A4.19,4.19,0,0,1,677.122,1454.747Zm-274.24-10.295a4.052,4.052,0,0,1,2.741-5.037h0a4.065,4.065,0,0,1,5.056,2.742h0a4.06,4.06,0,0,1-2.761,5.035h0a3.729,3.729,0,0,1-1.137.163h0A4.057,4.057,0,0,1,402.882,1444.452Zm279.277-5.239a4.059,4.059,0,0,1-3.026-4.875h0a4.057,4.057,0,0,1,4.873-3.023h0a4.045,4.045,0,0,1,3.026,4.872h0a4.034,4.034,0,0,1-3.939,3.127h0A3.759,3.759,0,0,1,682.159,1439.213Zm-283.074-11.107a4.053,4.053,0,0,1,3.309-4.691h0a4.054,4.054,0,0,1,4.691,3.309h0a4.055,4.055,0,0,1-3.309,4.692h0a4.348,4.348,0,0,1-.692.061h0A4.051,4.051,0,0,1,399.085,1428.106Zm286.3-4.894a4.033,4.033,0,0,1-3.574-4.487h0a4.046,4.046,0,0,1,4.487-3.573h0a4.043,4.043,0,0,1,3.574,4.487h0a4.059,4.059,0,0,1-4.02,3.613h0A3.674,3.674,0,0,1,685.387,1423.212Zm-288.231-11.776v.02h0a4.084,4.084,0,0,1,3.838-4.305h0a4.077,4.077,0,0,1,4.283,3.837h0a4.074,4.074,0,0,1-3.817,4.285h-.243A4.085,4.085,0,0,1,397.156,1411.436Zm285.55-8.529v-.162h0v-.143h0a4.044,4.044,0,0,1,4.041-4.061h0a4.077,4.077,0,0,1,4.081,4.061h0v.143h0v.162h0a4.073,4.073,0,0,1-4.061,4.061h0A4.061,4.061,0,0,1,682.706,1402.907Zm-281.733-3.94a4.074,4.074,0,0,1-3.817-4.283h0a4.047,4.047,0,0,1,4.264-3.839h0a4.068,4.068,0,0,1,3.838,4.285h0a4.072,4.072,0,0,1-4.061,3.837h-.224Zm280.8-12.183a4.065,4.065,0,0,1,3.574-4.507h0a4.048,4.048,0,0,1,4.488,3.573h0a4.019,4.019,0,0,1-3.554,4.488h0a3.822,3.822,0,0,1-.467.041h0A4.063,4.063,0,0,1,681.772,1386.784ZM402.354,1382.7a4.083,4.083,0,0,1-3.331-4.689h0a4.085,4.085,0,0,1,4.691-3.332h0a4.056,4.056,0,0,1,3.311,4.692h0a4.053,4.053,0,0,1-4,3.391h0A3.617,3.617,0,0,1,402.354,1382.7Zm276.7-11.532a4.064,4.064,0,0,1,3.046-4.874h0a4.065,4.065,0,0,1,4.872,3.026h0a4.054,4.054,0,0,1-3.024,4.871h0a3.785,3.785,0,0,1-.934.124h0A4.09,4.09,0,0,1,679.052,1371.171ZM405.541,1366.7a4.08,4.08,0,0,1-2.761-5.037h0a4.079,4.079,0,0,1,5.036-2.76h0a4.072,4.072,0,0,1,2.782,5.035h0a4.1,4.1,0,0,1-3.919,2.925h0A4.566,4.566,0,0,1,405.541,1366.7Zm269.023-10.722a4.07,4.07,0,0,1,2.457-5.2h0a4.078,4.078,0,0,1,5.2,2.457h0a4.048,4.048,0,0,1-2.456,5.178h0a4.058,4.058,0,0,1-1.382.243h0A4.078,4.078,0,0,1,674.564,1355.981Zm-263.986-4.812a4.059,4.059,0,0,1-2.173-5.32h0a4.064,4.064,0,0,1,5.32-2.172h0A4.066,4.066,0,0,1,415.9,1349h0a4.041,4.041,0,0,1-3.736,2.5h0A3.937,3.937,0,0,1,410.578,1351.169Zm257.794-9.766a4.054,4.054,0,0,1,1.827-5.441h0a4.055,4.055,0,0,1,5.441,1.826h0v.02h0a4.032,4.032,0,0,1-1.827,5.421h0a4.116,4.116,0,0,1-1.807.429h0A4.074,4.074,0,0,1,668.372,1341.4Zm-251.033-5.076a4.065,4.065,0,0,1-1.523-5.545h0a4.058,4.058,0,0,1,5.523-1.542h0a4.057,4.057,0,0,1,1.543,5.522v.022a4.073,4.073,0,0,1-3.554,2.05h0A4.144,4.144,0,0,1,417.339,1336.327Zm243.194-8.711a4.05,4.05,0,0,1,1.219-5.6h0a4.057,4.057,0,0,1,5.6,1.2h0a4.063,4.063,0,0,1-1.2,5.623h0a3.986,3.986,0,0,1-2.193.651h0A4.072,4.072,0,0,1,660.533,1327.616Zm-234.747-5.279a4.044,4.044,0,0,1-.914-5.665h0a4.082,4.082,0,0,1,5.686-.914h0a4.078,4.078,0,0,1,.893,5.685h0a4.031,4.031,0,0,1-3.289,1.666h0A3.957,3.957,0,0,1,425.786,1322.337Zm225.408-7.513a4.042,4.042,0,0,1,.568-5.707h0a4.054,4.054,0,0,1,5.7.549h0a4.078,4.078,0,0,1-.548,5.725h0a4.158,4.158,0,0,1-2.579.914h0A4.081,4.081,0,0,1,651.194,1314.824ZM435.735,1309.4a4.049,4.049,0,0,1-.244-5.727h0a4.049,4.049,0,0,1,5.727-.264h0a4.074,4.074,0,0,1,.264,5.747h0a4.1,4.1,0,0,1-3.005,1.318h0A3.98,3.98,0,0,1,435.735,1309.4Zm204.717-6.235a4.044,4.044,0,0,1-.081-5.726h0a4.027,4.027,0,0,1,5.725-.1h0a4.052,4.052,0,0,1,.1,5.747h0a4.106,4.106,0,0,1-2.924,1.239h0A4.029,4.029,0,0,1,640.452,1303.168ZM447.106,1297.7a4.077,4.077,0,0,1,.386-5.746h0v.022h0a4.051,4.051,0,0,1,5.727.384h0a4.056,4.056,0,0,1-.387,5.727h0a4.051,4.051,0,0,1-2.659.995h0A4.051,4.051,0,0,1,447.106,1297.7Zm181.345-4.891a4.05,4.05,0,0,1-.73-5.688h0a4.05,4.05,0,0,1,5.685-.751h0a4.052,4.052,0,0,1,.751,5.687h0a4.036,4.036,0,0,1-3.229,1.582h0A4.1,4.1,0,0,1,628.451,1292.814Zm-168.735-5.463a4.048,4.048,0,0,1,1.036-5.646h0a4.075,4.075,0,0,1,5.665,1.037h0a4.071,4.071,0,0,1-1.056,5.644h0a4.047,4.047,0,0,1-2.295.731h0A4.083,4.083,0,0,1,459.716,1287.351Zm155.659-3.473h-.021a4.08,4.08,0,0,1-1.38-5.583h0a4.08,4.08,0,0,1,5.584-1.381h0a4.08,4.08,0,0,1,1.38,5.584h0a4.071,4.071,0,0,1-3.492,1.969h0A4.043,4.043,0,0,1,615.375,1283.878ZM473.422,1278.5a4.032,4.032,0,0,1,1.685-5.481h0a4.055,4.055,0,0,1,5.483,1.664h0a4.061,4.061,0,0,1-1.686,5.5h0a4,4,0,0,1-1.888.468h0A4.038,4.038,0,0,1,473.422,1278.5Zm127.922-2.009a4.051,4.051,0,0,1-2.01-5.382h0a4.049,4.049,0,0,1,5.36-2.01h.021a4.067,4.067,0,0,1,2.01,5.381h0a4.074,4.074,0,0,1-3.695,2.376h0A4.162,4.162,0,0,1,601.344,1276.488Zm-113.3-5.219a4.063,4.063,0,0,1,2.314-5.259h0a4.067,4.067,0,0,1,5.259,2.3h0a4.062,4.062,0,0,1-2.315,5.258h0a3.767,3.767,0,0,1-1.482.284h0A4.048,4.048,0,0,1,488.042,1271.269Zm98.52-.508a4.069,4.069,0,0,1-2.619-5.118h0a4.07,4.07,0,0,1,5.117-2.619h0a4.072,4.072,0,0,1,2.619,5.118h0a4.083,4.083,0,0,1-3.878,2.822h0A3.743,3.743,0,0,1,586.562,1270.761Zm-83.15-4.995a4.045,4.045,0,0,1,2.884-4.955h0a4.06,4.06,0,0,1,4.975,2.883h0a4.058,4.058,0,0,1-2.9,4.956h0a3.658,3.658,0,0,1-1.036.142h0A4.055,4.055,0,0,1,503.412,1265.766Zm67.8,1v.02a4.1,4.1,0,0,1-3.188-4.793h0a4.071,4.071,0,0,1,4.793-3.187h0a4.075,4.075,0,0,1,3.187,4.771h0a4.075,4.075,0,0,1-3.98,3.27h0A3.929,3.929,0,0,1,571.211,1266.762Zm-51.92-4.692a4.075,4.075,0,0,1,3.452-4.608h0a4.041,4.041,0,0,1,4.589,3.452h0a4.053,4.053,0,0,1-3.432,4.589h0a5.836,5.836,0,0,1-.589.039h0A4.077,4.077,0,0,1,519.291,1262.07Zm36.244,2.5a4.085,4.085,0,0,1-3.716-4.386h0a4.058,4.058,0,0,1,4.387-3.717h0a4.071,4.071,0,0,1,3.716,4.387h0a4.082,4.082,0,0,1-4.061,3.716h-.326Zm-20.041-4.367a4.062,4.062,0,0,1,3.94-4.182h0a4.048,4.048,0,0,1,4.182,3.938h0a4.06,4.06,0,0,1-3.939,4.184h-.122A4.076,4.076,0,0,1,535.494,1260.2Z" transform="translate(-397.15 -1256.018)" fill="#e5f2ff"/>
</svg>
