<?xml version="1.0" encoding="utf-8"?>
<!-- Generator: Adobe Illustrator 20.0.0, SVG Export Plug-In . SVG Version: 6.00 Build 0)  -->
<svg version="1.1" id="圖層_1" xmlns="http://www.w3.org/2000/svg" xmlns:xlink="http://www.w3.org/1999/xlink" x="0px" y="0px"
	 width="1167.2px" height="922px" viewBox="0 0 1167.2 922" style="enable-background:new 0 0 1167.2 922;" xml:space="preserve">
<style type="text/css">
	.st0{opacity:0.3;fill:#A5C4FF;enable-background:new    ;}
</style>
<path id="Path_7" class="st0" d="M1167.2,324.8c0-44.8-41.5-95.9-68.8-127.7c-32.3-37.6-69-71.7-109-101
	C908.1,36.5,809.6-4.4,707.3,0.4c-36,1.7-72.7,9.3-102.5,29.5c-75.1,50.9-78,148.2-94.9,228.1c-7.3,34.4-22.3,69.7-51.9,88.8
	c-20.3,13-45.3,17-69.4,15.3c-33.2-2.3-66.2-13.4-96.9-26c-110.9-45.6-189.2-41.6-244.9,25.9c-47.8,57.9-87.3,210.5,30.3,369
	c63.2,85.1,167.1,131.4,267.4,155.8c131.1,31.9,260.6,45.9,395.1,26.4c141.3-20.5,278.4-72.8,395.9-154.1
	c27.5-19.1,31.5-24.1,31.5-53.2c0-31,0-61.9,0-92.9C1167.2,516.8,1167.2,420.8,1167.2,324.8z"/>
</svg>
