<svg xmlns="http://www.w3.org/2000/svg" width="221.318" height="195.169" viewBox="0 0 221.318 195.169">
  <g id="Group_84" data-name="Group 84" transform="translate(-1595.627 -1130.687)">
    <g id="Group_79" data-name="Group 79">
      <circle id="Ellipse_3" data-name="Ellipse 3" cx="4.313" cy="4.313" r="4.313" transform="translate(1595.627 1130.687)" fill="#e1e1e1"/>
      <circle id="Ellipse_4" data-name="Ellipse 4" cx="4.313" cy="4.313" r="4.313" transform="translate(1648.8 1130.687)" fill="#e1e1e1"/>
      <circle id="Ellipse_5" data-name="Ellipse 5" cx="4.313" cy="4.313" r="4.313" transform="translate(1701.973 1130.687)" fill="#e1e1e1"/>
      <circle id="Ellipse_6" data-name="Ellipse 6" cx="4.313" cy="4.313" r="4.313" transform="translate(1755.146 1130.687)" fill="#e1e1e1"/>
      <path id="Path_227" data-name="Path 227" d="M1816.945,1135a4.313,4.313,0,1,1-4.313-4.313A4.312,4.312,0,0,1,1816.945,1135Z" fill="#e1e1e1"/>
    </g>
    <g id="Group_80" data-name="Group 80">
      <circle id="Ellipse_7" data-name="Ellipse 7" cx="4.313" cy="4.313" r="4.313" transform="translate(1595.627 1177.323)" fill="#e1e1e1"/>
      <circle id="Ellipse_8" data-name="Ellipse 8" cx="4.313" cy="4.313" r="4.313" transform="translate(1648.8 1177.323)" fill="#e1e1e1"/>
      <circle id="Ellipse_9" data-name="Ellipse 9" cx="4.313" cy="4.313" r="4.313" transform="translate(1701.973 1177.323)" fill="#e1e1e1"/>
      <circle id="Ellipse_10" data-name="Ellipse 10" cx="4.313" cy="4.313" r="4.313" transform="translate(1755.146 1177.323)" fill="#e1e1e1"/>
      <path id="Path_228" data-name="Path 228" d="M1816.945,1181.636a4.313,4.313,0,1,1-4.313-4.313A4.312,4.312,0,0,1,1816.945,1181.636Z" fill="#e1e1e1"/>
    </g>
    <g id="Group_81" data-name="Group 81">
      <circle id="Ellipse_11" data-name="Ellipse 11" cx="4.313" cy="4.313" r="4.313" transform="translate(1595.627 1223.959)" fill="#e1e1e1"/>
      <circle id="Ellipse_12" data-name="Ellipse 12" cx="4.313" cy="4.313" r="4.313" transform="translate(1648.8 1223.959)" fill="#e1e1e1"/>
      <circle id="Ellipse_13" data-name="Ellipse 13" cx="4.313" cy="4.313" r="4.313" transform="translate(1701.973 1223.959)" fill="#e1e1e1"/>
      <circle id="Ellipse_14" data-name="Ellipse 14" cx="4.313" cy="4.313" r="4.313" transform="translate(1755.146 1223.959)" fill="#e1e1e1"/>
      <path id="Path_229" data-name="Path 229" d="M1816.945,1228.271a4.313,4.313,0,1,1-4.313-4.312A4.312,4.312,0,0,1,1816.945,1228.271Z" fill="#e1e1e1"/>
    </g>
    <g id="Group_82" data-name="Group 82">
      <circle id="Ellipse_15" data-name="Ellipse 15" cx="4.313" cy="4.313" r="4.313" transform="translate(1595.627 1270.594)" fill="#e1e1e1"/>
      <circle id="Ellipse_16" data-name="Ellipse 16" cx="4.313" cy="4.313" r="4.313" transform="translate(1648.8 1270.594)" fill="#e1e1e1"/>
      <circle id="Ellipse_17" data-name="Ellipse 17" cx="4.313" cy="4.313" r="4.313" transform="translate(1701.973 1270.594)" fill="#e1e1e1"/>
      <circle id="Ellipse_18" data-name="Ellipse 18" cx="4.313" cy="4.313" r="4.313" transform="translate(1755.146 1270.594)" fill="#e1e1e1"/>
      <path id="Path_230" data-name="Path 230" d="M1816.945,1274.907a4.313,4.313,0,1,1-4.313-4.313A4.312,4.312,0,0,1,1816.945,1274.907Z" fill="#e1e1e1"/>
    </g>
    <g id="Group_83" data-name="Group 83">
      <path id="Path_231" data-name="Path 231" d="M1604.252,1321.543a4.313,4.313,0,1,1-4.313-4.313A4.313,4.313,0,0,1,1604.252,1321.543Z" fill="#e1e1e1"/>
      <path id="Path_232" data-name="Path 232" d="M1657.425,1321.543a4.313,4.313,0,1,1-4.312-4.313A4.313,4.313,0,0,1,1657.425,1321.543Z" fill="#e1e1e1"/>
      <path id="Path_233" data-name="Path 233" d="M1710.6,1321.543a4.313,4.313,0,1,1-4.313-4.313A4.313,4.313,0,0,1,1710.6,1321.543Z" fill="#e1e1e1"/>
      <path id="Path_234" data-name="Path 234" d="M1763.772,1321.543a4.313,4.313,0,1,1-4.313-4.313A4.313,4.313,0,0,1,1763.772,1321.543Z" fill="#e1e1e1"/>
      <path id="Path_235" data-name="Path 235" d="M1816.945,1321.543a4.313,4.313,0,1,1-4.313-4.313A4.312,4.312,0,0,1,1816.945,1321.543Z" fill="#e1e1e1"/>
    </g>
  </g>
</svg>
