<svg xmlns="http://www.w3.org/2000/svg" width="141.098" height="124.427" viewBox="0 0 141.098 124.427">
  <g id="Group_90" data-name="Group 90" transform="translate(-222.423 -861.174)">
    <g id="Group_85" data-name="Group 85">
      <path id="Path_236" data-name="Path 236" d="M227.922,863.924a2.749,2.749,0,1,1-2.75-2.75A2.749,2.749,0,0,1,227.922,863.924Z" fill="#e1e1e1"/>
      <path id="Path_237" data-name="Path 237" d="M261.822,863.924a2.749,2.749,0,1,1-2.75-2.75A2.749,2.749,0,0,1,261.822,863.924Z" fill="#e1e1e1"/>
      <path id="Path_238" data-name="Path 238" d="M295.721,863.924a2.75,2.75,0,1,1-2.749-2.75A2.749,2.749,0,0,1,295.721,863.924Z" fill="#e1e1e1"/>
      <path id="Path_239" data-name="Path 239" d="M329.621,863.924a2.749,2.749,0,1,1-2.749-2.75A2.749,2.749,0,0,1,329.621,863.924Z" fill="#e1e1e1"/>
      <circle id="Ellipse_19" data-name="Ellipse 19" cx="2.75" cy="2.75" r="2.75" transform="translate(358.022 861.174)" fill="#e1e1e1"/>
    </g>
    <g id="Group_86" data-name="Group 86">
      <path id="Path_240" data-name="Path 240" d="M227.922,893.656a2.749,2.749,0,1,1-2.75-2.75A2.75,2.75,0,0,1,227.922,893.656Z" fill="#e1e1e1"/>
      <path id="Path_241" data-name="Path 241" d="M261.822,893.656a2.749,2.749,0,1,1-2.75-2.75A2.75,2.75,0,0,1,261.822,893.656Z" fill="#e1e1e1"/>
      <path id="Path_242" data-name="Path 242" d="M295.721,893.656a2.75,2.75,0,1,1-2.749-2.75A2.749,2.749,0,0,1,295.721,893.656Z" fill="#e1e1e1"/>
      <path id="Path_243" data-name="Path 243" d="M329.621,893.656a2.749,2.749,0,1,1-2.749-2.75A2.749,2.749,0,0,1,329.621,893.656Z" fill="#e1e1e1"/>
      <circle id="Ellipse_20" data-name="Ellipse 20" cx="2.75" cy="2.75" r="2.75" transform="translate(358.022 890.906)" fill="#e1e1e1"/>
    </g>
    <g id="Group_87" data-name="Group 87">
      <path id="Path_244" data-name="Path 244" d="M227.922,923.388a2.749,2.749,0,1,1-2.75-2.75A2.75,2.75,0,0,1,227.922,923.388Z" fill="#e1e1e1"/>
      <path id="Path_245" data-name="Path 245" d="M261.822,923.388a2.749,2.749,0,1,1-2.75-2.75A2.75,2.75,0,0,1,261.822,923.388Z" fill="#e1e1e1"/>
      <path id="Path_246" data-name="Path 246" d="M295.721,923.388a2.75,2.75,0,1,1-2.749-2.75A2.749,2.749,0,0,1,295.721,923.388Z" fill="#e1e1e1"/>
      <path id="Path_247" data-name="Path 247" d="M329.621,923.388a2.749,2.749,0,1,1-2.749-2.75A2.749,2.749,0,0,1,329.621,923.388Z" fill="#e1e1e1"/>
      <path id="Path_248" data-name="Path 248" d="M363.521,923.388a2.749,2.749,0,1,1-2.75-2.75A2.75,2.75,0,0,1,363.521,923.388Z" fill="#e1e1e1"/>
    </g>
    <g id="Group_88" data-name="Group 88">
      <path id="Path_249" data-name="Path 249" d="M227.922,953.119a2.749,2.749,0,1,1-2.75-2.749A2.75,2.75,0,0,1,227.922,953.119Z" fill="#e1e1e1"/>
      <path id="Path_250" data-name="Path 250" d="M261.822,953.119a2.749,2.749,0,1,1-2.75-2.749A2.75,2.75,0,0,1,261.822,953.119Z" fill="#e1e1e1"/>
      <path id="Path_251" data-name="Path 251" d="M295.721,953.119a2.75,2.75,0,1,1-2.749-2.749A2.75,2.75,0,0,1,295.721,953.119Z" fill="#e1e1e1"/>
      <path id="Path_252" data-name="Path 252" d="M329.621,953.119a2.749,2.749,0,1,1-2.749-2.749A2.75,2.75,0,0,1,329.621,953.119Z" fill="#e1e1e1"/>
      <path id="Path_253" data-name="Path 253" d="M363.521,953.119a2.749,2.749,0,1,1-2.75-2.749A2.75,2.75,0,0,1,363.521,953.119Z" fill="#e1e1e1"/>
    </g>
    <g id="Group_89" data-name="Group 89">
      <path id="Path_254" data-name="Path 254" d="M227.922,982.851a2.749,2.749,0,1,1-2.75-2.75A2.75,2.75,0,0,1,227.922,982.851Z" fill="#e1e1e1"/>
      <path id="Path_255" data-name="Path 255" d="M261.822,982.851a2.749,2.749,0,1,1-2.75-2.75A2.75,2.75,0,0,1,261.822,982.851Z" fill="#e1e1e1"/>
      <path id="Path_256" data-name="Path 256" d="M295.721,982.851a2.75,2.75,0,1,1-2.749-2.75A2.75,2.75,0,0,1,295.721,982.851Z" fill="#e1e1e1"/>
      <path id="Path_257" data-name="Path 257" d="M329.621,982.851a2.749,2.749,0,1,1-2.749-2.75A2.75,2.75,0,0,1,329.621,982.851Z" fill="#e1e1e1"/>
      <circle id="Ellipse_21" data-name="Ellipse 21" cx="2.75" cy="2.75" r="2.75" transform="translate(358.022 980.101)" fill="#e1e1e1"/>
    </g>
  </g>
</svg>
