<svg xmlns="http://www.w3.org/2000/svg" width="771.947" height="420.957" viewBox="0 0 771.947 420.957">
  <g id="Group_98" data-name="Group 98" transform="translate(-867.99 -1739.693)">
    <ellipse id="Ellipse_27" data-name="Ellipse 27" cx="385.973" cy="8.965" rx="385.973" ry="8.965" transform="translate(867.99 2142.719)" fill="#e6e6e6"/>
    <path id="Path_263" data-name="Path 263" d="M1594.966,1854.98H1405.671v-.991a2.91,2.91,0,0,0-2.91-2.911h-80.013a2.91,2.91,0,0,0-2.91,2.911h0v.991H1129.763a12.8,12.8,0,0,0-12.8,12.8v259.2a12.8,12.8,0,0,0,12.8,12.8h465.2a12.8,12.8,0,0,0,12.805-12.8h0v-259.2a12.8,12.8,0,0,0-12.805-12.8Z" fill="#3f3d56"/>
    <path id="Path_264" data-name="Path 264" d="M1139.945,1876.931a1.479,1.479,0,0,0-1.461,1.491v250.837a1.478,1.478,0,0,0,1.461,1.491h444.838a1.478,1.478,0,0,0,1.461-1.491V1878.422a1.479,1.479,0,0,0-1.461-1.491Z" fill="#fff"/>
    <circle id="Ellipse_28" data-name="Ellipse 28" cx="4.682" cy="4.682" r="4.682" transform="translate(1357.292 1861.222)" fill="#007cff"/>
    <path id="Path_265" data-name="Path 265" d="M1616.3,2122.322h-44.55v-4.6c0-.253-.284-.458-.636-.458h-15.274c-.352,0-.636.205-.636.458v4.6h-9.547v-4.6c0-.253-.285-.458-.636-.458h-15.274c-.352,0-.637.205-.637.458v4.6h-9.546v-4.6c0-.253-.285-.458-.636-.458H1503.65c-.352,0-.637.205-.637.458v4.6h-9.546v-4.6c0-.253-.285-.458-.637-.458h-15.274c-.351,0-.636.205-.636.458v4.6h-9.546v-4.6c0-.253-.285-.458-.637-.458h-15.274c-.351,0-.636.205-.636.458v4.6h-9.547v-4.6c0-.253-.284-.458-.636-.458H1425.37c-.352,0-.636.205-.636.458v4.6h-9.547v-4.6c0-.253-.285-.458-.636-.458H1294.9c-.352,0-.637.205-.637.458v4.6h-9.546v-4.6c0-.253-.285-.458-.636-.458h-15.274c-.352,0-.637.205-.637.458v4.6h-9.546v-4.6c0-.253-.285-.458-.636-.458h-15.274c-.352,0-.637.205-.637.458v4.6h-9.546v-4.6c0-.253-.285-.458-.637-.458h-15.274c-.351,0-.636.205-.636.458v4.6h-9.546v-4.6c0-.253-.285-.458-.637-.458h-15.274c-.351,0-.636.205-.636.458v4.6h-9.547v-4.6c0-.253-.285-.458-.636-.458h-15.274c-.352,0-.637.205-.637.458v4.6h-9.546v-4.6c0-.253-.285-.458-.636-.458h-15.274c-.352,0-.637.205-.637.458v4.6h-29.275c-8.436,0-15.274,4.916-15.274,10.98v4.965c0,6.064,6.838,10.98,15.274,10.98H1616.3c8.436,0,15.274-4.916,15.274-10.98V2133.3C1631.57,2127.238,1624.731,2122.322,1616.3,2122.322Z" fill="#3f3d56"/>
    <rect id="Rectangle_201" data-name="Rectangle 201" width="168.755" height="162.543" rx="3.106" transform="translate(1368.033 1926.138)" fill="#e6e6e6"/>
    <path id="Path_266" data-name="Path 266" d="M1017.185,1779.441a104.719,104.719,0,0,1-1.211,21.813s-8.483,19.389,1.211,27.872,27.872-25.449,27.872-25.449c-1.257-7.528-1.982-14.6,0-19.389Z" fill="#fcb373"/>
    <path id="Path_267" data-name="Path 267" d="M1030.515,2016.957v26.66s-3.635,49.684,0,61.8l-1.212,23.024h13.33l3.636-27.872s10.906-35.142,7.271-56.955l2.423-26.66Z" fill="#fcb373"/>
    <path id="Path_268" data-name="Path 268" d="M1011.126,2016.957v26.66s3.636,49.684,0,61.8l1.212,23.024h-13.33l-3.635-27.872s-10.907-35.142-7.271-56.955l-2.424-26.66Z" fill="#fcb373"/>
    <path id="Path_269" data-name="Path 269" d="M980.225,1916.982s-7.271,46.049-2.424,72.709,4.848,35.143,4.848,35.143l30.295-1.212,8.483-49.684,7.271,50.9,36.354-6.059s0-38.778,1.212-47.261,1.212-56.955,1.212-56.955Z" fill="#2f2e41"/>
    <path id="Path_270" data-name="Path 270" d="M1045.057,2128.444s-13.33-8.483-19.389,0v14.542s-4.847,10.906,12.118,8.483,10.907-10.907,10.907-10.907Z" fill="#2f2e41"/>
    <path id="Path_271" data-name="Path 271" d="M996.584,2128.444s13.33-8.483,19.39,0v14.542s4.847,10.906-12.119,8.483-10.906-10.907-10.906-10.907Z" fill="#2f2e41"/>
    <circle id="Ellipse_29" data-name="Ellipse 29" cx="19.389" cy="19.389" r="19.389" transform="translate(1013.55 1752.781)" fill="#fcb373"/>
    <path id="Path_272" data-name="Path 272" d="M1024.456,1818.219l-8.335-19.612-8.63,3.859-10.907,63.014,1.212,60.591s55.744-2.424,63.015,1.212-8.483-118.758-8.483-118.758l-7.271-9.07Z" fill="#007cff"/>
    <path id="Path_273" data-name="Path 273" d="M1017.437,1791.559s-18.429,4.848-18.429,12.119c0,0-18.177,3.635-18.177,7.27s-1.212,95.734-1.212,95.734-10.906,20.6-2.424,37.566l-1.211,9.695,24.236,2.423,16.965-149.053Z" fill="#2f2e41"/>
    <path id="Path_274" data-name="Path 274" d="M1043.594,1791.559s18.429,4.848,18.429,12.119c0,0,18.177,3.635,18.177,7.27s1.212,95.734,1.212,95.734,10.906,20.6,2.423,37.566l1.212,9.695-24.236,2.423-16.966-149.053Z" fill="#2f2e41"/>
    <path id="Path_275" data-name="Path 275" d="M1048.693,1746.722s1.211-4.847-4.848-2.423c0,0-7.271-8.483-14.542-2.424,0,0-14.541-2.424-14.541,9.694s-.686,16.12-.686,16.12,4.321-11.272,12.8-10.06c5.184.74,8.1.123,9.593-.469a7.274,7.274,0,0,1,5.077-.241,7.9,7.9,0,0,1,4.719,4.345,36.316,36.316,0,0,0,2.627,4.968,30.771,30.771,0,0,1,3.411,6.787h0l2.445-14.179s1.211-7.271-2.424-9.694C1052.328,1749.146,1053.54,1745.51,1048.693,1746.722Z" fill="#2f2e41"/>
    <rect id="Rectangle_202" data-name="Rectangle 202" width="326.344" height="106.316" transform="translate(1090.545 1953.25)" fill="#007cff"/>
    <path id="Path_276" data-name="Path 276" d="M958.412,1937.583s-7.271,27.872,3.636,25.448,8.482-26.66,8.482-26.66Z" fill="#fcb373"/>
    <path id="Path_277" data-name="Path 277" d="M1102.618,1937.583s7.271,27.872-3.635,25.448-8.483-26.66-8.483-26.66Z" fill="#fcb373"/>
    <path id="Path_278" data-name="Path 278" d="M986.89,1810.948l-3.345-2.6s-3.926.18-5.138,2.6-20.6,63.015-20.6,63.015-6.059,31.507-2.423,50.9l1.212,14.542H973.56l-1.212-23.025,12.118-46.049Z" fill="#2f2e41"/>
    <path id="Path_279" data-name="Path 279" d="M1074.141,1810.948l3.345-2.6s3.926.18,5.137,2.6,20.6,63.015,20.6,63.015,6.059,31.507,2.424,50.9l-1.212,14.542h-16.965l1.211-23.025-12.118-46.049Z" fill="#2f2e41"/>
    <rect id="Rectangle_203" data-name="Rectangle 203" width="18.49" height="18.49" transform="translate(1153.872 1966.655)" fill="#fff"/>
    <rect id="Rectangle_204" data-name="Rectangle 204" width="148.842" height="1.849" transform="translate(1204.719 1974.975)" fill="#fff"/>
    <rect id="Rectangle_205" data-name="Rectangle 205" width="18.49" height="18.49" transform="translate(1153.872 1997.163)" fill="#fff"/>
    <rect id="Rectangle_206" data-name="Rectangle 206" width="148.842" height="1.849" transform="translate(1204.719 2005.483)" fill="#fff"/>
    <rect id="Rectangle_207" data-name="Rectangle 207" width="18.49" height="18.49" transform="translate(1153.872 2027.671)" fill="#fff"/>
    <rect id="Rectangle_208" data-name="Rectangle 208" width="148.842" height="1.849" transform="translate(1204.719 2035.991)" fill="#fff"/>
  </g>
</svg>
