<svg xmlns="http://www.w3.org/2000/svg" width="221.152" height="219.137" viewBox="0 0 221.152 219.137">
  <g id="Group_628" data-name="Group 628" transform="translate(-344.866 -309.082)">
    <g id="Group_625" data-name="Group 625">
      <g id="Group_624" data-name="Group 624">
        <rect id="Rectangle_634" data-name="Rectangle 634" width="149.934" height="149.934" transform="translate(344.866 309.082)" fill="#007cff"/>
        <path id="Path_1013" data-name="Path 1013" d="M406.863,370.614l.017,60.951h13.946l-.017-47.005h47.005V370.614Z" fill="#007cff"/>
      </g>
    </g>
    <g id="Group_627" data-name="Group 627">
      <g id="Group_626" data-name="Group 626">
        <path id="Path_1014" data-name="Path 1014" d="M434.03,420.559h.194l5.059-29.939h8.9l-9.056,46.922h-8.54L423.976,408.8h-.194l-6.542,28.746h-8.508l-9.055-46.922h8.894l5.06,29.939h.193l6.768-29.939h6.574Z" fill="#fff"/>
        <path id="Path_1015" data-name="Path 1015" d="M485.7,420.688q0,8.25-4.479,12.89t-11.924,4.641q-7.445,0-11.892-4.641t-4.447-12.89V407.539q0-8.217,4.447-12.907t11.86-4.689q7.412,0,11.924,4.689t4.511,12.907Zm-9.12-13.249q0-5.041-1.869-7.611a6.313,6.313,0,0,0-5.446-2.569,6.192,6.192,0,0,0-5.414,2.553q-1.8,2.553-1.8,7.627V420.69q0,5.107,1.837,7.661a7.019,7.019,0,0,0,10.828,0q1.869-2.555,1.869-7.661Z" fill="#fff"/>
        <path id="Path_1016" data-name="Path 1016" d="M502.492,418.883v18.659H493.34v-46.89h15.307q6.93,0,10.877,3.658t3.948,10.168a11.8,11.8,0,0,1-1.644,6.332,11.525,11.525,0,0,1-4.8,4.238,8.984,8.984,0,0,1,5.205,4.06,14.31,14.31,0,0,1,1.595,7.09v3.32a20.788,20.788,0,0,0,.451,4.141,5.675,5.675,0,0,0,1.579,3.206v.677h-9.474a5.289,5.289,0,0,1-1.418-3.352,38.221,38.221,0,0,1-.29-4.737v-3.19a9,9,0,0,0-1.435-5.447,4.805,4.805,0,0,0-4.108-1.933Zm0-7.316h6.123a5.266,5.266,0,0,0,4.254-1.708,7.306,7.306,0,0,0,1.45-4.866,8.247,8.247,0,0,0-1.45-5.124,4.987,4.987,0,0,0-4.222-1.9h-6.155Z" fill="#3f3f3f"/>
        <path id="Path_1017" data-name="Path 1017" d="M545.586,418.045h-4v19.5h-9.185V390.62h9.185V409.7h2.965l9.152-19.078h11.247L552.16,412.051l13.858,25.491H554.867Z" fill="#3f3f3f"/>
        <path id="Path_1018" data-name="Path 1018" d="M411.729,520.227h17.145v7.315H402.545V480.62h9.184Z" fill="#3f3f3f"/>
        <path id="Path_1019" data-name="Path 1019" d="M444.7,527.542h-9.12V480.62h9.12Z" fill="#3f3f3f"/>
        <path id="Path_1020" data-name="Path 1020" d="M474.81,515.3a6.293,6.293,0,0,0-1.418-4.335,14.468,14.468,0,0,0-5-3.142q-7.314-2.544-10.972-5.784t-3.658-9.072a11.766,11.766,0,0,1,4.254-9.394,16.155,16.155,0,0,1,10.86-3.626,15.026,15.026,0,0,1,10.892,4.045,13.169,13.169,0,0,1,4.061,10.2l-.064.193h-8.9a8.065,8.065,0,0,0-1.611-5.221,6.239,6.239,0,0,0-8.814-.338,5.916,5.916,0,0,0-1.531,4.173,4.854,4.854,0,0,0,1.708,3.819,24.054,24.054,0,0,0,5.93,3.335q6.67,2.256,10.038,5.721t3.368,9.361a11.845,11.845,0,0,1-4.061,9.54q-4.061,3.449-10.8,3.448a18.077,18.077,0,0,1-11.617-3.916q-4.916-3.915-4.754-11.231l.065-.193h8.927q0,4.35,1.837,6.252t5.542,1.9a5.524,5.524,0,0,0,4.3-1.547A6,6,0,0,0,474.81,515.3Z" fill="#3f3f3f"/>
        <path id="Path_1021" data-name="Path 1021" d="M518.967,487.936H508.4v39.606h-9.152V487.936H488.738V480.62h30.229Z" fill="#3f3f3f"/>
      </g>
    </g>
  </g>
</svg>
