<svg xmlns="http://www.w3.org/2000/svg" width="767.278" height="542.27" viewBox="0 0 767.278 542.27">
  <g id="Group_467" data-name="Group 467" transform="translate(-3814.296 -132.009)">
    <g id="Group_434" data-name="Group 434" opacity="0.3">
      <g id="Group_433" data-name="Group 433">
        <path id="Path_318" data-name="Path 318" d="M3975.5,200.958c25.253,1.4,35.817-12.866,47.682-31.2,32.482-50.2,104.82-45.36,129.085-14.45,17.188,21.894,54.252,17.39,84.235,8.821,29.509-8.433,79.787-16.535,119.834-6.457,34.978,8.8,49.329,40.56,81.215,38.606,69.557-4.262,104.623,52.6,92.024,77.391-8.223,16.185-12.305,34.289-5.619,50.943,7.363,18.342,24.182,32.863,37.776,48.63s24.542,35.479,17.784,53.977c-5.782,15.828-23.032,26.779-33.74,40.776-33.252,43.468-.358,110.083-44.666,146.315-31.714,25.933-83.422,19.947-127.8,24.9-37.007,4.128-71.833,16.995-108.672,22.037-74.6,10.209-149.945-12.278-225.576-12.912-26.64-.224-53.779,2.234-79.582-3.206-34.427-7.257-63.724-29.188-75.668-56.645-16.482-37.887-.866-81.733-19.485-118.947-15.169-30.318-52.263-54.982-49.929-87.7,1.452-20.366,18.258-37.4,29.816-55.468C3861.394,299.521,3838.65,193.375,3975.5,200.958Zm220.153-49.18c-6.638,0-12.018,3.413-12.018,7.623s5.4,7.26,12.018,7.622c21.582,1.181,21.582-6.043,21.582-10.253C4217.238,150.045,4202.293,151.778,4195.656,151.778Zm219.178,32.505a40.012,40.012,0,0,0,20.629,6.627c2,.085,4.186-.02,5.73-1.071a3.431,3.431,0,0,0,.423-5.446,11.823,11.823,0,0,0-4.068-1.844c-2.467-.83-4.885-2.018-6.282-3.881a4.058,4.058,0,0,0-1.427-1.473C4425.662,175.25,4407.24,179.091,4414.834,184.283Zm36.762,6.734c1.9.543,3.982.043,5.894-.471,1.226-.329,2.731-1.056,2.4-2.079a2.14,2.14,0,0,0-1.267-1.062c-2.517-1.115-5.78-1.936-8.309-.511S4449.7,190.474,4451.6,191.017Zm87.773,143.577c.328,2.371,2.095,4.419,3.806,6.35,3.3,3.725,6.647,7.495,11,10.4a12.32,12.32,0,0,0,6.357,2.4,11.311,11.311,0,0,0,5.986-1.789,15.522,15.522,0,0,0,7.742-10.879c.81-5.893-2.5-11.63-6.352-16.65-2.385-3.109-5.167-6.207-9.158-7.874-6.691-2.8-11.113-.355-12.982,4.551C4544.047,325.615,4538.673,329.566,4539.369,334.594ZM3827.43,471.8c-3.524,2.57-.345,10.092.7,15.056a8.258,8.258,0,0,0,1.864,4.217c1.553,1.626,4.131,2.293,6.549,2.873,4.289,1.03,9.488,1.9,12.763-.591,2.43-1.851,2.774-4.867,2.77-7.587a59,59,0,0,0-.484-7.438,6.909,6.909,0,0,0-1.127-3.423,9.328,9.328,0,0,0-4.437-2.652C3839.887,470.105,3830.954,469.23,3827.43,471.8ZM4042.8,660.22c-2.085.346-4.574,1.092-4.875,2.819-.249,1.425,1.2,2.643,2.6,3.51,11.5,7.1,26.977,7.558,41.373,7.724a14.694,14.694,0,0,0,4.968-.51c3.08-1.075,4.558-4.432,3.124-6.912a9.046,9.046,0,0,0-2.22-2.369C4076.205,655.159,4057.19,657.83,4042.8,660.22Zm287.21-4.807c-12.98,7.863.148,14.879,16.542,9.672,8.834-2.806,17.3-5.577,26.345-7.454,2.922-.607,20.59-3.77,20.592-7.057.006-8.709-19.907-6.653-32.43-5.2C4350.96,646.543,4340.712,648.93,4330.008,655.413Z" fill="#a5c4ff"/>
      </g>
    </g>
    <g id="Group_466" data-name="Group 466">
      <ellipse id="Ellipse_296" data-name="Ellipse 296" cx="51.73" cy="4.834" rx="51.73" ry="4.834" transform="translate(4053.585 623.037)" fill="#c8dbfb"/>
      <ellipse id="Ellipse_297" data-name="Ellipse 297" cx="51.73" cy="4.834" rx="51.73" ry="4.834" transform="translate(4319.35 623.037)" fill="#c8dbfb"/>
      <g id="Group_435" data-name="Group 435">
        <path id="Path_319" data-name="Path 319" d="M4480.378,287.591c-6.463-39.736-38.373-36.228-67-36.169l-471.842.974c-44.54.092-40.229,64.393-5.354,64.321,20.051-.042,27.675,37.609-6.993,37.681-23.129.048-21.361,32.644-2.238,32.6" fill="none" stroke="#c8dbfb" stroke-linecap="round" stroke-linejoin="round" stroke-width="1.339" stroke-dasharray="5.354"/>
        <path id="Path_320" data-name="Path 320" d="M3932.417,385.786a6.41,6.41,0,1,1-7.4-5.241A6.41,6.41,0,0,1,3932.417,385.786Z" fill="#5193f4"/>
        <path id="Path_321" data-name="Path 321" d="M4486.688,290.473a6.41,6.41,0,1,1-5.158-7.455A6.411,6.411,0,0,1,4486.688,290.473Z" fill="#5193f4"/>
      </g>
      <g id="Group_453" data-name="Group 453">
        <g id="Group_436" data-name="Group 436">
          <path id="Path_322" data-name="Path 322" d="M3997.758,338.962a111.648,111.648,0,0,1-3.922,15.313c-3.547,10.829-8.446,21.256-13.4,31.549-2.584,5.381-13.064,17.829-18.686,20.2.656-14.042.709-30.439-.924-44.613-1.566-13.653,3.346-24-2.008-36.663-.682-1.619-1.392-3.239-2.1-4.858-2.664-6.024-5.3-12.074-6.131-18.566-1.07-8.232,1.486-17.615,8.607-21.9,5.127-3.079,11.806-2.918,17.28-.495s9.865,6.853,13.2,11.819C3999,304.616,4000.689,322.525,3997.758,338.962Z" fill="#5193f4"/>
          <path id="Path_323" data-name="Path 323" d="M3972.861,293.487c10.482,14.8,11.39,32.044,12.3,50.156a96.729,96.729,0,0,1-12.393,52.233" fill="none" stroke="#0b43a4" stroke-linecap="round" stroke-linejoin="round" stroke-width="1.339"/>
        </g>
        <g id="Group_437" data-name="Group 437">
          <path id="Path_324" data-name="Path 324" d="M3972.423,566.519c-7.345-6.492-14.777-13.083-20.205-21.246-4.728-7.109-7.78-15.184-11.9-22.659-2.669-4.838-5.82-9.5-7.366-14.8s-1.176-11.585,2.594-15.626c3.931-4.214,10.693-4.86,16.031-2.688s9.419,6.659,12.535,11.507a54.841,54.841,0,0,1,8.056,21.321c1.044,6.855.778,13.861,1.842,20.714a69.353,69.353,0,0,0,5.844,18.366c2.454,5.306,8.67,14.765,10.255,20.2C3985.713,583.807,3975.555,569.287,3972.423,566.519Z" fill="#00ad9f"/>
          <path id="Path_325" data-name="Path 325" d="M3946.739,499.2c6.985,3.057,9.762,11.388,11.219,18.872,1.659,8.517,1.291,17.741,5.2,25.49,7.357,14.6,16.933,31.215,24.05,36.18" fill="none" stroke="#00ad9f" stroke-linecap="round" stroke-linejoin="round" stroke-width="1.339" style="mix-blend-mode: multiply;isolation: isolate"/>
        </g>
        <g id="Group_438" data-name="Group 438">
          <path id="Path_326" data-name="Path 326" d="M3936.271,546.548c-6.1-2.408-14.237-3.4-18.146,1.865-3.272,4.4-1.578,10.648.683,15.649,1.908,4.221,4.332,8.513,8.357,10.808,2.749,1.567,5.97,2.038,9.113,2.412a218.181,218.181,0,0,0,26.419,1.528c10.231-.029,22.623,4.149,31.087,10.529C3982.922,569.148,3956.788,554.65,3936.271,546.548Z" fill="#0056ec"/>
          <path id="Path_327" data-name="Path 327" d="M3925.575,559.673c7.76.331,15.59.876,23.038,3.079,7.616,2.252,36.913,15.7,41.492,21.419" fill="none" stroke="#0b43a4" stroke-linecap="round" stroke-linejoin="round" stroke-width="1.339"/>
        </g>
        <g id="Group_439" data-name="Group 439">
          <path id="Path_328" data-name="Path 328" d="M4002.765,505.114a51.638,51.638,0,0,0-36.12-23.056c-10.789-1.45-21.891.569-32.538-1.677a41.466,41.466,0,0,1-31.2-52.481c2.5-8.33,8.216-16.219,16.489-18.892a26.175,26.175,0,0,1,14.044-.142,39.065,39.065,0,0,1,11.841,5.118c8.33,5.273,15.054,13.39,20.114,22,4.592,7.832,15.921,20.029,23.625,27.96,4.52,4.634,7.8,7.8,7.8,7.8C4002.111,478.319,3999.637,497.282,4002.765,505.114Z" fill="#52d2bc"/>
          <path id="Path_329" data-name="Path 329" d="M3916.99,433.089c25.924,11.705,54.2,27.042,72.588,48.745" fill="none" stroke="#00ad9f" stroke-linecap="round" stroke-linejoin="round" stroke-width="1.339"/>
        </g>
        <g id="Group_440" data-name="Group 440">
          <path id="Path_330" data-name="Path 330" d="M3992.061,478.917s-38.636-31.316-46.781-64.933c8.33,5.273,15.054,13.39,20.114,22,4.592,7.832,15.921,20.029,23.625,27.96C3989.929,468.156,3990.938,473.088,3992.061,478.917Z" fill="#5275a0" opacity="0.2" style="mix-blend-mode: multiply;isolation: isolate"/>
          <path id="Path_331" data-name="Path 331" d="M3993.836,354.275c-3.547,10.829-8.446,21.256-13.4,31.549-2.584,5.381-13.064,17.829-18.686,20.2.656-14.042.709-30.439-.924-44.613-1.566-13.653,3.346-24-2.008-36.663-.682-1.619-1.392-3.239-2.1-4.858.5.16.977.334,1.445.535,8.808,3.775,12.877,13.091,13.627,22.139.629,7.469-.723,14.951-1.727,22.38-.469,3.427-.843,6.934-.107,10.293a.331.331,0,0,1,.027.108c.923,4,6.773,3.774,7.522-.282l2.343-12.434c.7-3.722,1.459-7.617,4.51-10.213a6.443,6.443,0,0,1,4.337-1.62A5.94,5.94,0,0,1,3993.836,354.275Z" fill="#5275a0" opacity="0.2" style="mix-blend-mode: multiply;isolation: isolate"/>
          <path id="Path_332" data-name="Path 332" d="M3992.066,471.064c-6.1-31.867-9.311-36.778-6.627-44.767,3.42-10.181,1.5-20.417,4.725-30.661s5.424-21.26,2.82-31.68c-.823-3.294-2.491-6.886-6.449-7.023a6.446,6.446,0,0,0-4.342,1.616c-3.05,2.6-3.82,6.493-4.517,10.213l-2.331,12.437c-.757,4.045-6.6,4.282-7.526.272l-.023-.1c-.748-3.366-.363-6.871.1-10.289,1-7.435,2.353-14.914,1.735-22.391-.749-9.048-4.821-18.365-13.634-22.131a15.58,15.58,0,0,0-9.941-.794c-9.2,2.361-11.578,11.35-10.229,19.026.949,5.4,3.484,10.368,5.775,15.351,5.6,12.169,1.491,23.33,2.266,36.7C3946,433.748,3992.066,471.064,3992.066,471.064Z" fill="#7ee8d4"/>
          <path id="Path_333" data-name="Path 333" d="M3951.027,335.412c4.539,22.675,9.127,45.515,17.937,66.9,2.583,6.271,3.846,14.523,18.8,31.58" fill="none" stroke="#00ad9f" stroke-linecap="round" stroke-linejoin="round" stroke-width="1.339"/>
        </g>
        <g id="Group_441" data-name="Group 441">
          <path id="Path_334" data-name="Path 334" d="M4128.037,341.225c-4.7-5.368-9.035-10.829-13.6-16.089-2.958-3.414-6.01-6.747-9.329-9.906-1.647-1.579-3.347-3.105-5.14-4.591a144.3,144.3,0,0,0-35.083-21.429c-7.63-3.266-15.688-5.957-22.166-11.164s-11.136-13.733-8.981-21.751c1.566-5.782,6.478-10.28,12.113-12.341s11.86-1.887,17.709-.629c16.33,3.52,29.969,15.259,39.245,29.14.161.241.335.495.5.749,6.8,10.374,11.551,21.912,15.687,33.664,1.325,3.775,2.583,7.576,3.828,11.364C4124.69,323.9,4130.446,335.616,4128.037,341.225Z" fill="#5193f4"/>
          <path id="Path_335" data-name="Path 335" d="M4053.338,256.955c17.814,3.4,30.425,15.193,43.638,27.616A96.716,96.716,0,0,1,4124.26,330.8" fill="none" stroke="#0b43a4" stroke-linecap="round" stroke-linejoin="round" stroke-width="1.339"/>
        </g>
        <g id="Group_442" data-name="Group 442">
          <path id="Path_336" data-name="Path 336" d="M4114.437,325.136a21.081,21.081,0,0,0,.254,5.568c-4.457-1.017-7.549-7.938-9.583-15.474a116.237,116.237,0,0,1-3.293-18.9,81.785,81.785,0,0,1,1.486-23.116c6.8,10.374,11.551,21.912,15.687,33.664q-2.128,6.324-3.641,12.8A37.176,37.176,0,0,0,4114.437,325.136Z" fill="#5275a0" opacity="0.2" style="mix-blend-mode: multiply;isolation: isolate"/>
          <path id="Path_337" data-name="Path 337" d="M4145.353,260.82c-1.507,6.681-5.544,12.452-9.1,18.308-1.876,3.085-3.624,6.255-5.259,9.467a143.935,143.935,0,0,0-11.855,32.424,26.309,26.309,0,0,0-.654,11.031c-8.785-2-12.282-26.966-12.879-34.386a80.908,80.908,0,0,1,6.724-39.289c2.4-5.373,5.5-10.647,10.277-14.087s11.514-4.648,16.56-1.649a13.5,13.5,0,0,1,5.942,8.216A20.382,20.382,0,0,1,4145.353,260.82Z" fill="#52d2bc"/>
          <path id="Path_338" data-name="Path 338" d="M4115.12,324.683c-5.461-13.716-2.143-42.748,6.618-60.994,2.639-5.5,6.4-10.652,11.664-13.724" fill="none" stroke="#00ad9f" stroke-linecap="round" stroke-linejoin="round" stroke-width="1.339"/>
        </g>
        <g id="Group_443" data-name="Group 443">
          <path id="Path_339" data-name="Path 339" d="M4145.353,260.82c-1.507,6.681-5.544,12.452-9.1,18.308-1.876,3.085-3.624,6.255-5.259,9.467a31.92,31.92,0,0,1-4.492-13.163c-.739-7.775,2.232-16.105,8.557-20.682a22.93,22.93,0,0,1,10.05-3.9A20.382,20.382,0,0,1,4145.353,260.82Z" fill="#5275a0" opacity="0.2" style="mix-blend-mode: multiply;isolation: isolate"/>
          <path id="Path_340" data-name="Path 340" d="M4196.014,318.915a28.376,28.376,0,0,1-2.274,7.392c-3.9,8.429-12.069,15.665-24.322,21.55,0,0-.682-13.334-.824-16.9-.6-15.281-17.186-23.738-27.676-34.883-5.345-5.686-9.4-12.864-10.15-20.64s2.232-16.105,8.558-20.682c5.3-3.824,12.239-4.663,18.763-4.165,10.519.839,21.138,5.245,27.676,13.461a12.122,12.122,0,0,1,.768.967c4.008,5.473,6.07,12.139,7.576,18.778C4196.725,295.29,4197.9,307.259,4196.014,318.915Z" fill="#00ad9f"/>
          <path id="Path_341" data-name="Path 341" d="M4143.833,262.948c11.48,5.938,22.981,13.117,29.667,24.178,9.328,15.43,7.295,35.509.1,52.042" fill="none" stroke="#00ad9f" stroke-linecap="round" stroke-linejoin="round" stroke-width="1.339" style="mix-blend-mode: multiply;isolation: isolate"/>
        </g>
        <g id="Group_444" data-name="Group 444">
          <path id="Path_342" data-name="Path 342" d="M4388.089,417.5c7.318-12.047,3.581-27.543,6.128-41.406a45.754,45.754,0,0,1,16.372-27.278c5.324-4.23,12.8-7.252,18.82-4.081,1.3.687,2.853,1.653,4.108.881a3.281,3.281,0,0,0,1.226-2.251c1.526-7.488-2.074-15.666.867-22.719,1.584-3.8,4.86-6.633,8.33-8.844a45.407,45.407,0,0,1,22.444-7.042,12.57,12.57,0,0,1,6.177.939c3.4,1.7,4.957,5.941,4.5,9.719s-2.539,7.159-4.851,10.181c-7.686,10.048-18.946,18.72-20.431,31.283a8.163,8.163,0,0,0,.541,4.687c.705,1.372,2.016,2.352,2.753,3.707,2.366,4.35-2.205,9.283-6.672,11.422a38.482,38.482,0,0,1-13.007,3.6c-3.1.29-6.6.364-8.711,2.654-3.891,4.227.579,10.985-.236,16.672-.51,3.549-3.085,6.415-5.67,8.9a101.812,101.812,0,0,1-15.659,12.35c-4.546,2.912-9.357,5.485-13.386,9.078s-7.287,8.451-7.551,13.843" fill="#52d2bc"/>
          <path id="Path_343" data-name="Path 343" d="M4397.733,405.783c1.2-5.84,3.912-11.238,6.6-16.558,4.2-8.312,8.487-16.746,14.834-23.563,4.82-5.176,10.7-9.271,15.6-14.37a53.471,53.471,0,0,0,8.81-12.232,42.448,42.448,0,0,1,4.075-7.1c2.032-2.531,4.809-4.334,7.227-6.5a30.994,30.994,0,0,0,7.659-10.563" fill="none" stroke="#00ad9f" stroke-linecap="round" stroke-linejoin="round" stroke-width="1.339"/>
        </g>
        <g id="Group_445" data-name="Group 445">
          <path id="Path_344" data-name="Path 344" d="M4493.173,425.859c-1.647,6.345-4.1,12.623-8.3,17.656a37.688,37.688,0,0,1-10.468,8.446,59.045,59.045,0,0,1-6.331,3.092,76.016,76.016,0,0,1-26.462,5.862c-13.225.5-26.824-2.422-39.514,1.352a38.942,38.942,0,0,0-15.593,9.035,37.952,37.952,0,0,0-7,8.848l1.727-10.976c3.2-11.806,6.465-23.826,13-34.172a89.92,89.92,0,0,1,15.513-17.91,129.419,129.419,0,0,1,31.014-21.684c9.209-4.471,19.435-7.616,29.608-6.371s20.145,7.656,23.317,17.387C4495.716,412.675,4494.832,419.5,4493.173,425.859Z" fill="#5193f4"/>
          <path id="Path_345" data-name="Path 345" d="M4389.879,460.818a80.27,80.27,0,0,1,40.736-30.923c10.258-3.424,21.106-4.726,31.5-7.724s20.755-8.089,26.846-17.025" fill="none" stroke="#0b43a4" stroke-linecap="round" stroke-linejoin="round" stroke-width="1.339"/>
        </g>
        <g id="Group_446" data-name="Group 446">
          <path id="Path_346" data-name="Path 346" d="M4396.282,566.256c.579-14.762,8.21-28.391,17.478-39.9,7.729-9.6,17.057-18.378,28.577-22.75,3.609-1.37,7.57-2.289,11.319-1.368s7.146,4.128,7.215,7.988c.057,3.256-2.129,6.1-4.43,8.4-7.574,7.586-17.363,12.453-26.537,18-15.768,9.529-30.755,22.251-37.012,39.58" fill="#52d2bc"/>
          <path id="Path_347" data-name="Path 347" d="M4402.116,553.338c9.637-21.495,34.582-40.714,51.036-43.115" fill="none" stroke="#00ad9f" stroke-linecap="round" stroke-linejoin="round" stroke-width="1.339"/>
        </g>
        <g id="Group_447" data-name="Group 447">
          <path id="Path_348" data-name="Path 348" d="M4390.258,577.993c-.132-2.474,7.936-8.942,9.754-10.591a93.472,93.472,0,0,1,34.7-19.827c5.118-1.607,10.556-2.774,15.676-1.538s9.818,5.43,10.321,10.955c.488,5.356-3.106,10.6-7.692,13.189s-9.949,2.983-15.063,2.686c-7.9-.46-15.659-2.424-23.591-2.363S4395.293,571.366,4390.258,577.993Z" fill="#00ad9f"/>
          <path id="Path_349" data-name="Path 349" d="M4398.475,570.481c16.213-8.783,40.724-14.5,58.52-12.345" fill="none" stroke="#00ad9f" stroke-linecap="round" stroke-linejoin="round" stroke-width="1.339" style="mix-blend-mode: multiply;isolation: isolate"/>
        </g>
        <g id="Group_449" data-name="Group 449">
          <path id="Path_350" data-name="Path 350" d="M4196.014,318.915a28.376,28.376,0,0,1-2.274,7.392,128.738,128.738,0,0,1-11.9-47.136,26.071,26.071,0,0,1,3.923-15.125,12.122,12.122,0,0,1,.768.967c4.008,5.473,6.07,12.139,7.576,18.778C4196.725,295.29,4197.9,307.259,4196.014,318.915Z" fill="#5275a0" opacity="0.2" style="mix-blend-mode: multiply;isolation: isolate"/>
          <path id="Path_351" data-name="Path 351" d="M4252.087,318.24c12.106-4.3,24.677-7.729,35.682-14.356a31.161,31.161,0,0,0,8.9-7.419,14.944,14.944,0,0,0,3.287-10.866c-.535-3.913-3.04-7.661-2.2-11.52.556-2.544,2.464-4.53,3.923-6.687a21.332,21.332,0,0,0,2.738-17.771c-1.9-6.377-6.676-11.48-9.4-17.552a29.3,29.3,0,0,1-2.265-15.931c-10.154.136-19.423,5.682-29.408,7.534-7.637,1.416-15.583.646-23.153,2.386a36.537,36.537,0,0,0-27.238,29.325,20.119,20.119,0,0,0-17.744,5.944,26.118,26.118,0,0,0-6.965,19.088c3.12,50.1,31.8,76.234,31.8,76.234S4247.471,319.879,4252.087,318.24Z" fill="#7ee8d4"/>
          <g id="Group_448" data-name="Group 448">
            <path id="Path_352" data-name="Path 352" d="M4225.012,317.889c-1.259-12.359,3.059-24.575,8.02-35.964,4.835-11.1,10.4-21.98,17.866-31.51s16.958-17.7,28.16-22.295" fill="none" stroke="#00ad9f" stroke-linecap="round" stroke-linejoin="round" stroke-width="1.339"/>
            <path id="Path_353" data-name="Path 353" d="M4235.784,235.7a99.665,99.665,0,0,0,2.488,35" fill="none" stroke="#00ad9f" stroke-linecap="round" stroke-linejoin="round" stroke-width="1.339"/>
            <path id="Path_354" data-name="Path 354" d="M4240.334,266.761c12.583-8.071,31.94-12.973,46.865-12.117" fill="none" stroke="#00ad9f" stroke-linecap="round" stroke-linejoin="round" stroke-width="1.339"/>
            <path id="Path_355" data-name="Path 355" d="M4209.563,268.821c15.149,6.388,15.772,28.663,16.177,34.992" fill="none" stroke="#00ad9f" stroke-linecap="round" stroke-linejoin="round" stroke-width="1.339"/>
            <path id="Path_356" data-name="Path 356" d="M4229.869,289.649c11.592-8.314,28.341-10.813,40.668-7.713" fill="none" stroke="#00ad9f" stroke-linecap="round" stroke-linejoin="round" stroke-width="1.339"/>
            <path id="Path_357" data-name="Path 357" d="M4261.492,229.981a18.294,18.294,0,0,0-4,12.952" fill="none" stroke="#00ad9f" stroke-linecap="round" stroke-linejoin="round" stroke-width="1.339"/>
            <path id="Path_358" data-name="Path 358" d="M4260.789,239.793c5.343-2.737,12.487-3.365,20.129-1.448" fill="none" stroke="#00ad9f" stroke-linecap="round" stroke-linejoin="round" stroke-width="1.339"/>
          </g>
        </g>
        <g id="Group_450" data-name="Group 450">
          <path id="Path_359" data-name="Path 359" d="M3962.752,264.021c1.425-.075,11.134-7.267,14.874-9.691a10.22,10.22,0,0,0,2.856-2.413,3.6,3.6,0,0,0,.542-3.543,4.469,4.469,0,0,0-4.544-2.806c-4.838.01-6.516,1.6-8.869,4.032C3959.831,257.645,3962.752,264.021,3962.752,264.021Z" fill="#4a49ca"/>
          <path id="Path_360" data-name="Path 360" d="M4006.286,293.03c4.227,1.9,8.745,3.794,13.342,3.206,1.784-.229,3.73-1.039,4.324-2.736a4,4,0,0,0-1.342-4.131,9.556,9.556,0,0,0-4.159-1.876c-5.628-1.374-13.529-.614-19.1.969A49.124,49.124,0,0,0,4006.286,293.03Z" fill="#4a49ca"/>
          <path id="Path_361" data-name="Path 361" d="M4034.131,230.583c-1.886-1.191-3.969-2.784-3.967-5.015s2.334-3.941,4.571-3.952a9.375,9.375,0,0,1,5.993,2.684c7.114,6.245,6.227,13.367,6.227,13.367S4036.231,231.909,4034.131,230.583Z" fill="#4a49ca"/>
          <path id="Path_362" data-name="Path 362" d="M4039.74,211.533a9.158,9.158,0,0,1-4.333-3.087,2.945,2.945,0,0,1-.449-2.5c.487-1.384,1.354-2.627,4.842-1.994,11.042,2,13.448,9.566,13.448,9.566S4042.672,212.793,4039.74,211.533Z" fill="#4a49ca"/>
          <path id="Path_363" data-name="Path 363" d="M4072.093,228.26a17.455,17.455,0,0,0,11.8-6.048,10.8,10.8,0,0,0,2.37-4.388,4.808,4.808,0,0,0-1.294-4.619c-1.551-1.336-4.011-1.122-5.719.006a11.5,11.5,0,0,0-3.694,4.81C4074.368,220.478,4072.093,228.26,4072.093,228.26Z" fill="#4a49ca"/>
          <path id="Path_364" data-name="Path 364" d="M3993,389.77l-32.175-28.363c-5.716-5.039-11.552-10.225-15.172-16.93-7.782-14.413-3.3-33.141,7.214-45.7s25.9-19.982,41.369-25.381,31.562-9.187,46.3-16.327c9.245-4.478,18.54-11.149,21.076-21.1a21.056,21.056,0,0,0-19.152-26.218" fill="none" stroke="#0b43a4" stroke-linecap="round" stroke-linejoin="round" stroke-width="1.339"/>
          <path id="Path_365" data-name="Path 365" d="M4079.586,217.979c-2.93,9-14.345,14.474-19.555,22.268" fill="none" stroke="#0b43a4" stroke-linecap="round" stroke-linejoin="round" stroke-width="1.339"/>
          <path id="Path_366" data-name="Path 366" d="M4038.6,228.329c2.248,2.374,4.94,4.335,6.9,6.95,4.144,5.527,4.491,14.5-1.64,20.075" fill="none" stroke="#0b43a4" stroke-linecap="round" stroke-linejoin="round" stroke-width="1.339"/>
          <path id="Path_367" data-name="Path 367" d="M3980.848,278.707c9.461,7.291,21.9,12.151,33.837,12.614" fill="none" stroke="#0b43a4" stroke-linecap="round" stroke-linejoin="round" stroke-width="1.339"/>
          <path id="Path_368" data-name="Path 368" d="M3959.185,291.988a33.4,33.4,0,0,1,11.228-36.4" fill="none" stroke="#0b43a4" stroke-linecap="round" stroke-linejoin="round" stroke-width="1.339"/>
        </g>
        <g id="Group_451" data-name="Group 451">
          <path id="Path_369" data-name="Path 369" d="M4305.079,237.705c-.514-1.591-.488-3.544.687-4.732a3.49,3.49,0,0,1,3.709-.831c9.409,4.138,8.391,18.817,8.391,18.817S4308.942,249.67,4305.079,237.705Z" fill="#4a49ca"/>
          <path id="Path_370" data-name="Path 370" d="M4304.851,265.2c-6.087,11,15.546,10.161,23.347,3.683C4328.2,268.883,4310.09,255.731,4304.851,265.2Z" fill="#4a49ca"/>
          <path id="Path_371" data-name="Path 371" d="M4332.2,238.538c-1.469-2.013-1.991-5.011-.392-6.922a5.343,5.343,0,0,1,5.088-1.512,11.935,11.935,0,0,1,5.716,3.484c7.119,8.857,3.773,17.525,3.773,17.525S4334.609,241.835,4332.2,238.538Z" fill="#4a49ca"/>
          <path id="Path_372" data-name="Path 372" d="M4418.115,265.776c-.525-1.713-.4-3.8.93-5a4.255,4.255,0,0,1,3.164-.946,9.637,9.637,0,0,1,3.236.966,10.327,10.327,0,0,1,4.982,4.952c2.676,5.511.859,12.333.859,12.333S4419.425,270.046,4418.115,265.776Z" fill="#4a49ca"/>
          <path id="Path_373" data-name="Path 373" d="M4391.09,285.962a13.891,13.891,0,0,0-14.344-2.308,7.352,7.352,0,0,0-3.068,2.3c-1.709,2.364-1.11,5.819.663,8.135s4.461,3.724,7.117,4.929c4.815,2.185,12.287,2.622,17.41,3.929C4398.868,302.949,4398.847,292.776,4391.09,285.962Z" fill="#4a49ca"/>
          <path id="Path_374" data-name="Path 374" d="M4311.822,240.064c3.182,10.418,12.19,18.279,22.219,22.532s21.075,5.374,31.945,6.078,21.87,1.054,32.382,3.907c10.246,2.781,20.448,8.573,24.844,18.236,5.352,11.76.613,25.824-6.9,36.336s-17.63,18.984-24.9,29.666c-3.338,4.906-6.125,10.648-5.451,16.543.9,7.858,7.521,13.645,13.673,18.616" fill="none" stroke="#0b43a4" stroke-linecap="round" stroke-linejoin="round" stroke-width="1.339"/>
          <path id="Path_375" data-name="Path 375" d="M4336.878,236.243a62.343,62.343,0,0,1,14.363,31.083" fill="none" stroke="#0b43a4" stroke-linecap="round" stroke-linejoin="round" stroke-width="1.339"/>
          <path id="Path_376" data-name="Path 376" d="M4312.655,267.024c4.119,1.093,8.293,2.194,12.554,2.2s9.2-2.349,12.262-5.311" fill="none" stroke="#0b43a4" stroke-linecap="round" stroke-linejoin="round" stroke-width="1.339"/>
          <path id="Path_377" data-name="Path 377" d="M4425.163,266.423a21.265,21.265,0,0,1,6.4,14.338c.2,5.361-2.773,11.858-6.342,15.863" fill="none" stroke="#0b43a4" stroke-linecap="round" stroke-linejoin="round" stroke-width="1.339"/>
          <path id="Path_378" data-name="Path 378" d="M4384.787,290.753a214.775,214.775,0,0,0,22.986,18.86c3.911,2.75,11.677,6.277,15.124,5.368" fill="none" stroke="#0b43a4" stroke-linecap="round" stroke-linejoin="round" stroke-width="1.339"/>
        </g>
        <g id="Group_452" data-name="Group 452">
          <path id="Path_379" data-name="Path 379" d="M4474.406,451.961a59.045,59.045,0,0,1-6.331,3.092,76.016,76.016,0,0,1-26.462,5.862c-13.225.5-26.824-2.422-39.514,1.352a38.942,38.942,0,0,0-15.593,9.035c-.442.215-.884.455-1.326.71-1.057-8.955,21.27-20.627,28.056-23.665a80.893,80.893,0,0,1,39.286-6.854c5.862.469,11.872,1.62,16.7,4.953A17.863,17.863,0,0,1,4474.406,451.961Z" fill="#5275a0" opacity="0.2" style="mix-blend-mode: multiply;isolation: isolate"/>
          <path id="Path_380" data-name="Path 380" d="M4452.521,446.846c5.859.467,11.869,1.617,16.709,4.952s8.244,9.29,7.115,15.058c-1.314,6.719-8.262,11.09-15.058,11.916s-13.586-1.043-20.292-2.423a144.674,144.674,0,0,0-45.213-2.067,26.2,26.2,0,0,0-10.607,3.086c-1.056-8.959,21.28-20.627,28.067-23.667A80.91,80.91,0,0,1,4452.521,446.846Z" fill="#52d2bc"/>
          <path id="Path_381" data-name="Path 381" d="M4390.986,471.721c11.089-9.746,39.551-16.362,59.679-14.23,6.064.642,12.181,2.452,16.842,6.384" fill="none" stroke="#00ad9f" stroke-linecap="round" stroke-linejoin="round" stroke-width="1.339"/>
        </g>
      </g>
      <path id="Path_382" data-name="Path 382" d="M4370.274,362.23l108.268-.223a23,23,0,0,1,23.052,22.957h0a23,23,0,0,1-22.957,23.052l-74.059.153" fill="none" stroke="#0b43a4" stroke-linecap="round" stroke-linejoin="round" stroke-width="1.339" stroke-dasharray="5.354"/>
      <path id="Path_383" data-name="Path 383" d="M4042.679,441.725l-75.716.156A12.986,12.986,0,0,0,3954,454.893h0a12.985,12.985,0,0,0,13.012,12.958l22.076-.046" fill="none" stroke="#0b43a4" stroke-linecap="round" stroke-linejoin="round" stroke-width="1.339" stroke-dasharray="5.354"/>
      <g id="Group_454" data-name="Group 454">
        <path id="Path_384" data-name="Path 384" d="M3921.828,500.361c-25.939.054-26.48,38.744,6.525,38.676l486.394-1c20.417-.042,22.573-31.9-2.668-31.844-50.229.1-51.9-23.852-24.009-23.91" fill="none" stroke="#c8dbfb" stroke-linecap="round" stroke-linejoin="round" stroke-width="1.339" stroke-dasharray="5.354"/>
        <path id="Path_385" data-name="Path 385" d="M3927.9,499.284a6.41,6.41,0,1,1-7.4-5.241A6.409,6.409,0,0,1,3927.9,499.284Z" fill="#5193f4"/>
        <path id="Path_386" data-name="Path 386" d="M4400.508,482.453a6.41,6.41,0,1,1-7.4-5.241A6.409,6.409,0,0,1,4400.508,482.453Z" fill="#0b43a4"/>
      </g>
      <g id="Group_464" data-name="Group 464">
        <path id="Path_387" data-name="Path 387" d="M4407.49,594.316l-402.747.831a9.73,9.73,0,0,1-9.75-9.709l-.55-266.812a9.729,9.729,0,0,1,9.709-9.749l402.747-.831a9.729,9.729,0,0,1,9.749,9.709l.551,266.812A9.73,9.73,0,0,1,4407.49,594.316Z" fill="#5275a0" opacity="0.2" style="mix-blend-mode: multiply;isolation: isolate"/>
        <g id="Group_455" data-name="Group 455">
          <path id="Path_388" data-name="Path 388" d="M4399.6,589.218l-402.747.831a9.729,9.729,0,0,1-9.749-9.709l-.551-266.812a9.729,9.729,0,0,1,9.709-9.749l402.747-.832a9.73,9.73,0,0,1,9.75,9.71l.55,266.811A9.728,9.728,0,0,1,4399.6,589.218Z" fill="#fff"/>
          <path id="Path_389" data-name="Path 389" d="M4398.358,302.951l-401.025.827a10.591,10.591,0,0,0-10.569,10.613l.019,9.209,422.206-.871-.019-9.209A10.59,10.59,0,0,0,4398.358,302.951Z" fill="#0056ec"/>
          <path id="Path_390" data-name="Path 390" d="M3997.816,590.049l60.592-.125-.55-266.471-71.183.147.528,255.893A10.585,10.585,0,0,0,3997.816,590.049Z" fill="#c8dbfb"/>
          <g id="Path_391" data-name="Path 391" fill="none" stroke-linecap="round" stroke-linejoin="round">
            <path d="M4399.7,589.22l-402.748.831a9.729,9.729,0,0,1-9.749-9.709l-.551-266.812a9.73,9.73,0,0,1,9.71-9.75l402.747-.831a9.729,9.729,0,0,1,9.749,9.709l.551,266.812A9.73,9.73,0,0,1,4399.7,589.22Z" stroke="none"/>
            <path d="M 3996.94873046875 587.3740234375 L 4399.69677734375 586.54296875 C 4403.5849609375 586.5349731445313 4406.74169921875 583.364501953125 4406.73388671875 579.4755859375 L 4406.1826171875 312.6633911132813 C 4406.17529296875 308.7829895019531 4403.01171875 305.6260681152344 4399.13134765625 305.6260681152344 L 4399.1162109375 305.6260681152344 L 3996.369384765625 306.4570617675781 C 3994.4853515625 306.4608764648438 3992.7158203125 307.1981201171875 3991.386474609375 308.532958984375 C 3990.05712890625 309.8677368164063 3989.3271484375 311.6404418945313 3989.3310546875 313.5244445800781 L 3989.882080078125 580.3364868164063 C 3989.89013671875 584.2169799804688 3993.053466796875 587.3740234375 3996.933837890625 587.3740234375 L 3996.94873046875 587.3740234375 M 3996.933837890625 590.0510864257813 C 3991.56982421875 590.0510864257813 3987.216064453125 585.70849609375 3987.205078125 580.3419799804688 L 3986.654052734375 313.5299987792969 C 3986.64306640625 308.156005859375 3990.989990234375 303.7909851074219 3996.364013671875 303.7799987792969 L 4399.11083984375 302.9490051269531 C 4399.1171875 302.948974609375 4399.12451171875 302.948974609375 4399.13134765625 302.948974609375 C 4404.4951171875 302.948974609375 4408.84912109375 307.2915649414063 4408.85986328125 312.6579895019531 L 4409.4111328125 579.469970703125 C 4409.421875 584.843994140625 4405.0751953125 589.208984375 4399.7021484375 589.219970703125 L 3996.9541015625 590.051025390625 C 3996.947509765625 590.0510864257813 3996.9404296875 590.0510864257813 3996.933837890625 590.0510864257813 Z" stroke="none" fill="#0056ec"/>
          </g>
          <path id="Rectangle_509" data-name="Rectangle 509" d="M3.729,0h46.7a3.73,3.73,0,0,1,3.73,3.73v.462a3.73,3.73,0,0,1-3.73,3.73H3.731A3.731,3.731,0,0,1,0,4.192V3.729A3.729,3.729,0,0,1,3.729,0Z" transform="translate(3997.747 561.862) rotate(-0.118)" fill="#fff"/>
          <rect id="Rectangle_510" data-name="Rectangle 510" width="53.425" height="53.425" rx="6.835" transform="translate(3995.873 335.572) rotate(-0.118)" fill="#fff"/>
          <path id="Rectangle_511" data-name="Rectangle 511" d="M4.871,0h138.51a4.872,4.872,0,0,1,4.872,4.872v.6a4.872,4.872,0,0,1-4.872,4.872H4.872A4.872,4.872,0,0,1,0,5.476v-.6A4.871,4.871,0,0,1,4.871,0Z" transform="matrix(1, -0.002, 0.002, 1, 4069.366, 497.939)" fill="#c8dbfb"/>
          <rect id="Rectangle_512" data-name="Rectangle 512" width="119.202" height="10.348" rx="4.872" transform="translate(4090.412 340.069) rotate(-0.118)" fill="#c8dbfb"/>
          <path id="Path_392" data-name="Path 392" d="M4377.792,460.878l-145.938.3a4.872,4.872,0,0,1-4.882-4.862l0-.6a4.872,4.872,0,0,1,4.863-4.882l145.937-.3a4.872,4.872,0,0,1,4.882,4.862l0,.6A4.872,4.872,0,0,1,4377.792,460.878Z" fill="#c8dbfb"/>
          <rect id="Rectangle_513" data-name="Rectangle 513" width="148.253" height="10.348" rx="4.872" transform="translate(4069.41 519.333) rotate(-0.118)" fill="#c8dbfb"/>
          <rect id="Rectangle_514" data-name="Rectangle 514" width="148.253" height="10.348" rx="4.872" transform="translate(4069.454 540.727) rotate(-0.118)" fill="#c8dbfb"/>
          <path id="Path_393" data-name="Path 393" d="M4374.831,564.732l-139.588.288a8.046,8.046,0,0,1-8.063-8.03l-.124-59.951a8.048,8.048,0,0,1,8.03-8.064l139.588-.288a8.046,8.046,0,0,1,8.064,8.03l.123,59.952A8.046,8.046,0,0,1,4374.831,564.732Z" fill="#c8dbfb"/>
          <path id="Path_394" data-name="Path 394" d="M4009.922,313.478a3.412,3.412,0,1,1-3.419-3.4A3.411,3.411,0,0,1,4009.922,313.478Z" fill="#c8dbfb"/>
          <circle id="Ellipse_298" data-name="Ellipse 298" cx="3.412" cy="3.412" r="3.412" transform="translate(4017.543 310.043)" fill="#c8dbfb"/>
          <path id="Path_395" data-name="Path 395" d="M4038.811,313.418a3.412,3.412,0,1,1-3.419-3.4A3.412,3.412,0,0,1,4038.811,313.418Z" fill="#c8dbfb"/>
          <circle id="Ellipse_299" data-name="Ellipse 299" cx="9.866" cy="9.866" r="9.866" transform="translate(4064.453 354.108) rotate(-84.28)" fill="#c8dbfb"/>
          <rect id="Rectangle_515" data-name="Rectangle 515" width="47.377" height="3.905" rx="1.838" transform="translate(3999.799 393.429) rotate(-0.118)" fill="#fff"/>
          <path id="Rectangle_516" data-name="Rectangle 516" d="M1.839,0h43.7a1.838,1.838,0,0,1,1.838,1.838v.228A1.839,1.839,0,0,1,45.538,3.9H1.838A1.838,1.838,0,0,1,0,2.067V1.839A1.839,1.839,0,0,1,1.839,0Z" transform="matrix(1, -0.002, 0.002, 1, 3999.816, 401.773)" fill="#fff"/>
          <path id="Path_396" data-name="Path 396" d="M4095.4,423.227l-12.358.124.091,51.773-10.663.022a6.814,6.814,0,0,1-6.828-6.8l-.2-95.739a6.884,6.884,0,0,1,6.871-6.9l22.95-.06Z" fill="#c8dbfb"/>
          <g id="Rectangle_517" data-name="Rectangle 517" transform="translate(4065.43 365.722) rotate(-0.118)" fill="none" stroke="#c8dbfb" stroke-linecap="round" stroke-linejoin="round" stroke-width="1.339">
            <rect width="118.164" height="109.438" rx="8.047" stroke="none"/>
            <rect x="0.669" y="0.669" width="116.825" height="108.1" rx="7.377" fill="none"/>
          </g>
        </g>
        <rect id="Rectangle_518" data-name="Rectangle 518" width="155.682" height="85.57" rx="8.047" transform="translate(4220.872 326.314) rotate(12.735)" fill="#c8dbfb"/>
        <g id="Group_457" data-name="Group 457">
          <path id="Path_397" data-name="Path 397" d="M4082.5,626.639l-19.052.039-4.662-24.272,28.275-.058Z" fill="#0056ec"/>
          <path id="Path_398" data-name="Path 398" d="M4064.065,602.4c0,1.979-.374,5.3.945,5.354s.773-3.156,2.276-3.069c.959.055-.447,10.545,3.18,10.8,2.493.173,2.037-5.145,2.294-8.473.173-2.253,3.058-1.811,3.081-.321.027,1.667-.08,2.784,0,4.68.135,3.167,5,2.326,4.831-1.907s-.011-7.095-.011-7.095Z" fill="#c8dbfb"/>
          <g id="Group_456" data-name="Group 456">
            <path id="Path_399" data-name="Path 399" d="M4059.5,617.056a5.183,5.183,0,0,1-1.125-.117,3.98,3.98,0,0,1-2.928-2.193c-1.942-4.118,3.172-11.834,3.371-12.177l.266,1.389c-.046.08-4.491,6.712-2.745,10.412a3.023,3.023,0,0,0,2.258,1.671,4.391,4.391,0,0,0,.956.1c6.862-.013,18.591-12.8,18.72-12.949.479-.576,1.377-.033,1.057.452C4078.8,604.259,4066.88,617.039,4059.5,617.056Z" fill="#0c2340"/>
          </g>
        </g>
        <g id="Group_458" data-name="Group 458">
          <path id="Path_400" data-name="Path 400" d="M4259.7,285.132c-27.075-1.035-64.352,18.989-51.129,67.951-.287,4.14,2.192,7.093,4.828,6.285s.313-8.655.313-8.655c4.508-36.4,12.941-42.7,27.257-42.569l33.583-.069c8.3,1.223,23.388,7.028,25.652,36.168l8.36,1.545C4309.218,324.738,4304.122,286.831,4259.7,285.132Z" fill="#5275a0" opacity="0.2" style="mix-blend-mode: multiply;isolation: isolate"/>
          <path id="Path_401" data-name="Path 401" d="M4259.7,280.868c-27.075-1.036-64.352,18.989-51.129,67.95l5.141-2.369c4.508-36.4,12.941-42.7,27.257-42.569l33.583-.07c8.3,1.223,23.791,8.589,26.055,37.73l7.957-.017C4309.218,320.474,4304.122,282.566,4259.7,280.868Z" fill="#ef832b"/>
          <path id="Path_402" data-name="Path 402" d="M4254.164,281.665l-4.021,8.839s.48,4.979,5.365,4.875,5.538-2.361,5.538-2.361l.637-10.147Z" fill="#ffb9a3"/>
          <path id="Path_403" data-name="Path 403" d="M4274.836,274.293c-4.584,8.1-6.615,10.627-12.609,11.845-7.763,1.577-16.468-3.657-12.422-16.562,3.3-10.523,8.294-8.9,13.185-8.5S4279.789,265.537,4274.836,274.293Z" fill="#ffb9a3"/>
          <path id="Path_404" data-name="Path 404" d="M4256.614,267.9a3.289,3.289,0,0,0-3.732.9,4.087,4.087,0,0,0-1.027,3.908,3.555,3.555,0,0,0-3.346,3.736c-1.281-2.991-.588-6.1-.842-9.163s.082-6.389,2.066-8.733a9.981,9.981,0,0,1,2.973-2.292,15.379,15.379,0,0,1,13.812-.2,8.385,8.385,0,0,0,6.214,1.089c5.914-1.429,9.374,2.57,5.82,6.316a4.72,4.72,0,0,1,2.911,2.019.91.91,0,0,1,.024.887,1.024,1.024,0,0,1-.543.337,6.456,6.456,0,0,1-3.112.247c.4.339,2.594.471,3.256,1.748,1.763,3.4-5.223,1.682-6.288,1.341,1.216.228,4.406,2.774,3.385,4.522-.2.344-4.509,2.855-9.037-2.4a8.27,8.27,0,0,0-3.927-2.769,6.184,6.184,0,0,0-3.689.572c-.865.326-3.074,1.669-3.707.87C4257.129,269.954,4258.025,268.6,4256.614,267.9Z" fill="#0c2340"/>
          <path id="Path_405" data-name="Path 405" d="M4301.466,341.547c-1.2,4.13-2.415,4.541-.959,5.2s2.632-1.657,2.632-1.657l6.717,1.335s-1.516-4.363-2.574-4.889S4301.466,341.547,4301.466,341.547Z" fill="#ffb9a3"/>
          <path id="Path_406" data-name="Path 406" d="M4213.714,346.449c.877,2.179,1.119,2.193,2.342,4.813,2.336,5.007-3.137,12.924-6.535,4.28a24.175,24.175,0,0,1-.948-6.724Z" fill="#ffb9a3"/>
        </g>
        <g id="Group_460" data-name="Group 460">
          <g id="Group_459" data-name="Group 459">
            <path id="Path_407" data-name="Path 407" d="M4266.178,256.764c4.554.288,10.293-3.048,13.836,1.17.327.389.992-.122.707-.545-3.368-4.982-9.876-1.223-14.543-1.389-.493-.017-.487.733,0,.764Z" fill="#0c2340"/>
            <path id="Path_408" data-name="Path 408" d="M4268.021,254.231c-3.182.584-6.242-.972-9.438-.427a13.781,13.781,0,0,0-6.634,3.377c-.492.432.153,1.276.7.911,2.478-1.645,5.021-3.261,8.126-3.105,2.613.131,4.928,1.01,7.51.212a.5.5,0,0,0-.267-.968Z" fill="#0c2340"/>
            <path id="Path_409" data-name="Path 409" d="M4250.166,258.514a7.353,7.353,0,0,0-3.743,5.853c-.188,1.895-.246,6.256,1.671,7.326a.467.467,0,0,0,.564-.731c-1.228-1.246-1.337-4.605-1.249-6.189a7.262,7.262,0,0,1,3.074-5.717c.314-.236.035-.761-.317-.542Z" fill="#0c2340"/>
            <path id="Path_410" data-name="Path 410" d="M4284.126,266.051c-1.135-1.97-4.042-3.711-6.277-2.461a.4.4,0,0,0,.2.74,9.779,9.779,0,0,1,2.83.186,4.936,4.936,0,0,1,2.642,1.889c.256.363.834.044.6-.354Z" fill="#0c2340"/>
          </g>
        </g>
        <g id="Group_462" data-name="Group 462">
          <path id="Path_411" data-name="Path 411" d="M4135.179,470.241c14.2,5.214,26.525,21.5,23.7,33.34-3.2,13.37-12.42,19.138-12.42,19.138l-2.907-5.369s7.375-11.529,6.734-16.974c-1.025-8.72-12.037-14.544-12.037-14.544Z" fill="#0b43a4"/>
          <path id="Path_412" data-name="Path 412" d="M4100.228,621.123s-8.718,3.521-10.9,5.509l17.27-.034-.011-5.488Z" fill="#0c2340"/>
          <path id="Path_413" data-name="Path 413" d="M4138.389,620.787a14,14,0,0,1,2.93,5.742l-11.783.023a13.8,13.8,0,0,1,2.2-5.752Z" fill="#0c2340"/>
          <path id="Path_414" data-name="Path 414" d="M4139.106,621.043l-8.044.013c.16-9.476-1.794-41.775-3.681-65.922-1.111-14.161-2.209-25.539-2.851-27.841l4.31-.951,16.263-3.614C4147.887,535.444,4141.462,593.831,4139.106,621.043Z" fill="#047f76"/>
          <path id="Path_415" data-name="Path 415" d="M4109.54,526.783c-6.275,9.885-7.9,81.306-10.524,94.544l7.629.433a692.606,692.606,0,0,1,27.426-95.652Z" fill="#009790"/>
          <path id="Path_416" data-name="Path 416" d="M4137.286,526.1c-3.681,10-6.987,19.783-9.905,29.032-1.111-14.161-2.209-25.539-2.851-27.841l4.31-.951Z" fill="#5275a0" opacity="0.2" style="mix-blend-mode: multiply;isolation: isolate"/>
          <path id="Path_417" data-name="Path 417" d="M4109.54,526.783c-6.275,9.885-7.9,81.306-10.524,94.544l7.629.433a692.606,692.606,0,0,1,27.426-95.652Z" fill="#009790"/>
          <path id="Path_418" data-name="Path 418" d="M4114.335,447.05s-4.885,18.612,7.316,18.588l-.724,4.756,9.266,1.013-2-6.628s1.832-11.7,1.954-13.815C4130.375,447.018,4119.318,440.064,4114.335,447.05Z" fill="#ffb9a3"/>
          <g id="Group_461" data-name="Group 461">
            <rect id="Rectangle_519" data-name="Rectangle 519" width="3.595" height="15.191" transform="translate(4080.567 426.192) rotate(-0.113)" fill="#0c2340"/>
            <rect id="Rectangle_520" data-name="Rectangle 520" width="25.874" height="5.771" rx="2.616" transform="translate(4069.415 420.442) rotate(-0.113)" fill="#0056ec"/>
          </g>
          <path id="Path_419" data-name="Path 419" d="M4079.6,445.345c-.1-3.446-2.939-2.544-1.373-8.165.968-3.476,8.146.557,7.252,2.968s-1.923,6.223-1.923,6.223Z" fill="#ffb9a3"/>
          <path id="Path_420" data-name="Path 420" d="M4121.738,469.3c-18.244,1.209-19.445,7.357-27.61,6.395-12.084-1.424-9.969-23.865-8.476-31.913l-7.218.014s-13.01,51.122,28.083,41.67c-1.578,8.955,8.64,23.579-1.268,41.328,15.6,4.236,30.155,5.277,42.618-.085-2.182-2.939,4.473-32.642-8.558-54.024C4136.765,468.509,4123.074,469.209,4121.738,469.3Z" fill="#0056ec"/>
          <path id="Path_421" data-name="Path 421" d="M4121.738,469.3c-18.244,1.209-19.445,7.357-27.61,6.395-12.084-1.424-9.969-23.865-8.476-31.913l-7.218.014s-13.01,51.122,28.083,41.67c-1.578,8.955,8.64,23.579-1.268,41.328,15.6,4.236,30.155,5.277,42.618-.085-2.182-2.939,4.473-32.642-8.558-54.024C4136.765,468.509,4123.074,469.209,4121.738,469.3Z" fill="#0056ec"/>
          <path id="Path_422" data-name="Path 422" d="M4119.225,450.616c1.189.3,2.574.533,3.21,1.544a3.756,3.756,0,0,1,.343,2.235,1.865,1.865,0,0,1,1.961-1.277,1.82,1.82,0,0,1,1.589,1.686,2.994,2.994,0,0,1-.265,1.13,13.522,13.522,0,0,1-1.357,2.583c1.492.548,2.739,4.907,3.485,6.262,2.506-.626,8.081-2.78,8.567-11.658.227-4.134-1.033-9.085-5.519-11.838-3.168-1.945-8.425-1.972-12.051-1.046-2.941.752-7.633,3.688-5.445,7.122C4114.847,449.093,4117.261,450.115,4119.225,450.616Z" fill="#ef832b"/>
          <path id="Path_423" data-name="Path 423" d="M4134.852,444.965c1.7-.566,3.852-.266,4.873,1.153.8,1.106.724,2.559.981,3.881a3.013,3.013,0,0,0,.845,1.726,3.636,3.636,0,0,0,2.252.7,51.527,51.527,0,0,1,5.889.184c1.936.328,3.916,1.422,4.468,3.232.3,1,.138,2.1.5,3.082.549,1.474,2.118,2.312,3.484,3.168a22.707,22.707,0,0,1,7.166,7.132,12.923,12.923,0,0,1,2.142,5.916c.137,2.1,1.654,4.88,1.25,6.952-.436,2.234-2.633,5.255-6.973,6.652-7.5,2.413-9.876,3.46-17.062-.811-.867-.515-2.56-2.268-3.343-2.894a3.823,3.823,0,0,1-1.219-1.942,8.111,8.111,0,0,1,1.17-6.161c1.077-1.876,2.528-3.535,3.624-5.4a6.747,6.747,0,0,0,1.135-3.652,1.963,1.963,0,0,0-.494-1.328,2.228,2.228,0,0,0-1.163-.524c-1.578-.31-3.313.017-4.744-.692a3.345,3.345,0,0,1-1.73-3.813c.282-.966,1.013-1.779,1.221-2.762a3.763,3.763,0,0,0-1.817-3.693,10.573,10.573,0,0,0-4.229-1.392,4.892,4.892,0,0,1-2.088-.665,2.8,2.8,0,0,1-1.059-2.322C4129.966,447.912,4132.228,445.839,4134.852,444.965Z" fill="#ef832b"/>
        </g>
        <path id="Path_424" data-name="Path 424" d="M4133.571,452.214a4.482,4.482,0,0,1,4.028,4.408c-.038,1.68-1.029,3.162-1.754,4.678s-1.169,3.425-.2,4.8a4.625,4.625,0,0,0,3.939,1.517c1.691-.025,3.69-.288,4.785,1,.881,1.037.691,2.61.2,3.881a13.793,13.793,0,0,0-1.324,3.84" fill="none" stroke="#ef832b" stroke-miterlimit="10" stroke-width="1.339"/>
        <path id="Path_425" data-name="Path 425" d="M4114.813,441.235a15.617,15.617,0,0,1,20.162,2.226" fill="none" stroke="#ef832b" stroke-miterlimit="10" stroke-width="1.339"/>
        <g id="Group_463" data-name="Group 463">
          <path id="Path_426" data-name="Path 426" d="M4348.7,463.232l-3.017,6.066,7.372,3.014.787-6.983Z" fill="#ffb9a3"/>
          <path id="Path_427" data-name="Path 427" d="M4353.148,443.487c-16.721,7.278-9.87,24.919.308,22.847,4.954-1.008,7.462-16.959,7.462-16.959Z" fill="#ffb9a3"/>
          <path id="Path_428" data-name="Path 428" d="M4358.7,440.977a8.76,8.76,0,0,0-1.976-2.841,2.53,2.53,0,0,0-3.192-.167c-1.125,1.046-.467,3,.673,4.033-.98.119-2.146-.558-2.868.116-.547.51-.357,1.416-.043,2.1a9.332,9.332,0,0,0,3.426,3.928c-.848.482-1.831,1.413-1.323,2.245.141.231.378.39.517.622.323.54.01,1.227-.316,1.765q-.792,1.307-1.705,2.533a1.493,1.493,0,0,1,2.4.415,2.55,2.55,0,0,1-.6,2.693,2.669,2.669,0,0,1-1.349.862c-.46.106-2.485,6.371-.905,7.6,1.954,1.517,8.6.2,9.559-1.514a4.25,4.25,0,0,0,3.761,1.556c1.391-.276,2.453-1.992,1.7-3.2a3.91,3.91,0,0,0,4.718-5.661c.819-.247.984-1.357.775-2.186a5.05,5.05,0,0,0-3.46-3.556,1.713,1.713,0,0,0,1.559-1.684,3.529,3.529,0,0,0-.933-2.3c-1.571-1.936-3.429-2.453-5.748-2.746C4361.031,445.291,4359.739,442.9,4358.7,440.977Z" fill="#4a49ca"/>
          <path id="Path_429" data-name="Path 429" d="M4343.033,619.963s-9.783,4.7-11.1,6.161c0,0,19.248.866,20.755-.042s-3.082-6.133-3.082-6.133Z" fill="#0c2340"/>
          <path id="Path_430" data-name="Path 430" d="M4379.428,614.651s-8.6,6.621-9.58,8.326c0,0,20.3-3.014,20.3-4.339s-4.285-5.361-4.285-5.361Z" fill="#0c2340"/>
          <path id="Path_431" data-name="Path 431" d="M4352.493,529.261c-.362,1.99-13.756,54.868,24.568,86.57l11.1-2.546s-12.92-12.119-19.009-33.926c-5.758-20.622-1.185-22.645,2.269-34,3.822-12.572.978-21.7.978-21.7Z" fill="#d8742a"/>
          <path id="Path_432" data-name="Path 432" d="M4334.176,529.1c-6.075,14.519-16.506,64,6.227,91.865l11.353-.023s-8.943-9.8-9.942-32.541,4.782-32.721,8.859-40.224,7.851-20.254,7.851-20.254Z" fill="#ef832b"/>
          <path id="Path_433" data-name="Path 433" d="M4326.165,439.083c-3.016,10.634-4.008,30.28,11.1,38.193l10.111-2.464s-18.227-9.557-14.323-33.71Z" fill="#0b43a4"/>
          <path id="Path_434" data-name="Path 434" d="M4298.31,433.64l7.849-.968s-.944,32.958,37.119,35.734c29.056,2.118,31.339,56.644,31.339,56.644-9.369,6.307-25.091,8.217-45.235,6.772,0,0,1.289-38.9-1.911-49.548C4327.471,482.274,4295.846,472.324,4298.31,433.64Z" fill="#0056ec"/>
          <path id="Path_435" data-name="Path 435" d="M4288.714,427.658c-1.329,1.54,4.218,3.493,9.6,5.982l6.889-.849a27.206,27.206,0,0,0-.006-2.811c-.086-1.434-.8-2.252-1.622-1.021s-4.3,1.648-5.941.525S4290.042,426.119,4288.714,427.658Z" fill="#ffb9a3"/>
          <path id="Path_436" data-name="Path 436" d="M4326.165,439.083c-2.524-2.482-1.854-2.33-1.854-2.33l7.7,1.739s1.693-3.756,3.127-3.861-1.081,2.589-.505,3.587-1.579,2.884-1.579,2.884Z" fill="#ffb9a3"/>
        </g>
        <path id="Path_437" data-name="Path 437" d="M4363.119,444.259a8.229,8.229,0,0,1,5.124,1.743c1.363,1.236,1.908,3.513.761,4.951" fill="none" stroke="#4a49ca" stroke-miterlimit="10" stroke-width="1.339"/>
        <path id="Path_438" data-name="Path 438" d="M4370.2,458.527a3.235,3.235,0,0,1,1.853,2.295,3.062,3.062,0,0,1-.873,2.381,9.046,9.046,0,0,1-2.088,1.562" fill="none" stroke="#4a49ca" stroke-miterlimit="10" stroke-width="1.339"/>
        <path id="Path_439" data-name="Path 439" d="M4352.551,466.618a9.545,9.545,0,0,0,11.007-1.35" fill="none" stroke="#4a49ca" stroke-miterlimit="10" stroke-width="1.339"/>
        <path id="Path_440" data-name="Path 440" d="M4370.555,446.829a3.011,3.011,0,0,1,1.007,3.448,8.812,8.812,0,0,1-2.16,3.172" fill="none" stroke="#4a49ca" stroke-miterlimit="10" stroke-width="1.339"/>
      </g>
      <g id="Group_465" data-name="Group 465">
        <path id="Path_441" data-name="Path 441" d="M4144.028,202.409l-3.14-7.668,30.291-11.5Z" fill="#0b43a4"/>
        <path id="Path_442" data-name="Path 442" d="M4145.553,197.683l25.625-14.443-17.837,18.117Z" fill="#5193f4"/>
        <path id="Path_443" data-name="Path 443" d="M4133.955,191.618l37.223-8.378-30.291,11.5Z" fill="#5193f4"/>
        <path id="Path_444" data-name="Path 444" d="M4145.553,197.683l-1.525,4.726,4.624-3.264Z" fill="#0056ec"/>
      </g>
      <path id="Path_445" data-name="Path 445" d="M4140.469,201.384c-7.908-1.338-18.643,6.659-14.025,14.99,1.572,2.836,9.68,1.605,9.077-1.53-.289-1.5-2.127-2.138-3.645-1.964-8.839,1.013-9.191,8.421-8.8,10.308,2.024,9.743,16.956,6.448,21.977,5.073" fill="none" stroke="#c8dbfb" stroke-linecap="round" stroke-linejoin="round" stroke-width="1.339" stroke-dasharray="5.354"/>
    </g>
  </g>
</svg>
